v -0.724662 1.57517 0.0939272
v -0.800082 1.34956 0.105699
v -0.591736 1.23578 0.162371
v -0.540635 1.49458 0.143658
v -0.903765 1.1583 0.107995
v -0.663318 0.979961 0.176049
v -0.914087 -1.14555 0.107565
v -0.80741 -1.33322 0.106259
v -0.596895 -1.21456 0.163707
v -0.669656 -0.959724 0.1769
v -0.730144 -1.55593 0.095178
v -0.544254 -1.47449 0.145235
v -0.384107 1.17501 0.200849
v -0.350371 1.44481 0.180554
v -0.432011 0.904834 0.216733
v -0.749625 0.733294 0.184262
v -0.491751 0.638829 0.228373
v -0.844211 0.489565 0.187773
v -0.555031 0.382612 0.233715
v -0.916707 0.20378 0.191298
v -0.602654 0.132872 0.23556
v -0.919296 -0.17575 0.191401
v -0.604773 -0.113058 0.2356
v -0.85185 -0.470206 0.187988
v -0.559522 -0.3623 0.233925
v -0.757234 -0.714331 0.184646
v -0.496812 -0.617947 0.228977
v -0.436586 -0.883261 0.217925
v -0.387403 -1.15313 0.202266
v -0.352429 -1.42301 0.182241
v -0.169344 1.14754 0.222472
v -0.155007 1.4183 0.202475
v -0.191196 0.876422 0.239597
v -0.21704 0.615139 0.251976
v -0.243699 0.36635 0.260044
v -0.261769 0.127153 0.263932
v -0.262506 -0.108168 0.264068
v -0.245595 -0.346837 0.260494
v -0.218958 -0.594746 0.252716
v -0.193164 -0.854904 0.24078
v -0.170563 -1.12552 0.223996
v -0.156147 -1.39651 0.204158
v 0.0479508 1.14201 0.227443
v 0.0442424 1.41302 0.207255
v 0.0544468 0.871313 0.244785
v 0.0619927 0.611454 0.257309
v 0.0691864 0.364292 0.265539
v 0.0741685 0.126541 0.269733
v 0.0745215 -0.107619 0.269892
v 0.069648 -0.344837 0.266003
v 0.0625979 -0.591145 0.258073
v 0.0550978 -0.849946 0.24593
v 0.0483825 -1.12005 0.228995
v 0.0446407 -1.39121 0.208944
v 0.265201 1.15649 0.215065
v 0.24173 1.42689 0.194975
v 0.298659 0.885282 0.231616
v 0.339823 0.622092 0.243593
v 0.382488 0.370302 0.251031
v 0.412668 0.12832 0.254005
v 0.413827 -0.109207 0.254111
v 0.385452 -0.350597 0.251362
v 0.342873 -0.601517 0.24428
v 0.301969 -0.863595 0.232863
v 0.267397 -1.13448 0.216545
v 0.243434 -1.40517 0.196688
v 0.476676 1.19703 0.185694
v 0.435494 1.46392 0.165797
v 0.535116 0.92968 0.201117
v 0.608585 0.665042 0.211961
v 0.686784 0.407194 0.216133
v 0.751041 0.143847 0.216333
v 0.753747 -0.1231 0.216263
v 0.692303 -0.386376 0.216217
v 0.614753 -0.644074 0.212483
v 0.540852 -0.908627 0.202177
v 0.481065 -1.17525 0.187174
v 0.43818 -1.44298 0.167474
v 0.683398 1.27987 0.139733
v 0.623059 1.52484 0.123575
v 0.765894 1.04455 0.150441
v 0.868592 0.832955 0.15399
v 0.773274 -1.02608 0.150975
v 0.877454 -0.816549 0.153949
v 0.689073 -1.2595 0.140868
v 0.627135 -1.5048 0.125082
v 0.896899 1.41939 0.0737054
v 0.805056 1.62439 0.067688
v 0.811298 -1.60597 0.0685741
v 0.905189 -1.40452 0.0737735
v -0.954457 1.73156 0.0136875
v -0.906259 1.69648 0.0316404
v -0.895053 1.7175 0.0315404
v -0.876694 1.71315 0.037058
v -0.6991 1.67571 0.0871798
v -0.753171 1.6859 0.072773
v -0.629216 1.66254 0.1058
v -0.517706 1.64686 0.131749
v -0.504612 1.64501 0.134796
v -0.334475 1.63288 0.164832
v -0.379216 1.63459 0.158536
v -0.253171 1.62979 0.176273
v -0.147526 1.6287 0.185547
v -0.126694 1.62849 0.187376
v 0.0419912 1.62851 0.189944
v 0 1.62853 0.191217
v 0.126694 1.62849 0.187376
v 0.230793 1.62956 0.178238
v 0.253171 1.62979 0.176273
v 0.416035 1.63765 0.151565
v 0.379216 1.63459 0.158536
v 0.504612 1.64501 0.134796
v 0.597712 1.65811 0.113131
v 0.629216 1.66254 0.1058
v 0.782052 1.69227 0.0644225
v 0.753171 1.6859 0.072773
v 0.954457 1.73156 0.0136874
v 0.876694 1.71315 0.037058
v -1 1.74235 0
v -0.985849 1.56147 0.0311935
v -0.983192 1.5275 0.037051
v -0.979712 1.47979 0.0449734
v 0.979712 1.47979 0.0449734
v 0.983192 1.5275 0.037051
v 1 1.74235 0
v -0.967494 1.31228 0.072786
v -0.960957 1.20754 0.0888422
v 0.960957 1.20754 0.0888422
v 0.967494 1.31228 0.072786
v 0.967907 1.31795 0.071846
v -0.954016 1.09631 0.105892
v -0.954012 1.09622 0.105904
v -0.945322 0.910319 0.130874
v 0.945322 0.910319 0.130874
v 0.954016 1.09631 0.105892
v -0.943868 0.879209 0.135052
v -0.937773 0.660725 0.159052
v -0.936725 0.580242 0.165658
v 0.936725 0.580242 0.165658
v 0.937773 0.660725 0.159052
v 0.938967 0.703518 0.154351
v 0.943868 0.879209 0.135052
v -0.934912 0.441111 0.177079
v -0.93408 0.213116 0.188554
v -0.93408 0.220744 0.188418
v 0.93408 0.213116 0.188554
v 0.93408 0.220744 0.188418
v 0.934912 0.441111 0.177079
v -0.934078 -0.181285 0.189122
v -0.934071 0 0.192356
v 0.934078 -0.181285 0.189122
v 0.934071 0 0.192356
v -0.934912 -0.441111 0.177079
v -0.936356 -0.551955 0.16798
v -0.93408 -0.220744 0.188418
v 0.936356 -0.551955 0.16798
v 0.934912 -0.441111 0.177079
v 0.93408 -0.220744 0.188418
v -0.937773 -0.660725 0.159052
v -0.943868 -0.879209 0.135052
v -0.944167 -0.885603 0.134193
v 0.938967 -0.703518 0.154351
v 0.937773 -0.660725 0.159052
v 0.944167 -0.885603 0.134193
v 0.943868 -0.879209 0.135052
v -0.95953 -1.18468 0.0923468
v -0.954012 -1.09622 0.105904
v -0.954016 -1.09631 0.105892
v 0.95953 -1.18468 0.0923468
v 0.954016 -1.09631 0.105892
v -0.967494 -1.31228 0.072786
v -0.978147 -1.45834 0.0485351
v 0.967907 -1.31795 0.071846
v 0.967494 -1.31228 0.072786
v 0.978147 -1.45834 0.0485351
v -1 -1.74235 0
v -0.91485 -1.68037 0.031717
v -0.985849 -1.56147 0.0311935
v -0.983192 -1.5275 0.037051
v 1 -1.74235 0
v 0.983192 -1.5275 0.037051
v -0.895053 -1.7175 0.0315404
v -0.876694 -1.71315 0.037058
v -0.753171 -1.6859 0.072773
v -0.6991 -1.67571 0.0871798
v -0.629216 -1.66254 0.1058
v -0.517706 -1.64686 0.131749
v -0.504612 -1.64501 0.134796
v -0.379216 -1.63459 0.158536
v -0.334475 -1.63288 0.164832
v -0.253171 -1.62979 0.176273
v -0.147526 -1.6287 0.185547
v -0.126694 -1.62849 0.187376
v 0 -1.62853 0.191217
v 0.0419912 -1.62851 0.189944
v 0.126694 -1.62849 0.187376
v 0.230793 -1.62956 0.178238
v 0.253171 -1.62979 0.176273
v 0.379216 -1.63459 0.158536
v 0.416035 -1.63765 0.151565
v 0.504612 -1.64501 0.134796
v 0.597712 -1.65811 0.113131
v 0.629216 -1.66254 0.1058
v 0.753171 -1.6859 0.072773
v 0.782052 -1.69227 0.0644225
v 0.876694 -1.71315 0.037058
vn -0.235099 0.131866 0.962985
vn -0.214388 0.125216 0.968689
vn -0.171724 0.106712 0.979349
vn -0.199436 0.112747 0.973403
vn -0.0841204 0.0548229 0.994946
vn -0.166049 0.102835 0.980741
vn -0.204425 -0.130243 0.970179
vn -0.192754 -0.126205 0.973097
vn -0.180511 -0.109354 0.977475
vn -0.172262 -0.104864 0.979454
vn -0.227406 -0.127055 0.965476
vn -0.203718 -0.114173 0.972349
vn -0.117648 0.0883775 0.989115
vn -0.147065 0.0972504 0.984334
vn -0.112052 0.0773823 0.990685
vn -0.151398 0.0964568 0.983755
vn -0.108553 0.0624897 0.992125
vn 0.903853 -0.391832 0.171804
vn -0.106753 0.0437584 0.993322
vn -0.149795 0.00223985 0.988715
vn -0.108624 0.0175706 0.993928
vn -0.147247 -0.0298998 0.988648
vn -0.111309 -0.0157877 0.993661
vn -0.139483 -0.0577446 0.988539
vn -0.111839 -0.0433617 0.99278
vn -0.160074 -0.0993057 0.982097
vn -0.114284 -0.0631438 0.991439
vn -0.119025 -0.0783022 0.989799
vn -0.126133 -0.0894646 0.987971
vn -0.151867 -0.0977828 0.983552
vn -0.0538379 0.0747234 0.99575
vn -0.0829141 0.0844067 0.992976
vn -0.0510263 0.0622564 0.996755
vn -0.0495285 0.0465181 0.997689
vn -0.0498187 0.0290027 0.998337
vn -0.0500168 0.0105456 0.998693
vn -0.0502283 -0.00913136 0.998696
vn -0.0502777 -0.0276899 0.998351
vn -0.0516313 -0.0453934 0.997634
vn -0.0543608 -0.0616589 0.996616
vn -0.0580726 -0.0746123 0.99552
vn -0.085673 -0.0842514 0.992755
vn 0.0152935 0.0698676 0.997439
vn -0.00631639 0.0783419 0.996907
vn 0.0148134 0.057099 0.998259
vn 0.0143001 0.0418792 0.99902
vn 0.0143391 0.0262567 0.999552
vn 0.0145737 0.00938539 0.99985
vn 0.0144584 -0.00804061 0.999863
vn 0.0144882 -0.0251096 0.99958
vn 0.0149273 -0.040748 0.999058
vn 0.0154183 -0.0559071 0.998317
vn 0.016414 -0.0690467 0.997478
vn -0.005439 -0.0779755 0.99694
vn 0.0842566 0.0746552 0.993644
vn 0.0724128 0.0815176 0.994038
vn 0.0795636 0.0627541 0.994853
vn 0.0770242 0.0484141 0.995853
vn 0.0773976 0.0316849 0.996497
vn 0.0782727 0.0115534 0.996865
vn 0.0785728 -0.00999152 0.996858
vn 0.0784645 -0.0304386 0.996452
vn 0.0807133 -0.0474085 0.995609
vn 0.0850736 -0.0621551 0.994434
vn 0.0905994 -0.0744171 0.993103
vn 0.0761718 -0.0813343 0.993772
vn 0.145418 0.0881387 0.985436
vn 0.140608 0.0928328 0.985704
vn 0.138406 0.0789451 0.987224
vn 0.133601 0.0646155 0.988927
vn 0.127596 0.0427243 0.990906
vn 0.126693 0.0155908 0.991819
vn 0.134775 -0.0153803 0.990757
vn 0.14077 -0.0443048 0.989051
vn 0.143111 -0.0653012 0.98755
vn 0.147418 -0.0795759 0.985868
vn 0.154794 -0.089116 0.983919
vn 0.145393 -0.0931904 0.984975
vn 0.194267 0.107454 0.975046
vn 0.196545 0.108739 0.974446
vn 0.181972 0.100885 0.978115
vn 0.17223 0.0895209 0.980981
vn 0.188272 -0.101773 0.976829
vn 0.178036 -0.0901434 0.979886
vn 0.203793 -0.109618 0.972858
vn 0.200771 -0.109541 0.973495
vn 0.224097 0.128251 0.966091
vn 0.229988 0.125037 0.965128
vn 0.230734 -0.125184 0.96493
vn 0.227831 -0.129677 0.965027
vn -0.253742 0.142668 0.956693
vn -0.253432 0.142706 0.956769
vn -0.254389 0.140183 0.956888
vn -0.254389 0.140183 0.956888
vn -0.244001 0.132157 0.960728
vn -0.254389 0.140183 0.956888
vn -0.233566 0.124106 0.964388
vn -0.22227 0.115937 0.968067
vn -0.210928 0.107744 0.971546
vn -0.173211 0.100894 0.979703
vn -0.210928 0.107744 0.971546
vn -0.135228 0.0938886 0.986356
vn -0.1108 0.0884447 0.9899
vn -0.0863005 0.0829443 0.99281
vn -0.0280824 0.0817868 0.996254
vn -0.0863005 0.0829443 0.99281
vn 0.0302312 0.080351 0.996308
vn 0.0582568 0.0835203 0.994802
vn 0.0862358 0.086623 0.992502
vn 0.131782 0.0934302 0.986866
vn 0.0862358 0.086623 0.992502
vn 0.177045 0.100036 0.979106
vn 0.193365 0.108015 0.975163
vn 0.209619 0.115956 0.970883
vn 0.230945 0.123792 0.96506
vn 0.209619 0.115956 0.970883
vn 0.244156 0.132812 0.960598
vn 0.252144 0.13156 0.958705
vn -0.253093 0.145152 0.956491
vn -0.252473 0.145227 0.956643
vn -0.251853 0.145302 0.956795
vn -0.872938 0.406907 -0.269082
vn 0.232905 0.138577 0.962575
vn 0.236151 0.134055 0.962425
vn 0.236151 0.134055 0.962425
vn 0.214283 -0.127789 -0.968376
vn 0.852054 -0.508127 0.125745
vn 0.197545 0.112103 0.973863
vn 0.208594 0.117302 0.970942
vn 0.219155 0.130218 0.966961
vn 0 0 1
vn -0.0961895 0.0613429 0.993471
vn -0.551099 0.814483 -0.181405
vn 0.184799 0.104591 0.977195
vn 0.186464 0.106887 0.97663
vn 0.160353 -0.0764086 -0.984098
vn 0.160353 -0.0764086 -0.984098
vn 0.141298 -0.0598308 -0.988157
vn 0.146366 0.0486737 0.988032
vn 0.155409 0.0630846 0.985834
vn 0.169321 0.0827144 0.982084
vn 0.183132 0.102295 0.977752
vn 0.122152 -0.043214 -0.99157
vn -0.591596 -0.803685 -0.0640727
vn 0.122152 -0.043214 -0.99157
vn 0.143272 0.0177522 0.989524
vn 0.137279 0.0342485 0.98994
vn 0.137279 0.0342485 0.98994
vn -0.155026 -0.0387033 0.987152
vn -0.152915 0.00142238 0.988238
vn 0.158636 -0.0190659 0.987153
vn 0.149222 0.0012503 0.988803
vn -0.156887 -0.0787665 0.98447
vn 0.687644 -0.724041 0.0539543
vn -0.156887 -0.0787665 0.98447
vn 0.171482 -0.0531335 0.983753
vn 0.167971 -0.0393725 0.985005
vn 0.167971 -0.0393725 0.985005
vn 0.160001 0.0754879 -0.984226
vn 0.160001 0.0754879 -0.984226
vn -0.547943 -0.816792 -0.180579
vn 0.178964 -0.0849649 0.98018
vn 0.174958 -0.0668836 0.982302
vn 0.182301 -0.103618 0.977768
vn 0.182909 -0.103017 0.977718
vn -0.214159 -0.139807 0.966742
vn -0.199452 -0.128709 0.971418
vn -0.207753 -0.135517 0.968749
vn 0.200557 -0.112655 0.973183
vn 0.181693 -0.10422 0.977817
vn -0.220552 -0.144088 0.964674
vn 0.853648 -0.503654 0.132731
vn 0.223415 -0.132197 0.965717
vn 0.219332 -0.12104 0.968113
vn 0.230853 -0.138683 0.963055
vn -0.252512 -0.142816 0.956996
vn -0.258873 -0.147065 0.95465
vn -0.52937 -0.80985 -0.252804
vn 0.241618 0.131658 -0.961398
vn 0.241484 -0.132242 0.961352
vn 0.234233 -0.134027 0.962898
vn -0.254389 -0.140183 0.956888
vn -0.254389 -0.140183 0.956888
vn -0.254389 -0.140183 0.956888
vn -0.243919 -0.132546 0.960695
vn -0.233403 -0.124885 0.964327
vn -0.222131 -0.116692 0.968009
vn -0.210812 -0.108475 0.971489
vn -0.210812 -0.108475 0.971489
vn -0.173166 -0.101012 0.979699
vn -0.135253 -0.0933936 0.9864
vn -0.110813 -0.0881152 0.989927
vn -0.0863033 -0.0827807 0.992824
vn -0.0863033 -0.0827807 0.992824
vn -0.0280836 -0.0815848 0.996271
vn 0.0302318 -0.0801113 0.996327
vn 0.0582584 -0.083324 0.994818
vn 0.0862386 -0.0864702 0.992515
vn 0.0862386 -0.0864702 0.992515
vn 0.131778 -0.0934117 0.986868
vn 0.177033 -0.100152 0.979096
vn 0.193362 -0.108053 0.975159
vn 0.209625 -0.115918 0.970887
vn 0.209625 -0.115918 0.970887
vn 0.229226 -0.123213 0.965543
vn 0.248721 -0.130451 0.95975
f 1//1 2//2 3//3 4//4
f 2//2 5//5 6//6 3//3
f 7//7 8//8 9//9 10//10
f 8//8 11//11 12//12 9//9
f 4//4 3//3 13//13 14//14
f 3//3 6//6 15//15 13//13
f 6//6 16//16 17//17 15//15
f 16//16 18//18 19//19 17//17
f 18//18 20//20 21//21 19//19
f 20//20 22//22 23//23 21//21
f 22//22 24//24 25//25 23//23
f 24//24 26//26 27//27 25//25
f 26//26 10//10 28//28 27//27
f 10//10 9//9 29//29 28//28
f 9//9 12//12 30//30 29//29
f 14//14 13//13 31//31 32//32
f 13//13 15//15 33//33 31//31
f 15//15 17//17 34//34 33//33
f 17//17 19//19 35//35 34//34
f 19//19 21//21 36//36 35//35
f 21//21 23//23 37//37 36//36
f 23//23 25//25 38//38 37//37
f 25//25 27//27 39//39 38//38
f 27//27 28//28 40//40 39//39
f 28//28 29//29 41//41 40//40
f 29//29 30//30 42//42 41//41
f 32//32 31//31 43//43 44//44
f 31//31 33//33 45//45 43//43
f 33//33 34//34 46//46 45//45
f 34//34 35//35 47//47 46//46
f 35//35 36//36 48//48 47//47
f 36//36 37//37 49//49 48//48
f 37//37 38//38 50//50 49//49
f 38//38 39//39 51//51 50//50
f 39//39 40//40 52//52 51//51
f 40//40 41//41 53//53 52//52
f 41//41 42//42 54//54 53//53
f 44//44 43//43 55//55 56//56
f 43//43 45//45 57//57 55//55
f 45//45 46//46 58//58 57//57
f 46//46 47//47 59//59 58//58
f 47//47 48//48 60//60 59//59
f 48//48 49//49 61//61 60//60
f 49//49 50//50 62//62 61//61
f 50//50 51//51 63//63 62//62
f 51//51 52//52 64//64 63//63
f 52//52 53//53 65//65 64//64
f 53//53 54//54 66//66 65//65
f 56//56 55//55 67//67 68//68
f 55//55 57//57 69//69 67//67
f 57//57 58//58 70//70 69//69
f 58//58 59//59 71//71 70//70
f 59//59 60//60 72//72 71//71
f 60//60 61//61 73//73 72//72
f 61//61 62//62 74//74 73//73
f 62//62 63//63 75//75 74//74
f 63//63 64//64 76//76 75//75
f 64//64 65//65 77//77 76//76
f 65//65 66//66 78//78 77//77
f 68//68 67//67 79//79 80//80
f 67//67 69//69 81//81 79//79
f 69//69 70//70 82//82 81//81
f 75//75 76//76 83//83 84//84
f 76//76 77//77 85//85 83//83
f 77//77 78//78 86//86 85//85
f 80//80 79//79 87//87 88//88
f 85//85 86//86 89//89 90//90
f 91//91 92//92 93//93
f 94//94 93//93 92//92 1//1 95//95 96//96
f 97//97 95//95 1//1 4//4 98//98
f 99//99 98//98 4//4 14//14 100//100 101//101
f 102//102 100//100 14//14 32//32 103//103
f 104//104 103//103 32//32 44//44 105//105 106//106
f 107//107 105//105 44//44 56//56 108//108
f 109//109 108//108 56//56 68//68 110//110 111//111
f 112//112 110//110 68//68 80//80 113//113
f 114//114 113//113 80//80 88//88 115//115 116//116
f 115//115 88//88 117//117 118//118
f 91//91 119//119 120//120 92//92
f 92//92 120//120 121//121 122//122 2//2 1//1
f 88//88 87//87 123//123 124//124 125//125 117//117
f 2//2 5//5 127//127 126//126 122//122
f 79//79 81//81 128//128 129//129 130//130 87//87
f 87//87 130//130 123//123
f 5//5 132//132 131//131 127//127
f 5//5 132//132 133//133 16//16 6//6
f 81//81 82//82 134//134 135//135 128//128
f 16//16 18//18 138//138 137//137 136//136 133//133
f 70//70 71//71 139//139 140//140 141//141 82//82
f 82//82 141//141 142//142 134//134
f 18//18 20//20 145//145 144//144 143//143 138//138
f 71//71 72//72 146//146 147//147 148//148 139//139
f 144//144 149//149 22//22 150//150 20//20
f 72//72 73//73 151//151 152//152 146//146
f 153//153 154//154 24//24 22//22 155//155 149//149
f 73//73 74//74 156//156 157//157 158//158 151//151
f 154//154 24//24 26//26 161//161 160//160 159//159
f 74//74 75//75 84//84 162//162 163//163 156//156
f 162//162 84//84 164//164 165//165
f 166//166 7//7 167//167 168//168
f 161//161 167//167 7//7 10//10 26//26
f 164//164 84//84 83//83 169//169 170//170
f 171//171 172//172 8//8 7//7 166//166
f 83//83 85//85 90//90 173//173 174//174 169//169
f 173//173 90//90 175//175
f 176//176 177//177 178//178
f 8//8 11//11 177//177 178//178 179//179 172//172
f 175//175 90//90 89//89 180//180 181//181
f 176//176 182//182 177//177
f 177//177 182//182 183//183 184//184 185//185 11//11
f 11//11 185//185 186//186 187//187 12//12
f 12//12 187//187 188//188 189//189 190//190 30//30
f 30//30 190//190 191//191 192//192 42//42
f 42//42 192//192 193//193 194//194 195//195 54//54
f 54//54 195//195 196//196 197//197 66//66
f 66//66 197//197 198//198 199//199 200//200 78//78
f 78//78 200//200 201//201 202//202 86//86
f 86//86 202//202 203//203 204//204 205//205 89//89
f 89//89 205//205 206//206 180//180
