# Blender 5.2.0 LTS
# www.blender.org
mtllib slab_long.mtl
o Cube
v 1.000000 -1.742346 0.000000
v 0.934071 0.000000 0.192356
v -1.000000 -1.742346 0.000000
v 0.000000 1.628527 0.191217
v 1.000000 1.742346 0.000000
v 0.000000 -1.628527 0.191217
v -1.000000 1.742346 0.000000
v -0.934071 0.000000 0.192356
v 0.000000 0.000000 0.271721
v 0.000000 0.864793 0.246216
v -0.000000 -0.864792 0.246216
v 0.495880 0.000000 0.248583
v -0.495880 0.000000 0.248583
v 0.943868 0.879209 0.135052
v -0.504612 1.645014 0.134796
v -0.943868 0.879209 0.135052
v -0.504612 -1.645014 0.134796
v 0.504612 -1.645014 0.134796
v 0.504612 1.645014 0.134796
v 0.943868 -0.879209 0.135052
v -0.943868 -0.879209 0.135052
v -0.497169 -0.866573 0.212219
v 0.497169 -0.866573 0.212219
v 0.497169 0.866573 0.212219
v -0.497169 0.866573 0.212219
v 0.000000 0.656884 0.256590
v 0.000000 0.441870 0.264647
v 0.000000 0.222119 0.269865
v -0.000000 -1.064016 0.234036
v 0.000000 -1.256134 0.220510
v 0.000000 -1.443515 0.206088
v 0.376642 0.000000 0.258376
v 0.253348 0.000000 0.265643
v 0.127350 0.000000 0.270165
v -0.610160 0.000000 0.236544
v -0.720384 0.000000 0.222775
v -0.827903 0.000000 0.207854
v 0.937773 0.660725 0.159052
v 0.934912 0.441111 0.177079
v 0.934080 0.220744 0.188418
v -0.379216 1.634585 0.158536
v -0.253171 1.629790 0.176273
v -0.126694 1.628486 0.187376
v -0.954016 1.096311 0.105892
v -0.967494 1.312284 0.072786
v -0.983192 1.527503 0.037051
v -0.629216 -1.662541 0.105800
v -0.753171 -1.685901 0.072773
v -0.876694 -1.713151 0.037058
v 0.379216 -1.634585 0.158536
v 0.253171 -1.629790 0.176273
v 0.126694 -1.628486 0.187376
v 0.629216 1.662541 0.105800
v 0.753171 1.685901 0.072773
v 0.876694 1.713151 0.037058
v 0.954016 -1.096311 0.105892
v 0.967494 -1.312284 0.072786
v 0.983192 -1.527503 0.037051
v -0.937773 -0.660725 0.159052
v -0.934912 -0.441111 0.177079
v -0.934080 -0.220744 0.188418
v -0.000000 1.443515 0.206088
v -0.000000 1.256134 0.220510
v 0.000000 1.064016 0.234036
v 0.000000 -0.222119 0.269865
v 0.000000 -0.441870 0.264647
v 0.000000 -0.656884 0.256590
v 0.827903 0.000000 0.207854
v 0.720384 0.000000 0.222775
v 0.610160 0.000000 0.236544
v -0.127350 0.000000 0.270165
v -0.253348 0.000000 0.265643
v -0.376642 0.000000 0.258376
v 0.983192 1.527503 0.037051
v 0.967494 1.312284 0.072786
v 0.954016 1.096311 0.105892
v -0.876694 1.713151 0.037058
v -0.753171 1.685901 0.072773
v -0.629216 1.662541 0.105800
v -0.934080 0.220744 0.188418
v -0.934912 0.441111 0.177079
v -0.937773 0.660725 0.159052
v -0.126694 -1.628486 0.187376
v -0.253171 -1.629790 0.176273
v -0.379216 -1.634585 0.158536
v 0.876694 -1.713151 0.037058
v 0.753171 -1.685901 0.072773
v 0.629216 -1.662541 0.105800
v 0.126694 1.628486 0.187376
v 0.253171 1.629790 0.176273
v 0.379216 1.634585 0.158536
v 0.934080 -0.220744 0.188418
v 0.934912 -0.441111 0.177079
v 0.937773 -0.660725 0.159052
v -0.983192 -1.527503 0.037051
v -0.967494 -1.312284 0.072786
v -0.954016 -1.096311 0.105892
v -0.612984 -0.868798 0.195380
v -0.725250 -0.871823 0.176439
v -0.835150 -0.875382 0.156096
v -0.127250 -0.864745 0.243820
v -0.253316 -0.864815 0.236994
v -0.377017 -0.865319 0.226279
v -0.498514 -1.068413 0.195007
v -0.500301 -1.264056 0.175958
v -0.502383 -1.455568 0.155683
v -0.495880 -0.221807 0.245918
v -0.495988 -0.441549 0.238445
v -0.496364 -0.657159 0.226950
v 0.377017 -0.865319 0.226279
v 0.253316 -0.864815 0.236994
v 0.127250 -0.864745 0.243820
v 0.835150 -0.875383 0.156096
v 0.725250 -0.871823 0.176439
v 0.612984 -0.868798 0.195380
v 0.498514 -1.068413 0.195007
v 0.500301 -1.264056 0.175958
v 0.502383 -1.455568 0.155683
v 0.495880 -0.221807 0.245918
v 0.495988 -0.441549 0.238445
v 0.496364 -0.657159 0.226950
v 0.377017 0.865319 0.226279
v 0.253316 0.864815 0.236994
v 0.127250 0.864745 0.243820
v 0.835150 0.875382 0.156096
v 0.725250 0.871823 0.176439
v 0.612984 0.868798 0.195380
v 0.496364 0.657159 0.226950
v 0.495988 0.441549 0.238445
v 0.495880 0.221807 0.245918
v 0.502383 1.455568 0.155683
v 0.500301 1.264056 0.175958
v 0.498514 1.068413 0.195007
v -0.612984 0.868798 0.195380
v -0.725250 0.871823 0.176439
v -0.835150 0.875382 0.156096
v -0.127250 0.864745 0.243820
v -0.253316 0.864815 0.236994
v -0.377017 0.865319 0.226279
v -0.496364 0.657159 0.226950
v -0.495988 0.441549 0.238445
v -0.495880 0.221807 0.245918
v -0.502383 1.455568 0.155683
v -0.500301 1.264056 0.175958
v -0.498514 1.068413 0.195007
v -0.615918 1.073390 0.175595
v -0.619815 1.272706 0.153572
v -0.624355 1.468503 0.130059
v -0.730297 1.080080 0.153725
v -0.737001 1.284276 0.128266
v -0.744810 1.485765 0.100977
v -0.842661 1.087910 0.130218
v -0.852636 1.297793 0.101013
v -0.864254 1.505913 0.069590
v 0.377414 1.065515 0.211181
v 0.377941 1.258957 0.194508
v 0.378557 1.447896 0.176784
v 0.253289 1.064249 0.223477
v 0.253254 1.256663 0.208535
v 0.253214 1.444396 0.192642
v 0.127149 1.063966 0.231296
v 0.127015 1.256085 0.217412
v 0.126860 1.443469 0.202621
v 0.376781 -0.656868 0.239246
v 0.376672 -0.441664 0.249396
v 0.376642 -0.221958 0.256012
v 0.253334 -0.656801 0.248583
v 0.253344 -0.441768 0.257641
v 0.253348 -0.222054 0.263538
v 0.127311 -0.656845 0.254514
v 0.127341 -0.441842 0.262839
v 0.127350 -0.222105 0.268241
v -0.611224 -0.657755 0.212173
v -0.610400 -0.441435 0.225172
v -0.610162 -0.221597 0.233566
v -0.722220 -0.658604 0.195512
v -0.720800 -0.441325 0.210125
v -0.720388 -0.221339 0.219480
v -0.830641 -0.659622 0.177596
v -0.828525 -0.441218 0.193897
v -0.827910 -0.221050 0.204238
v -0.624355 -1.468503 0.130059
v -0.619815 -1.272706 0.153572
v -0.615918 -1.073390 0.175595
v -0.744810 -1.485765 0.100977
v -0.737001 -1.284276 0.128266
v -0.730297 -1.080080 0.153725
v -0.864254 -1.505913 0.069590
v -0.852636 -1.297793 0.101013
v -0.842661 -1.087910 0.130218
v -0.126860 -1.443469 0.202621
v -0.127015 -1.256085 0.217412
v -0.127149 -1.063966 0.231296
v -0.253214 -1.444396 0.192642
v -0.253254 -1.256663 0.208535
v -0.253289 -1.064249 0.223477
v -0.378557 -1.447896 0.176784
v -0.377941 -1.258957 0.194508
v -0.377414 -1.065515 0.211181
v -0.127311 -0.656845 0.254514
v -0.127341 -0.441842 0.262839
v -0.127350 -0.222105 0.268241
v -0.253334 -0.656801 0.248583
v -0.253344 -0.441768 0.257641
v -0.253348 -0.222054 0.263538
v -0.376781 -0.656868 0.239246
v -0.376672 -0.441664 0.249396
v -0.376642 -0.221958 0.256012
v 0.378557 -1.447896 0.176784
v 0.377941 -1.258957 0.194508
v 0.377414 -1.065515 0.211181
v 0.253214 -1.444396 0.192642
v 0.253254 -1.256663 0.208535
v 0.253289 -1.064249 0.223477
v 0.126860 -1.443469 0.202621
v 0.127015 -1.256085 0.217412
v 0.127149 -1.063966 0.231296
v 0.864254 -1.505913 0.069590
v 0.852636 -1.297793 0.101013
v 0.842661 -1.087910 0.130218
v 0.744810 -1.485765 0.100977
v 0.737001 -1.284276 0.128266
v 0.730297 -1.080080 0.153725
v 0.624355 -1.468503 0.130059
v 0.619815 -1.272706 0.153572
v 0.615918 -1.073390 0.175595
v 0.830641 -0.659622 0.177596
v 0.828525 -0.441218 0.193897
v 0.827910 -0.221050 0.204238
v 0.722221 -0.658604 0.195512
v 0.720800 -0.441325 0.210125
v 0.720388 -0.221339 0.219480
v 0.611224 -0.657755 0.212173
v 0.610400 -0.441435 0.225172
v 0.610162 -0.221597 0.233566
v 0.376642 0.221958 0.256012
v 0.376672 0.441664 0.249396
v 0.376781 0.656868 0.239246
v 0.253348 0.222054 0.263538
v 0.253344 0.441768 0.257641
v 0.253334 0.656801 0.248583
v 0.127350 0.222105 0.268241
v 0.127341 0.441842 0.262839
v 0.127311 0.656845 0.254514
v 0.827910 0.221050 0.204238
v 0.828525 0.441218 0.193897
v 0.830641 0.659622 0.177596
v 0.720388 0.221339 0.219480
v 0.720800 0.441325 0.210125
v 0.722221 0.658604 0.195512
v 0.610162 0.221597 0.233566
v 0.610400 0.441435 0.225172
v 0.611224 0.657755 0.212173
v 0.842661 1.087910 0.130218
v 0.852636 1.297793 0.101013
v 0.864254 1.505913 0.069590
v 0.730297 1.080080 0.153725
v 0.737001 1.284276 0.128266
v 0.744810 1.485765 0.100977
v 0.615918 1.073390 0.175595
v 0.619815 1.272706 0.153572
v 0.624355 1.468503 0.130059
v -0.610162 0.221597 0.233566
v -0.610400 0.441435 0.225172
v -0.611224 0.657755 0.212173
v -0.720388 0.221339 0.219480
v -0.720800 0.441325 0.210125
v -0.722220 0.658604 0.195512
v -0.827910 0.221050 0.204238
v -0.828525 0.441218 0.193897
v -0.830641 0.659622 0.177596
v -0.127350 0.222105 0.268241
v -0.127341 0.441842 0.262839
v -0.127311 0.656845 0.254514
v -0.253348 0.222054 0.263538
v -0.253344 0.441768 0.257641
v -0.253334 0.656801 0.248583
v -0.376642 0.221958 0.256012
v -0.376672 0.441664 0.249396
v -0.376781 0.656868 0.239246
v -0.127149 1.063966 0.231296
v -0.127015 1.256085 0.217412
v -0.126860 1.443469 0.202621
v -0.253289 1.064249 0.223477
v -0.253254 1.256663 0.208535
v -0.253214 1.444396 0.192642
v -0.377414 1.065515 0.211181
v -0.377941 1.258957 0.194508
v -0.378557 1.447896 0.176784
v -0.676252 1.178246 0.152622
v -0.682089 1.378599 0.127996
v -0.791224 1.188281 0.128090
v -0.800369 1.394395 0.099675
v -0.556420 0.969625 0.194479
v -0.559013 1.170096 0.174923
v -0.562164 1.365765 0.153672
v -0.565633 1.558538 0.131411
v -0.688539 1.576577 0.102137
v -0.810494 1.598782 0.069759
v -0.931860 1.623437 0.035535
v -0.917643 1.411926 0.069781
v -0.904821 1.199413 0.102229
v -0.894370 0.985296 0.131654
v -0.783755 0.979343 0.153980
v -0.671470 0.973978 0.175177
v 0.315589 1.161462 0.209404
v 0.315877 1.352115 0.193089
v 0.190214 1.160266 0.220176
v 0.190130 1.350183 0.205296
v 0.437698 0.966649 0.211135
v 0.438775 1.164495 0.194107
v 0.440072 1.356932 0.175659
v 0.441493 1.546116 0.156362
v 0.316186 1.539318 0.176026
v 0.190032 1.536568 0.189721
v 0.063392 1.535976 0.196827
v 0.063472 1.349779 0.211659
v 0.063544 1.160031 0.225815
v 0.063601 0.964366 0.238843
v 0.190278 0.964464 0.233894
v 0.315342 0.965063 0.224469
v 0.315053 -0.549306 0.248714
v 0.315002 -0.331874 0.256646
v 0.190338 -0.549322 0.255894
v 0.190344 -0.331946 0.263065
v 0.436931 -0.761602 0.226155
v 0.436493 -0.549374 0.238502
v 0.436301 -0.331769 0.247441
v 0.436248 -0.110945 0.252223
v 0.314987 -0.111005 0.260893
v 0.190345 -0.111041 0.266897
v 0.063674 -0.111056 0.269998
v 0.063672 -0.331983 0.266398
v 0.063663 -0.549356 0.259648
v 0.063641 -0.760808 0.250285
v 0.190318 -0.760815 0.245976
v 0.315160 -0.761008 0.237768
v -0.666251 -0.549916 0.210724
v -0.665453 -0.331474 0.222082
v -0.775651 -0.550352 0.194255
v -0.774424 -0.331290 0.206930
v -0.554594 -0.762773 0.211644
v -0.553563 -0.549577 0.225671
v -0.553119 -0.331635 0.235772
v -0.553003 -0.110857 0.241155
v -0.665252 -0.110741 0.228094
v -0.774123 -0.110605 0.213590
v -0.880967 -0.110457 0.198220
v -0.881377 -0.331092 0.190902
v -0.883074 -0.550840 0.176875
v -0.887114 -0.769083 0.156868
v -0.778554 -0.766680 0.176340
v -0.668126 -0.764517 0.194821
v -0.682089 -1.378599 0.127996
v -0.676252 -1.178246 0.152622
v -0.800369 -1.394395 0.099675
v -0.791224 -1.188281 0.128090
v -0.565633 -1.558538 0.131411
v -0.562164 -1.365765 0.153672
v -0.559013 -1.170096 0.174923
v -0.556420 -0.969625 0.194479
v -0.671470 -0.973978 0.175177
v -0.783755 -0.979343 0.153980
v -0.894370 -0.985296 0.131654
v -0.904821 -1.199413 0.102229
v -0.917643 -1.411926 0.069781
v -0.931860 -1.623437 0.035535
v -0.810495 -1.598782 0.069759
v -0.688539 -1.576577 0.102137
v -0.190130 -1.350183 0.205296
v -0.190214 -1.160266 0.220176
v -0.315877 -1.352115 0.193089
v -0.315589 -1.161462 0.209404
v -0.063392 -1.535976 0.196827
v -0.063472 -1.349779 0.211659
v -0.063544 -1.160031 0.225815
v -0.063601 -0.964365 0.238843
v -0.190278 -0.964464 0.233894
v -0.315343 -0.965063 0.224469
v -0.437698 -0.966649 0.211135
v -0.438775 -1.164495 0.194107
v -0.440072 -1.356932 0.175659
v -0.441493 -1.546116 0.156362
v -0.316186 -1.539318 0.176026
v -0.190032 -1.536568 0.189721
v -0.190338 -0.549322 0.255894
v -0.190344 -0.331946 0.263065
v -0.315053 -0.549306 0.248714
v -0.315002 -0.331874 0.256646
v -0.063641 -0.760808 0.250285
v -0.063663 -0.549356 0.259648
v -0.063672 -0.331983 0.266398
v -0.063674 -0.111056 0.269998
v -0.190345 -0.111041 0.266897
v -0.314987 -0.111005 0.260893
v -0.436248 -0.110945 0.252223
v -0.436301 -0.331769 0.247441
v -0.436493 -0.549374 0.238502
v -0.436931 -0.761602 0.226155
v -0.315160 -0.761008 0.237768
v -0.190318 -0.760815 0.245976
v 0.315877 -1.352115 0.193089
v 0.315589 -1.161462 0.209404
v 0.190130 -1.350183 0.205296
v 0.190214 -1.160266 0.220176
v 0.441493 -1.546116 0.156362
v 0.440072 -1.356932 0.175659
v 0.438775 -1.164495 0.194107
v 0.437698 -0.966649 0.211135
v 0.315343 -0.965063 0.224469
v 0.190278 -0.964464 0.233894
v 0.063601 -0.964366 0.238843
v 0.063544 -1.160031 0.225815
v 0.063472 -1.349779 0.211659
v 0.063392 -1.535976 0.196827
v 0.190032 -1.536568 0.189721
v 0.316186 -1.539318 0.176026
v 0.800369 -1.394395 0.099675
v 0.791224 -1.188281 0.128090
v 0.682089 -1.378599 0.127996
v 0.676252 -1.178247 0.152622
v 0.931860 -1.623438 0.035535
v 0.917643 -1.411925 0.069781
v 0.904821 -1.199413 0.102229
v 0.894370 -0.985296 0.131654
v 0.783755 -0.979343 0.153980
v 0.671470 -0.973978 0.175177
v 0.556420 -0.969625 0.194479
v 0.559013 -1.170096 0.174923
v 0.562164 -1.365765 0.153672
v 0.565633 -1.558538 0.131411
v 0.688539 -1.576577 0.102137
v 0.810494 -1.598782 0.069759
v 0.775651 -0.550351 0.194255
v 0.774424 -0.331290 0.206930
v 0.666251 -0.549916 0.210724
v 0.665453 -0.331474 0.222082
v 0.887114 -0.769083 0.156868
v 0.883074 -0.550840 0.176874
v 0.881377 -0.331092 0.190902
v 0.880967 -0.110457 0.198220
v 0.774123 -0.110605 0.213590
v 0.665252 -0.110741 0.228094
v 0.553003 -0.110857 0.241155
v 0.553119 -0.331635 0.235772
v 0.553563 -0.549577 0.225671
v 0.554594 -0.762773 0.211644
v 0.668126 -0.764517 0.194821
v 0.778554 -0.766680 0.176340
v 0.315002 0.331874 0.256646
v 0.315053 0.549307 0.248714
v 0.190344 0.331946 0.263065
v 0.190338 0.549322 0.255894
v 0.436248 0.110945 0.252223
v 0.436301 0.331769 0.247441
v 0.436493 0.549374 0.238502
v 0.436931 0.761602 0.226155
v 0.315160 0.761008 0.237768
v 0.190318 0.760815 0.245976
v 0.063641 0.760808 0.250285
v 0.063663 0.549356 0.259648
v 0.063672 0.331983 0.266398
v 0.063674 0.111056 0.269998
v 0.190345 0.111041 0.266897
v 0.314987 0.111005 0.260893
v 0.774424 0.331290 0.206930
v 0.775651 0.550351 0.194255
v 0.665453 0.331474 0.222082
v 0.666251 0.549916 0.210724
v 0.880967 0.110457 0.198220
v 0.881377 0.331092 0.190902
v 0.883074 0.550840 0.176874
v 0.887114 0.769083 0.156868
v 0.778554 0.766680 0.176340
v 0.668126 0.764517 0.194821
v 0.554594 0.762773 0.211644
v 0.553563 0.549577 0.225671
v 0.553119 0.331635 0.235772
v 0.553003 0.110857 0.241155
v 0.665252 0.110741 0.228094
v 0.774123 0.110605 0.213590
v 0.791224 1.188281 0.128090
v 0.800369 1.394395 0.099675
v 0.676252 1.178247 0.152622
v 0.682089 1.378599 0.127996
v 0.894370 0.985296 0.131654
v 0.904821 1.199413 0.102229
v 0.917643 1.411925 0.069781
v 0.931860 1.623437 0.035535
v 0.810494 1.598782 0.069759
v 0.688539 1.576577 0.102137
v 0.565633 1.558538 0.131411
v 0.562164 1.365765 0.153672
v 0.559013 1.170095 0.174923
v 0.556420 0.969625 0.194479
v 0.671471 0.973978 0.175177
v 0.783755 0.979343 0.153980
v -0.665453 0.331474 0.222082
v -0.666251 0.549916 0.210724
v -0.774424 0.331290 0.206930
v -0.775651 0.550351 0.194255
v -0.553003 0.110857 0.241155
v -0.553119 0.331635 0.235772
v -0.553563 0.549577 0.225671
v -0.554594 0.762773 0.211644
v -0.668126 0.764517 0.194821
v -0.778554 0.766680 0.176340
v -0.887114 0.769083 0.156868
v -0.883074 0.550840 0.176875
v -0.881377 0.331092 0.190902
v -0.880967 0.110457 0.198220
v -0.774123 0.110605 0.213590
v -0.665252 0.110741 0.228094
v -0.190344 0.331946 0.263065
v -0.190338 0.549322 0.255894
v -0.315002 0.331874 0.256646
v -0.315053 0.549307 0.248714
v -0.063674 0.111056 0.269998
v -0.063672 0.331983 0.266398
v -0.063663 0.549356 0.259648
v -0.063641 0.760808 0.250285
v -0.190318 0.760816 0.245976
v -0.315160 0.761008 0.237768
v -0.436931 0.761602 0.226155
v -0.436493 0.549374 0.238502
v -0.436301 0.331769 0.247441
v -0.436248 0.110945 0.252223
v -0.314987 0.111005 0.260893
v -0.190345 0.111041 0.266897
v -0.190214 1.160266 0.220176
v -0.190130 1.350183 0.205297
v -0.315589 1.161462 0.209404
v -0.315877 1.352115 0.193089
v -0.063601 0.964366 0.238843
v -0.063544 1.160031 0.225815
v -0.063472 1.349779 0.211659
v -0.063392 1.535976 0.196827
v -0.190032 1.536568 0.189721
v -0.316186 1.539318 0.176026
v -0.441493 1.546116 0.156362
v -0.440072 1.356932 0.175659
v -0.438775 1.164495 0.194107
v -0.437698 0.966649 0.211135
v -0.315343 0.965063 0.224469
v -0.190278 0.964464 0.233894
vn -0.2089 0.1118 0.9715
vn -0.2057 0.1144 0.9719
vn -0.2238 0.1223 0.9669
vn -0.1506 0.0830 0.9851
vn -0.1678 0.0940 0.9813
vn -0.1853 0.1015 0.9774
vn -0.2028 0.1050 0.9736
vn -0.2267 0.1152 0.9671
vn -0.2414 0.1255 0.9623
vn -0.2473 0.1358 0.9594
vn -0.2302 0.1327 0.9641
vn -0.2126 0.1248 0.9691
vn -0.1947 0.1118 0.9745
vn -0.1876 0.1020 0.9769
vn -0.1727 0.0924 0.9806
vn 0.1036 0.0851 0.9910
vn 0.1161 0.0924 0.9889
vn 0.0656 0.0773 0.9949
vn 0.0737 0.0841 0.9937
vn 0.1225 0.0835 0.9889
vn 0.1375 0.0947 0.9860
vn 0.1530 0.1024 0.9829
vn 0.1686 0.1061 0.9800
vn 0.1287 0.0960 0.9870
vn 0.0820 0.0877 0.9928
vn 0.0287 0.0821 0.9962
vn 0.0258 0.0787 0.9966
vn 0.0229 0.0721 0.9971
vn 0.0202 0.0627 0.9978
vn 0.0577 0.0675 0.9960
vn 0.0917 0.0747 0.9930
vn 0.0710 -0.0470 0.9964
vn 0.0638 -0.0300 0.9975
vn 0.0441 -0.0420 0.9981
vn 0.0393 -0.0268 0.9989
vn 0.1086 -0.0693 0.9917
vn 0.0967 -0.0528 0.9939
vn 0.0879 -0.0338 0.9956
vn 0.0831 -0.0120 0.9965
vn 0.0599 -0.0106 0.9981
vn 0.0366 -0.0095 0.9993
vn 0.0125 -0.0087 0.9999
vn 0.0135 -0.0246 0.9996
vn 0.0153 -0.0387 0.9991
vn 0.0176 -0.0514 0.9985
vn 0.0505 -0.0556 0.9972
vn 0.0806 -0.0618 0.9948
vn -0.1413 -0.0588 0.9882
vn -0.1309 -0.0377 0.9907
vn -0.1554 -0.0653 0.9857
vn -0.1446 -0.0418 0.9886
vn -0.1346 -0.0690 0.9885
vn -0.1212 -0.0526 0.9912
vn -0.1113 -0.0337 0.9932
vn -0.1061 -0.0119 0.9943
vn -0.1254 -0.0133 0.9920
vn -0.1389 -0.0147 0.9902
vn -0.1459 -0.0162 0.9892
vn -0.1517 -0.0459 0.9874
vn -0.1627 -0.0719 0.9841
vn -0.1776 -0.0939 0.9796
vn -0.1703 -0.0854 0.9817
vn -0.1557 -0.0771 0.9848
vn -0.2089 -0.1118 0.9715
vn -0.1907 -0.1041 0.9761
vn -0.2238 -0.1223 0.9669
vn -0.2057 -0.1144 0.9719
vn -0.2028 -0.1050 0.9736
vn -0.1853 -0.1015 0.9774
vn -0.1678 -0.0940 0.9813
vn -0.1506 -0.0830 0.9851
vn -0.1727 -0.0924 0.9806
vn -0.1876 -0.1020 0.9769
vn -0.1947 -0.1118 0.9745
vn -0.2126 -0.1248 0.9691
vn -0.2302 -0.1327 0.9641
vn -0.2473 -0.1358 0.9594
vn -0.2414 -0.1255 0.9623
vn -0.2267 -0.1152 0.9671
vn -0.0737 -0.0785 0.9942
vn -0.0656 -0.0720 0.9952
vn -0.1164 -0.0838 0.9897
vn -0.1038 -0.0770 0.9916
vn -0.0287 -0.0801 0.9964
vn -0.0258 -0.0767 0.9967
vn -0.0229 -0.0702 0.9973
vn -0.0202 -0.0610 0.9979
vn -0.0578 -0.0627 0.9964
vn -0.0918 -0.0673 0.9935
vn -0.1228 -0.0744 0.9896
vn -0.1380 -0.0847 0.9868
vn -0.1537 -0.0918 0.9838
vn -0.1696 -0.0953 0.9809
vn -0.1291 -0.0872 0.9878
vn -0.0821 -0.0819 0.9933
vn -0.0441 -0.0387 0.9983
vn -0.0393 -0.0246 0.9989
vn -0.0710 -0.0420 0.9966
vn -0.0638 -0.0268 0.9976
vn -0.0176 -0.0498 0.9986
vn -0.0153 -0.0374 0.9992
vn -0.0135 -0.0237 0.9996
vn -0.0125 -0.0084 0.9999
vn -0.0366 -0.0087 0.9993
vn -0.0599 -0.0095 0.9982
vn -0.0831 -0.0106 0.9965
vn -0.0879 -0.0300 0.9957
vn -0.0967 -0.0468 0.9942
vn -0.1087 -0.0616 0.9922
vn -0.0806 -0.0555 0.9952
vn -0.0505 -0.0513 0.9974
vn 0.1161 -0.0924 0.9889
vn 0.1036 -0.0851 0.9910
vn 0.0737 -0.0841 0.9937
vn 0.0656 -0.0773 0.9949
vn 0.1686 -0.1061 0.9800
vn 0.1530 -0.1024 0.9829
vn 0.1375 -0.0947 0.9860
vn 0.1225 -0.0835 0.9889
vn 0.0917 -0.0747 0.9930
vn 0.0577 -0.0675 0.9960
vn 0.0202 -0.0627 0.9978
vn 0.0229 -0.0721 0.9971
vn 0.0258 -0.0787 0.9966
vn 0.0287 -0.0821 0.9962
vn 0.0820 -0.0877 0.9928
vn 0.1287 -0.0960 0.9870
vn 0.2219 -0.1334 0.9659
vn 0.2045 -0.1254 0.9708
vn 0.2072 -0.1234 0.9705
vn 0.1896 -0.1153 0.9751
vn 0.2448 -0.1461 0.9585
vn 0.2283 -0.1432 0.9630
vn 0.2113 -0.1352 0.9680
vn 0.1940 -0.1217 0.9734
vn 0.1868 -0.1122 0.9760
vn 0.1721 -0.1027 0.9797
vn 0.1501 -0.0930 0.9843
vn 0.1670 -0.1051 0.9804
vn 0.1841 -0.1130 0.9764
vn 0.2011 -0.1166 0.9726
vn 0.2245 -0.1268 0.9662
vn 0.2390 -0.1366 0.9614
vn 0.1553 -0.0720 0.9852
vn 0.1446 -0.0460 0.9884
vn 0.1413 -0.0655 0.9878
vn 0.1309 -0.0419 0.9905
vn 0.1772 -0.1026 0.9788
vn 0.1625 -0.0786 0.9836
vn 0.1517 -0.0502 0.9872
vn 0.1459 -0.0176 0.9891
vn 0.1389 -0.0162 0.9902
vn 0.1254 -0.0148 0.9920
vn 0.1061 -0.0134 0.9943
vn 0.1113 -0.0378 0.9931
vn 0.1211 -0.0591 0.9909
vn 0.1345 -0.0775 0.9879
vn 0.1555 -0.0858 0.9841
vn 0.1700 -0.0942 0.9809
vn 0.0638 0.0300 0.9975
vn 0.0710 0.0470 0.9964
vn 0.0393 0.0268 0.9989
vn 0.0441 0.0420 0.9981
vn 0.0831 0.0120 0.9965
vn 0.0879 0.0338 0.9956
vn 0.0967 0.0528 0.9939
vn 0.1086 0.0693 0.9917
vn 0.0806 0.0618 0.9948
vn 0.0505 0.0556 0.9972
vn 0.0176 0.0514 0.9985
vn 0.0153 0.0387 0.9991
vn 0.0135 0.0246 0.9996
vn 0.0125 0.0087 0.9999
vn 0.0366 0.0095 0.9993
vn 0.0599 0.0106 0.9981
vn 0.1446 0.0460 0.9884
vn 0.1553 0.0720 0.9852
vn 0.1309 0.0419 0.9905
vn 0.1413 0.0655 0.9878
vn 0.1459 0.0176 0.9891
vn 0.1517 0.0502 0.9872
vn 0.1625 0.0786 0.9836
vn 0.1772 0.1026 0.9788
vn 0.1700 0.0942 0.9809
vn 0.1555 0.0858 0.9841
vn 0.1345 0.0775 0.9879
vn 0.1211 0.0591 0.9909
vn 0.1113 0.0378 0.9931
vn 0.1061 0.0134 0.9943
vn 0.1254 0.0148 0.9920
vn 0.1389 0.0162 0.9902
vn 0.2045 0.1254 0.9708
vn 0.2219 0.1334 0.9659
vn 0.1896 0.1153 0.9751
vn 0.2072 0.1234 0.9705
vn 0.1940 0.1217 0.9734
vn 0.2113 0.1352 0.9680
vn 0.2283 0.1432 0.9630
vn 0.2448 0.1461 0.9585
vn 0.2390 0.1366 0.9614
vn 0.2245 0.1268 0.9662
vn 0.2011 0.1166 0.9726
vn 0.1841 0.1130 0.9764
vn 0.1670 0.1051 0.9804
vn 0.1501 0.0930 0.9843
vn 0.1721 0.1027 0.9797
vn 0.1868 0.1122 0.9760
vn -0.1309 0.0377 0.9907
vn -0.1413 0.0588 0.9882
vn -0.1446 0.0418 0.9886
vn -0.1554 0.0653 0.9857
vn -0.1061 0.0119 0.9943
vn -0.1113 0.0337 0.9932
vn -0.1212 0.0526 0.9912
vn -0.1346 0.0690 0.9885
vn -0.1557 0.0771 0.9848
vn -0.1703 0.0854 0.9817
vn -0.1776 0.0939 0.9796
vn -0.1627 0.0719 0.9841
vn -0.1517 0.0459 0.9874
vn -0.1459 0.0162 0.9892
vn -0.1389 0.0147 0.9902
vn -0.1254 0.0133 0.9920
vn -0.0393 0.0246 0.9989
vn -0.0441 0.0387 0.9983
vn -0.0638 0.0268 0.9976
vn -0.0710 0.0420 0.9966
vn -0.0125 0.0084 0.9999
vn -0.0135 0.0237 0.9996
vn -0.0153 0.0374 0.9992
vn -0.0176 0.0498 0.9986
vn -0.0505 0.0513 0.9974
vn -0.0806 0.0555 0.9952
vn -0.1087 0.0616 0.9922
vn -0.0967 0.0468 0.9942
vn -0.0879 0.0300 0.9957
vn -0.0831 0.0106 0.9965
vn -0.0599 0.0095 0.9982
vn -0.0366 0.0087 0.9993
vn -0.0656 0.0720 0.9952
vn -0.0737 0.0785 0.9942
vn -0.1038 0.0770 0.9916
vn -0.1164 0.0838 0.9897
vn -0.0202 0.0610 0.9979
vn -0.0229 0.0702 0.9973
vn -0.0258 0.0767 0.9967
vn -0.0287 0.0801 0.9964
vn -0.0821 0.0819 0.9933
vn -0.1291 0.0872 0.9878
vn -0.1696 0.0953 0.9809
vn -0.1537 0.0918 0.9838
vn -0.1380 0.0847 0.9868
vn -0.1228 0.0744 0.9896
vn -0.0918 0.0673 0.9935
vn -0.0578 0.0627 0.9964
vn -0.1907 0.1041 0.9761
vn -0.1995 0.1094 0.9738
vn -0.1896 0.1153 0.9751
vn -0.1804 0.1103 0.9774
vn -0.2172 0.1172 0.9691
vn -0.2072 0.1234 0.9705
vn -0.1984 0.1183 0.9729
vn -0.2145 0.1194 0.9694
vn -0.2045 0.1254 0.9708
vn -0.1952 0.1207 0.9733
vn -0.2319 0.1273 0.9644
vn -0.2219 0.1334 0.9659
vn -0.2132 0.1288 0.9685
vn -0.1589 0.0879 0.9834
vn -0.1501 0.0930 0.9843
vn -0.1417 0.0883 0.9860
vn -0.1762 0.0993 0.9793
vn -0.1670 0.1051 0.9804
vn -0.1582 0.0999 0.9823
vn -0.1935 0.1070 0.9752
vn -0.1841 0.1130 0.9764
vn -0.1755 0.1077 0.9786
vn -0.2105 0.1105 0.9713
vn -0.2011 0.1166 0.9726
vn -0.1930 0.1112 0.9749
vn -0.2343 0.1206 0.9647
vn -0.2245 0.1268 0.9662
vn -0.2164 0.1217 0.9687
vn -0.2487 0.1305 0.9598
vn -0.2390 0.1366 0.9614
vn -0.2310 0.1320 0.9640
vn -0.2544 0.1402 0.9569
vn -0.2448 0.1461 0.9585
vn -0.2371 0.1421 0.9610
vn -0.2381 0.1372 0.9615
vn -0.2283 0.1432 0.9630
vn -0.2198 0.1391 0.9656
vn -0.2212 0.1293 0.9666
vn -0.2113 0.1352 0.9680
vn -0.2021 0.1309 0.9706
vn -0.2036 0.1162 0.9721
vn -0.1940 0.1217 0.9734
vn -0.1847 0.1174 0.9757
vn -0.1965 0.1067 0.9747
vn -0.1868 0.1122 0.9760
vn -0.1776 0.1077 0.9782
vn -0.1814 0.0973 0.9786
vn -0.1721 0.1027 0.9797
vn -0.1630 0.0979 0.9818
vn 0.1100 0.0810 0.9906
vn 0.1038 0.0770 0.9916
vn 0.0974 0.0812 0.9919
vn 0.1226 0.0880 0.9885
vn 0.1164 0.0838 0.9897
vn 0.1098 0.0882 0.9900
vn 0.0696 0.0746 0.9948
vn 0.0656 0.0720 0.9952
vn 0.0615 0.0746 0.9953
vn 0.0779 0.0813 0.9936
vn 0.0737 0.0785 0.9942
vn 0.0695 0.0814 0.9943
vn 0.1301 0.0789 0.9884
vn 0.1228 0.0744 0.9896
vn 0.1151 0.0791 0.9902
vn 0.1456 0.0896 0.9853
vn 0.1380 0.0847 0.9868
vn 0.1297 0.0899 0.9875
vn 0.1614 0.0970 0.9821
vn 0.1537 0.0918 0.9838
vn 0.1452 0.0973 0.9846
vn 0.1770 0.1005 0.9791
vn 0.1696 0.0953 0.9809
vn 0.1610 0.1009 0.9818
vn 0.1353 0.0916 0.9866
vn 0.1291 0.0872 0.9878
vn 0.1225 0.0917 0.9882
vn 0.0863 0.0848 0.9927
vn 0.0821 0.0819 0.9933
vn 0.0778 0.0848 0.9934
vn 0.0302 0.0811 0.9962
vn 0.0287 0.0801 0.9964
vn 0.0273 0.0811 0.9963
vn 0.0273 0.0777 0.9966
vn 0.0258 0.0767 0.9967
vn 0.0243 0.0777 0.9967
vn 0.0244 0.0711 0.9972
vn 0.0229 0.0702 0.9973
vn 0.0215 0.0711 0.9972
vn 0.0215 0.0619 0.9979
vn 0.0202 0.0610 0.9979
vn 0.0188 0.0619 0.9979
vn 0.0616 0.0651 0.9960
vn 0.0578 0.0627 0.9964
vn 0.0539 0.0651 0.9964
vn 0.0976 0.0710 0.9927
vn 0.0918 0.0673 0.9935
vn 0.0858 0.0711 0.9938
vn 0.0667 -0.0445 0.9968
vn 0.0710 -0.0420 0.9966
vn 0.0753 -0.0445 0.9962
vn 0.0609 -0.0284 0.9977
vn 0.0638 -0.0268 0.9976
vn 0.0667 -0.0284 0.9974
vn 0.0412 -0.0404 0.9983
vn 0.0441 -0.0387 0.9983
vn 0.0470 -0.0403 0.9981
vn 0.0373 -0.0257 0.9990
vn 0.0393 -0.0246 0.9989
vn 0.0412 -0.0257 0.9988
vn 0.1019 -0.0655 0.9926
vn 0.1087 -0.0616 0.9922
vn 0.1153 -0.0654 0.9912
vn 0.0913 -0.0499 0.9946
vn 0.0967 -0.0468 0.9942
vn 0.1020 -0.0498 0.9935
vn 0.0843 -0.0319 0.9959
vn 0.0879 -0.0300 0.9957
vn 0.0914 -0.0319 0.9953
vn 0.0818 -0.0113 0.9966
vn 0.0831 -0.0106 0.9965
vn 0.0844 -0.0113 0.9964
vn 0.0588 -0.0100 0.9982
vn 0.0599 -0.0095 0.9982
vn 0.0609 -0.0100 0.9981
vn 0.0359 -0.0091 0.9993
vn 0.0366 -0.0087 0.9993
vn 0.0373 -0.0091 0.9993
vn 0.0122 -0.0085 0.9999
vn 0.0125 -0.0084 0.9999
vn 0.0128 -0.0085 0.9999
vn 0.0128 -0.0242 0.9996
vn 0.0135 -0.0237 0.9996
vn 0.0142 -0.0242 0.9996
vn 0.0142 -0.0381 0.9992
vn 0.0153 -0.0374 0.9992
vn 0.0163 -0.0381 0.9991
vn 0.0163 -0.0506 0.9986
vn 0.0176 -0.0498 0.9986
vn 0.0188 -0.0506 0.9985
vn 0.0470 -0.0534 0.9975
vn 0.0505 -0.0513 0.9974
vn 0.0540 -0.0534 0.9971
vn 0.0753 -0.0587 0.9954
vn 0.0806 -0.0555 0.9952
vn 0.0859 -0.0586 0.9946
vn -0.1348 -0.0623 0.9889
vn -0.1413 -0.0655 0.9878
vn -0.1477 -0.0621 0.9871
vn -0.1268 -0.0398 0.9911
vn -0.1309 -0.0419 0.9905
vn -0.1350 -0.0398 0.9901
vn -0.1487 -0.0688 0.9865
vn -0.1553 -0.0720 0.9852
vn -0.1620 -0.0685 0.9844
vn -0.1403 -0.0439 0.9891
vn -0.1446 -0.0460 0.9884
vn -0.1489 -0.0439 0.9879
vn -0.1269 -0.0734 0.9892
vn -0.1345 -0.0775 0.9879
vn -0.1421 -0.0732 0.9871
vn -0.1151 -0.0559 0.9918
vn -0.1211 -0.0591 0.9909
vn -0.1271 -0.0558 0.9903
vn -0.1075 -0.0358 0.9936
vn -0.1113 -0.0378 0.9931
vn -0.1152 -0.0357 0.9927
vn -0.1048 -0.0127 0.9944
vn -0.1061 -0.0134 0.9943
vn -0.1075 -0.0127 0.9941
vn -0.1239 -0.0141 0.9922
vn -0.1254 -0.0148 0.9920
vn -0.1268 -0.0140 0.9918
vn -0.1374 -0.0155 0.9904
vn -0.1389 -0.0162 0.9902
vn -0.1404 -0.0155 0.9900
vn -0.1444 -0.0169 0.9894
vn -0.1459 -0.0176 0.9891
vn -0.1474 -0.0169 0.9889
vn -0.1473 -0.0481 0.9879
vn -0.1517 -0.0502 0.9872
vn -0.1560 -0.0480 0.9866
vn -0.1558 -0.0754 0.9849
vn -0.1625 -0.0786 0.9836
vn -0.1693 -0.0751 0.9827
vn -0.1687 -0.0987 0.9807
vn -0.1772 -0.1026 0.9788
vn -0.1858 -0.0979 0.9777
vn -0.1615 -0.0901 0.9827
vn -0.1700 -0.0942 0.9809
vn -0.1785 -0.0896 0.9799
vn -0.1473 -0.0817 0.9857
vn -0.1555 -0.0858 0.9841
vn -0.1637 -0.0813 0.9832
vn -0.1984 -0.1183 0.9729
vn -0.2072 -0.1234 0.9705
vn -0.2172 -0.1172 0.9691
vn -0.1804 -0.1103 0.9774
vn -0.1896 -0.1153 0.9751
vn -0.1995 -0.1094 0.9738
vn -0.2132 -0.1288 0.9685
vn -0.2219 -0.1334 0.9659
vn -0.2319 -0.1273 0.9644
vn -0.1952 -0.1207 0.9733
vn -0.2045 -0.1254 0.9708
vn -0.2145 -0.1194 0.9694
vn -0.1930 -0.1112 0.9749
vn -0.2011 -0.1166 0.9726
vn -0.2105 -0.1105 0.9713
vn -0.1755 -0.1077 0.9786
vn -0.1841 -0.1130 0.9764
vn -0.1935 -0.1070 0.9752
vn -0.1582 -0.0999 0.9823
vn -0.1670 -0.1051 0.9804
vn -0.1762 -0.0993 0.9793
vn -0.1417 -0.0883 0.9860
vn -0.1501 -0.0930 0.9843
vn -0.1589 -0.0879 0.9834
vn -0.1630 -0.0979 0.9818
vn -0.1721 -0.1027 0.9797
vn -0.1814 -0.0973 0.9786
vn -0.1776 -0.1077 0.9782
vn -0.1868 -0.1122 0.9760
vn -0.1965 -0.1067 0.9747
vn -0.1847 -0.1174 0.9757
vn -0.1940 -0.1217 0.9734
vn -0.2036 -0.1162 0.9721
vn -0.2021 -0.1309 0.9706
vn -0.2113 -0.1352 0.9680
vn -0.2212 -0.1293 0.9666
vn -0.2198 -0.1391 0.9656
vn -0.2283 -0.1432 0.9630
vn -0.2381 -0.1372 0.9615
vn -0.2371 -0.1421 0.9610
vn -0.2448 -0.1461 0.9585
vn -0.2544 -0.1402 0.9569
vn -0.2310 -0.1320 0.9640
vn -0.2390 -0.1366 0.9614
vn -0.2487 -0.1305 0.9598
vn -0.2164 -0.1217 0.9687
vn -0.2245 -0.1268 0.9662
vn -0.2343 -0.1206 0.9647
vn -0.0695 -0.0814 0.9943
vn -0.0737 -0.0841 0.9937
vn -0.0779 -0.0813 0.9936
vn -0.0615 -0.0746 0.9953
vn -0.0655 -0.0773 0.9949
vn -0.0696 -0.0746 0.9948
vn -0.1098 -0.0882 0.9900
vn -0.1161 -0.0924 0.9889
vn -0.1226 -0.0880 0.9885
vn -0.0974 -0.0812 0.9919
vn -0.1036 -0.0851 0.9910
vn -0.1100 -0.0810 0.9906
vn -0.0273 -0.0811 0.9963
vn -0.0287 -0.0821 0.9962
vn -0.0302 -0.0811 0.9962
vn -0.0243 -0.0777 0.9967
vn -0.0258 -0.0787 0.9966
vn -0.0273 -0.0777 0.9966
vn -0.0215 -0.0711 0.9972
vn -0.0229 -0.0721 0.9971
vn -0.0244 -0.0711 0.9972
vn -0.0188 -0.0619 0.9979
vn -0.0202 -0.0627 0.9978
vn -0.0215 -0.0619 0.9979
vn -0.0539 -0.0651 0.9964
vn -0.0577 -0.0675 0.9960
vn -0.0616 -0.0651 0.9960
vn -0.0858 -0.0711 0.9938
vn -0.0917 -0.0747 0.9930
vn -0.0976 -0.0710 0.9927
vn -0.1151 -0.0791 0.9902
vn -0.1225 -0.0835 0.9889
vn -0.1301 -0.0789 0.9884
vn -0.1297 -0.0899 0.9875
vn -0.1375 -0.0947 0.9860
vn -0.1456 -0.0896 0.9853
vn -0.1452 -0.0973 0.9846
vn -0.1530 -0.1024 0.9829
vn -0.1614 -0.0970 0.9821
vn -0.1610 -0.1009 0.9818
vn -0.1686 -0.1061 0.9800
vn -0.1770 -0.1005 0.9791
vn -0.1225 -0.0917 0.9882
vn -0.1287 -0.0960 0.9870
vn -0.1353 -0.0916 0.9866
vn -0.0778 -0.0848 0.9934
vn -0.0820 -0.0877 0.9928
vn -0.0863 -0.0848 0.9927
vn -0.0412 -0.0404 0.9983
vn -0.0441 -0.0420 0.9981
vn -0.0470 -0.0403 0.9981
vn -0.0373 -0.0257 0.9990
vn -0.0393 -0.0268 0.9989
vn -0.0412 -0.0257 0.9988
vn -0.0667 -0.0445 0.9968
vn -0.0710 -0.0470 0.9964
vn -0.0753 -0.0445 0.9962
vn -0.0609 -0.0284 0.9977
vn -0.0638 -0.0300 0.9975
vn -0.0667 -0.0284 0.9974
vn -0.0163 -0.0506 0.9986
vn -0.0176 -0.0514 0.9985
vn -0.0188 -0.0506 0.9985
vn -0.0142 -0.0381 0.9992
vn -0.0153 -0.0387 0.9991
vn -0.0163 -0.0381 0.9991
vn -0.0128 -0.0242 0.9996
vn -0.0135 -0.0246 0.9996
vn -0.0142 -0.0242 0.9996
vn -0.0122 -0.0085 0.9999
vn -0.0125 -0.0087 0.9999
vn -0.0128 -0.0085 0.9999
vn -0.0359 -0.0091 0.9993
vn -0.0366 -0.0095 0.9993
vn -0.0373 -0.0091 0.9993
vn -0.0588 -0.0101 0.9982
vn -0.0599 -0.0106 0.9981
vn -0.0609 -0.0100 0.9981
vn -0.0818 -0.0113 0.9966
vn -0.0831 -0.0120 0.9965
vn -0.0844 -0.0113 0.9964
vn -0.0843 -0.0319 0.9959
vn -0.0879 -0.0338 0.9956
vn -0.0914 -0.0319 0.9953
vn -0.0913 -0.0499 0.9946
vn -0.0967 -0.0528 0.9939
vn -0.1020 -0.0498 0.9935
vn -0.1019 -0.0655 0.9926
vn -0.1086 -0.0693 0.9917
vn -0.1153 -0.0654 0.9912
vn -0.0753 -0.0587 0.9954
vn -0.0806 -0.0618 0.9948
vn -0.0859 -0.0586 0.9946
vn -0.0470 -0.0534 0.9975
vn -0.0505 -0.0556 0.9972
vn -0.0540 -0.0534 0.9971
vn 0.1098 -0.0882 0.9900
vn 0.1164 -0.0838 0.9897
vn 0.1226 -0.0880 0.9885
vn 0.0974 -0.0812 0.9919
vn 0.1038 -0.0770 0.9916
vn 0.1100 -0.0810 0.9906
vn 0.0695 -0.0814 0.9943
vn 0.0737 -0.0785 0.9942
vn 0.0779 -0.0813 0.9936
vn 0.0615 -0.0746 0.9953
vn 0.0656 -0.0720 0.9952
vn 0.0696 -0.0746 0.9948
vn 0.1610 -0.1009 0.9818
vn 0.1696 -0.0953 0.9809
vn 0.1770 -0.1005 0.9791
vn 0.1452 -0.0973 0.9846
vn 0.1537 -0.0918 0.9838
vn 0.1614 -0.0970 0.9821
vn 0.1297 -0.0899 0.9875
vn 0.1380 -0.0847 0.9868
vn 0.1456 -0.0896 0.9853
vn 0.1151 -0.0791 0.9902
vn 0.1228 -0.0744 0.9896
vn 0.1301 -0.0789 0.9884
vn 0.0858 -0.0711 0.9938
vn 0.0918 -0.0673 0.9935
vn 0.0976 -0.0710 0.9927
vn 0.0539 -0.0651 0.9964
vn 0.0578 -0.0627 0.9964
vn 0.0616 -0.0651 0.9960
vn 0.0188 -0.0619 0.9979
vn 0.0202 -0.0610 0.9979
vn 0.0215 -0.0619 0.9979
vn 0.0215 -0.0711 0.9972
vn 0.0229 -0.0702 0.9973
vn 0.0244 -0.0711 0.9972
vn 0.0243 -0.0777 0.9967
vn 0.0258 -0.0767 0.9967
vn 0.0273 -0.0777 0.9966
vn 0.0273 -0.0811 0.9963
vn 0.0287 -0.0801 0.9964
vn 0.0302 -0.0811 0.9962
vn 0.0778 -0.0848 0.9934
vn 0.0821 -0.0819 0.9933
vn 0.0863 -0.0848 0.9927
vn 0.1225 -0.0917 0.9882
vn 0.1291 -0.0872 0.9878
vn 0.1353 -0.0916 0.9866
vn 0.2132 -0.1288 0.9685
vn 0.2238 -0.1223 0.9669
vn 0.2319 -0.1273 0.9644
vn 0.1952 -0.1207 0.9733
vn 0.2057 -0.1144 0.9719
vn 0.2145 -0.1194 0.9694
vn 0.1984 -0.1183 0.9729
vn 0.2089 -0.1118 0.9715
vn 0.2172 -0.1172 0.9691
vn 0.1804 -0.1103 0.9774
vn 0.1907 -0.1041 0.9761
vn 0.1995 -0.1094 0.9738
vn 0.2371 -0.1421 0.9610
vn 0.2473 -0.1358 0.9594
vn 0.2544 -0.1402 0.9569
vn 0.2198 -0.1391 0.9656
vn 0.2302 -0.1327 0.9641
vn 0.2381 -0.1372 0.9615
vn 0.2021 -0.1309 0.9706
vn 0.2126 -0.1248 0.9691
vn 0.2212 -0.1293 0.9666
vn 0.1847 -0.1174 0.9757
vn 0.1947 -0.1118 0.9745
vn 0.2036 -0.1162 0.9721
vn 0.1776 -0.1077 0.9782
vn 0.1876 -0.1020 0.9769
vn 0.1965 -0.1067 0.9747
vn 0.1630 -0.0979 0.9818
vn 0.1727 -0.0924 0.9806
vn 0.1814 -0.0973 0.9786
vn 0.1417 -0.0883 0.9860
vn 0.1506 -0.0830 0.9851
vn 0.1589 -0.0879 0.9834
vn 0.1582 -0.0999 0.9823
vn 0.1678 -0.0940 0.9813
vn 0.1762 -0.0993 0.9793
vn 0.1755 -0.1077 0.9786
vn 0.1853 -0.1015 0.9774
vn 0.1935 -0.1070 0.9752
vn 0.1930 -0.1112 0.9749
vn 0.2028 -0.1050 0.9736
vn 0.2105 -0.1105 0.9713
vn 0.2164 -0.1217 0.9687
vn 0.2267 -0.1152 0.9671
vn 0.2343 -0.1206 0.9647
vn 0.2310 -0.1320 0.9640
vn 0.2414 -0.1255 0.9623
vn 0.2487 -0.1305 0.9598
vn 0.1487 -0.0688 0.9865
vn 0.1554 -0.0653 0.9857
vn 0.1620 -0.0685 0.9844
vn 0.1403 -0.0439 0.9891
vn 0.1446 -0.0418 0.9886
vn 0.1489 -0.0439 0.9879
vn 0.1348 -0.0623 0.9889
vn 0.1413 -0.0588 0.9882
vn 0.1477 -0.0621 0.9871
vn 0.1268 -0.0398 0.9911
vn 0.1309 -0.0377 0.9907
vn 0.1350 -0.0398 0.9901
vn 0.1687 -0.0987 0.9807
vn 0.1776 -0.0939 0.9796
vn 0.1858 -0.0979 0.9777
vn 0.1558 -0.0754 0.9849
vn 0.1627 -0.0719 0.9841
vn 0.1693 -0.0751 0.9827
vn 0.1473 -0.0481 0.9879
vn 0.1517 -0.0459 0.9874
vn 0.1560 -0.0480 0.9866
vn 0.1444 -0.0169 0.9894
vn 0.1459 -0.0162 0.9892
vn 0.1474 -0.0169 0.9889
vn 0.1374 -0.0155 0.9904
vn 0.1389 -0.0147 0.9902
vn 0.1404 -0.0155 0.9900
vn 0.1239 -0.0141 0.9922
vn 0.1254 -0.0133 0.9920
vn 0.1268 -0.0140 0.9918
vn 0.1048 -0.0127 0.9944
vn 0.1061 -0.0119 0.9943
vn 0.1075 -0.0127 0.9941
vn 0.1075 -0.0358 0.9936
vn 0.1113 -0.0337 0.9932
vn 0.1152 -0.0357 0.9927
vn 0.1151 -0.0559 0.9918
vn 0.1212 -0.0526 0.9912
vn 0.1271 -0.0558 0.9903
vn 0.1269 -0.0734 0.9892
vn 0.1346 -0.0690 0.9885
vn 0.1421 -0.0732 0.9871
vn 0.1473 -0.0817 0.9857
vn 0.1557 -0.0771 0.9848
vn 0.1637 -0.0813 0.9832
vn 0.1615 -0.0901 0.9827
vn 0.1703 -0.0854 0.9817
vn 0.1785 -0.0896 0.9799
vn 0.0667 0.0284 0.9974
vn 0.0638 0.0268 0.9976
vn 0.0609 0.0284 0.9977
vn 0.0753 0.0445 0.9962
vn 0.0710 0.0420 0.9966
vn 0.0667 0.0445 0.9968
vn 0.0412 0.0257 0.9988
vn 0.0393 0.0246 0.9989
vn 0.0373 0.0257 0.9990
vn 0.0470 0.0403 0.9981
vn 0.0441 0.0387 0.9983
vn 0.0412 0.0404 0.9983
vn 0.0844 0.0113 0.9964
vn 0.0831 0.0106 0.9965
vn 0.0818 0.0113 0.9966
vn 0.0914 0.0319 0.9953
vn 0.0879 0.0300 0.9957
vn 0.0843 0.0319 0.9959
vn 0.1020 0.0498 0.9935
vn 0.0967 0.0468 0.9942
vn 0.0913 0.0499 0.9946
vn 0.1153 0.0654 0.9912
vn 0.1087 0.0616 0.9922
vn 0.1019 0.0655 0.9926
vn 0.0859 0.0586 0.9946
vn 0.0806 0.0555 0.9952
vn 0.0753 0.0587 0.9954
vn 0.0540 0.0534 0.9971
vn 0.0505 0.0513 0.9974
vn 0.0470 0.0534 0.9975
vn 0.0188 0.0506 0.9985
vn 0.0176 0.0498 0.9986
vn 0.0163 0.0506 0.9986
vn 0.0163 0.0381 0.9991
vn 0.0153 0.0374 0.9992
vn 0.0142 0.0381 0.9992
vn 0.0142 0.0242 0.9996
vn 0.0135 0.0237 0.9996
vn 0.0128 0.0242 0.9996
vn 0.0128 0.0085 0.9999
vn 0.0125 0.0084 0.9999
vn 0.0122 0.0085 0.9999
vn 0.0373 0.0091 0.9993
vn 0.0366 0.0087 0.9993
vn 0.0359 0.0091 0.9993
vn 0.0609 0.0100 0.9981
vn 0.0599 0.0095 0.9982
vn 0.0588 0.0100 0.9982
vn 0.1489 0.0439 0.9879
vn 0.1446 0.0418 0.9886
vn 0.1403 0.0439 0.9891
vn 0.1620 0.0685 0.9844
vn 0.1554 0.0653 0.9857
vn 0.1487 0.0688 0.9865
vn 0.1350 0.0398 0.9901
vn 0.1309 0.0377 0.9907
vn 0.1268 0.0398 0.9911
vn 0.1477 0.0621 0.9871
vn 0.1413 0.0588 0.9882
vn 0.1348 0.0623 0.9889
vn 0.1474 0.0169 0.9889
vn 0.1459 0.0162 0.9892
vn 0.1444 0.0169 0.9894
vn 0.1560 0.0480 0.9866
vn 0.1517 0.0459 0.9874
vn 0.1473 0.0481 0.9879
vn 0.1693 0.0751 0.9827
vn 0.1627 0.0719 0.9841
vn 0.1558 0.0754 0.9849
vn 0.1858 0.0979 0.9777
vn 0.1776 0.0939 0.9796
vn 0.1687 0.0987 0.9807
vn 0.1785 0.0896 0.9799
vn 0.1703 0.0854 0.9817
vn 0.1615 0.0901 0.9827
vn 0.1637 0.0813 0.9832
vn 0.1557 0.0771 0.9848
vn 0.1473 0.0817 0.9857
vn 0.1421 0.0732 0.9871
vn 0.1346 0.0690 0.9885
vn 0.1269 0.0734 0.9892
vn 0.1271 0.0558 0.9903
vn 0.1212 0.0526 0.9912
vn 0.1151 0.0559 0.9918
vn 0.1152 0.0357 0.9927
vn 0.1113 0.0337 0.9932
vn 0.1075 0.0358 0.9936
vn 0.1075 0.0127 0.9941
vn 0.1061 0.0119 0.9943
vn 0.1048 0.0127 0.9944
vn 0.1268 0.0140 0.9918
vn 0.1254 0.0133 0.9920
vn 0.1239 0.0141 0.9922
vn 0.1404 0.0155 0.9900
vn 0.1389 0.0147 0.9902
vn 0.1374 0.0155 0.9904
vn 0.2145 0.1194 0.9694
vn 0.2057 0.1144 0.9719
vn 0.1952 0.1207 0.9733
vn 0.2319 0.1273 0.9644
vn 0.2238 0.1223 0.9669
vn 0.2132 0.1288 0.9685
vn 0.1995 0.1094 0.9738
vn 0.1907 0.1041 0.9761
vn 0.1804 0.1103 0.9774
vn 0.2172 0.1172 0.9691
vn 0.2089 0.1118 0.9715
vn 0.1984 0.1183 0.9729
vn 0.2036 0.1162 0.9721
vn 0.1947 0.1118 0.9745
vn 0.1847 0.1174 0.9757
vn 0.2212 0.1293 0.9666
vn 0.2126 0.1248 0.9691
vn 0.2021 0.1309 0.9706
vn 0.2381 0.1372 0.9615
vn 0.2302 0.1327 0.9641
vn 0.2198 0.1391 0.9656
vn 0.2544 0.1402 0.9569
vn 0.2473 0.1358 0.9594
vn 0.2371 0.1421 0.9610
vn 0.2487 0.1305 0.9598
vn 0.2414 0.1255 0.9623
vn 0.2310 0.1320 0.9640
vn 0.2343 0.1206 0.9647
vn 0.2267 0.1152 0.9671
vn 0.2164 0.1217 0.9687
vn 0.2105 0.1105 0.9713
vn 0.2028 0.1050 0.9736
vn 0.1930 0.1112 0.9749
vn 0.1935 0.1070 0.9752
vn 0.1853 0.1015 0.9774
vn 0.1755 0.1077 0.9786
vn 0.1762 0.0993 0.9793
vn 0.1678 0.0940 0.9813
vn 0.1582 0.0999 0.9823
vn 0.1589 0.0879 0.9834
vn 0.1506 0.0830 0.9851
vn 0.1417 0.0883 0.9860
vn 0.1814 0.0973 0.9786
vn 0.1727 0.0924 0.9806
vn 0.1630 0.0979 0.9818
vn 0.1965 0.1067 0.9747
vn 0.1876 0.1020 0.9769
vn 0.1776 0.1077 0.9782
vn -0.1350 0.0398 0.9901
vn -0.1309 0.0419 0.9905
vn -0.1268 0.0398 0.9911
vn -0.1477 0.0621 0.9871
vn -0.1413 0.0655 0.9878
vn -0.1348 0.0623 0.9889
vn -0.1489 0.0439 0.9879
vn -0.1446 0.0460 0.9884
vn -0.1403 0.0439 0.9891
vn -0.1620 0.0685 0.9844
vn -0.1553 0.0720 0.9852
vn -0.1487 0.0688 0.9865
vn -0.1075 0.0127 0.9941
vn -0.1061 0.0134 0.9943
vn -0.1048 0.0127 0.9944
vn -0.1152 0.0357 0.9927
vn -0.1113 0.0378 0.9931
vn -0.1075 0.0358 0.9936
vn -0.1271 0.0558 0.9903
vn -0.1211 0.0591 0.9909
vn -0.1151 0.0559 0.9918
vn -0.1421 0.0732 0.9871
vn -0.1345 0.0775 0.9879
vn -0.1269 0.0734 0.9892
vn -0.1637 0.0813 0.9832
vn -0.1555 0.0858 0.9841
vn -0.1473 0.0817 0.9857
vn -0.1785 0.0896 0.9799
vn -0.1700 0.0942 0.9809
vn -0.1615 0.0901 0.9827
vn -0.1858 0.0979 0.9777
vn -0.1772 0.1026 0.9788
vn -0.1687 0.0987 0.9807
vn -0.1693 0.0751 0.9827
vn -0.1625 0.0786 0.9836
vn -0.1558 0.0754 0.9849
vn -0.1560 0.0480 0.9866
vn -0.1517 0.0502 0.9872
vn -0.1473 0.0481 0.9879
vn -0.1474 0.0169 0.9889
vn -0.1459 0.0176 0.9891
vn -0.1444 0.0169 0.9894
vn -0.1404 0.0155 0.9900
vn -0.1389 0.0162 0.9902
vn -0.1374 0.0155 0.9904
vn -0.1268 0.0140 0.9918
vn -0.1254 0.0148 0.9920
vn -0.1239 0.0141 0.9922
vn -0.0412 0.0257 0.9988
vn -0.0393 0.0268 0.9989
vn -0.0373 0.0257 0.9990
vn -0.0470 0.0403 0.9981
vn -0.0441 0.0420 0.9981
vn -0.0412 0.0404 0.9983
vn -0.0667 0.0284 0.9974
vn -0.0638 0.0300 0.9975
vn -0.0609 0.0284 0.9977
vn -0.0753 0.0445 0.9962
vn -0.0710 0.0470 0.9964
vn -0.0667 0.0445 0.9968
vn -0.0128 0.0085 0.9999
vn -0.0125 0.0087 0.9999
vn -0.0122 0.0085 0.9999
vn -0.0142 0.0242 0.9996
vn -0.0135 0.0246 0.9996
vn -0.0128 0.0242 0.9996
vn -0.0163 0.0381 0.9991
vn -0.0153 0.0387 0.9991
vn -0.0142 0.0381 0.9992
vn -0.0188 0.0506 0.9985
vn -0.0176 0.0514 0.9985
vn -0.0163 0.0506 0.9986
vn -0.0540 0.0534 0.9971
vn -0.0505 0.0556 0.9972
vn -0.0470 0.0534 0.9975
vn -0.0859 0.0586 0.9946
vn -0.0806 0.0618 0.9948
vn -0.0753 0.0587 0.9954
vn -0.1153 0.0654 0.9912
vn -0.1086 0.0693 0.9917
vn -0.1019 0.0655 0.9926
vn -0.1020 0.0498 0.9935
vn -0.0967 0.0528 0.9939
vn -0.0913 0.0499 0.9946
vn -0.0914 0.0319 0.9953
vn -0.0879 0.0338 0.9956
vn -0.0843 0.0319 0.9959
vn -0.0844 0.0113 0.9964
vn -0.0831 0.0120 0.9965
vn -0.0818 0.0113 0.9966
vn -0.0609 0.0100 0.9981
vn -0.0599 0.0106 0.9981
vn -0.0588 0.0101 0.9982
vn -0.0373 0.0091 0.9993
vn -0.0366 0.0095 0.9993
vn -0.0359 0.0091 0.9993
vn -0.0696 0.0746 0.9948
vn -0.0655 0.0773 0.9949
vn -0.0615 0.0746 0.9953
vn -0.0779 0.0813 0.9936
vn -0.0737 0.0841 0.9937
vn -0.0695 0.0814 0.9943
vn -0.1100 0.0810 0.9906
vn -0.1036 0.0851 0.9910
vn -0.0974 0.0812 0.9919
vn -0.1226 0.0880 0.9885
vn -0.1161 0.0924 0.9889
vn -0.1098 0.0882 0.9900
vn -0.0215 0.0619 0.9979
vn -0.0202 0.0627 0.9978
vn -0.0188 0.0619 0.9979
vn -0.0244 0.0711 0.9972
vn -0.0229 0.0721 0.9971
vn -0.0215 0.0711 0.9972
vn -0.0273 0.0777 0.9966
vn -0.0258 0.0787 0.9966
vn -0.0243 0.0777 0.9967
vn -0.0302 0.0811 0.9962
vn -0.0287 0.0821 0.9962
vn -0.0273 0.0811 0.9963
vn -0.0863 0.0848 0.9927
vn -0.0820 0.0877 0.9928
vn -0.0778 0.0848 0.9934
vn -0.1353 0.0916 0.9866
vn -0.1287 0.0960 0.9870
vn -0.1225 0.0917 0.9882
vn -0.1770 0.1005 0.9791
vn -0.1686 0.1061 0.9800
vn -0.1610 0.1009 0.9818
vn -0.1614 0.0970 0.9821
vn -0.1530 0.1024 0.9829
vn -0.1452 0.0973 0.9846
vn -0.1456 0.0896 0.9853
vn -0.1375 0.0947 0.9860
vn -0.1297 0.0899 0.9875
vn -0.1301 0.0789 0.9884
vn -0.1225 0.0835 0.9889
vn -0.1151 0.0791 0.9902
vn -0.0976 0.0710 0.9927
vn -0.0917 0.0747 0.9930
vn -0.0858 0.0711 0.9938
vn -0.0616 0.0651 0.9960
vn -0.0577 0.0675 0.9960
vn -0.0539 0.0651 0.9964
vt 0.843750 0.703125
vt 0.859375 0.703125
vt 0.851627 0.711022
vt 0.828125 0.718750
vt 0.843750 0.718750
vt 0.835999 0.726645
vt 0.859375 0.718750
vt 0.851640 0.726662
vt 0.812500 0.687500
vt 0.828125 0.687500
vt 0.820339 0.695350
vt 0.843750 0.687500
vt 0.835975 0.695365
vt 0.859375 0.687500
vt 0.851609 0.695375
vt 0.875000 0.687500
vt 0.867241 0.695381
vt 0.875000 0.703125
vt 0.867262 0.711030
vt 0.875000 0.718750
vt 0.867277 0.726671
vt 0.859375 0.734375
vt 0.875000 0.734375
vt 0.867283 0.742304
vt 0.843750 0.734375
vt 0.851646 0.742294
vt 0.828125 0.734375
vt 0.836003 0.742277
vt 0.812500 0.734375
vt 0.820358 0.742252
vt 0.812500 0.718750
vt 0.820355 0.726623
vt 0.812500 0.703125
vt 0.828125 0.703125
vt 0.820348 0.710989
vt 0.828125 0.578125
vt 0.843750 0.578125
vt 0.835947 0.585923
vt 0.859375 0.578125
vt 0.851574 0.585920
vt 0.828125 0.593750
vt 0.843750 0.593750
vt 0.835940 0.601558
vt 0.859375 0.593750
vt 0.851565 0.601557
vt 0.812500 0.562500
vt 0.828125 0.562500
vt 0.820328 0.570290
vt 0.843750 0.562500
vt 0.835959 0.570282
vt 0.859375 0.562500
vt 0.851589 0.570276
vt 0.875000 0.562500
vt 0.867217 0.570272
vt 0.875000 0.578125
vt 0.867201 0.585919
vt 0.875000 0.593750
vt 0.867190 0.601557
vt 0.859375 0.609375
vt 0.875000 0.609375
vt 0.867186 0.617187
vt 0.843750 0.609375
vt 0.851561 0.617187
vt 0.828125 0.609375
vt 0.835936 0.617187
vt 0.812500 0.609375
vt 0.820312 0.617187
vt 0.812500 0.593750
vt 0.820314 0.601559
vt 0.812500 0.578125
vt 0.820320 0.585927
vt 0.703125 0.578125
vt 0.718750 0.578125
vt 0.710935 0.585935
vt 0.734375 0.578125
vt 0.726562 0.585937
vt 0.703125 0.593750
vt 0.718750 0.593750
vt 0.710937 0.601562
vt 0.734375 0.593750
vt 0.726562 0.601563
vt 0.687500 0.562500
vt 0.703125 0.562500
vt 0.695303 0.570300
vt 0.718750 0.562500
vt 0.710933 0.570307
vt 0.734375 0.562500
vt 0.726561 0.570312
vt 0.750000 0.562500
vt 0.742187 0.570314
vt 0.750000 0.578125
vt 0.742187 0.585939
vt 0.750000 0.593750
vt 0.742188 0.601563
vt 0.734375 0.609375
vt 0.750000 0.609375
vt 0.742187 0.617188
vt 0.718750 0.609375
vt 0.726563 0.617188
vt 0.703125 0.609375
vt 0.710938 0.617188
vt 0.687500 0.609375
vt 0.695313 0.617187
vt 0.687500 0.593750
vt 0.695312 0.601561
vt 0.687500 0.578125
vt 0.695308 0.585931
vt 0.703125 0.703125
vt 0.718750 0.703125
vt 0.710928 0.710950
vt 0.734375 0.703125
vt 0.726559 0.710940
vt 0.703125 0.718750
vt 0.718750 0.718750
vt 0.710926 0.726578
vt 0.734375 0.718750
vt 0.726559 0.726565
vt 0.687500 0.687500
vt 0.703125 0.687500
vt 0.695297 0.695334
vt 0.718750 0.687500
vt 0.710930 0.695322
vt 0.734375 0.687500
vt 0.726560 0.695314
vt 0.750000 0.687500
vt 0.742187 0.695310
vt 0.750000 0.703125
vt 0.742187 0.710935
vt 0.750000 0.718750
vt 0.742187 0.726559
vt 0.734375 0.734375
vt 0.750000 0.734375
vt 0.742187 0.742184
vt 0.718750 0.734375
vt 0.726558 0.742190
vt 0.703125 0.734375
vt 0.710925 0.742204
vt 0.687500 0.734375
vt 0.695287 0.742225
vt 0.687500 0.718750
vt 0.695288 0.726597
vt 0.687500 0.703125
vt 0.695292 0.710967
vt 0.640625 0.703125
vt 0.656250 0.703125
vt 0.648373 0.711022
vt 0.671875 0.703125
vt 0.664011 0.711008
vt 0.640625 0.718750
vt 0.656250 0.718750
vt 0.648360 0.726662
vt 0.671875 0.718750
vt 0.664002 0.726645
vt 0.625000 0.687500
vt 0.640625 0.687500
vt 0.632759 0.695381
vt 0.656250 0.687500
vt 0.648391 0.695375
vt 0.671875 0.687500
vt 0.664025 0.695365
vt 0.679661 0.695350
vt 0.679652 0.710989
vt 0.679645 0.726623
vt 0.671875 0.734375
vt 0.679642 0.742252
vt 0.656250 0.734375
vt 0.663997 0.742277
vt 0.640625 0.734375
vt 0.648354 0.742294
vt 0.625000 0.734375
vt 0.632717 0.742304
vt 0.625000 0.718750
vt 0.632724 0.726671
vt 0.625000 0.703125
vt 0.632738 0.711030
vt 0.640625 0.640625
vt 0.656250 0.640625
vt 0.648435 0.648443
vt 0.671875 0.640625
vt 0.664060 0.648442
vt 0.640625 0.656250
vt 0.656250 0.656250
vt 0.648426 0.664080
vt 0.671875 0.656250
vt 0.664053 0.664077
vt 0.625000 0.625000
vt 0.640625 0.625000
vt 0.632815 0.632813
vt 0.656250 0.625000
vt 0.648439 0.632813
vt 0.671875 0.625000
vt 0.664064 0.632813
vt 0.687500 0.625000
vt 0.679689 0.632813
vt 0.687500 0.640625
vt 0.679686 0.648441
vt 0.687500 0.656250
vt 0.679681 0.664073
vt 0.671875 0.671875
vt 0.687500 0.671875
vt 0.679672 0.679710
vt 0.656250 0.671875
vt 0.664041 0.679718
vt 0.640625 0.671875
vt 0.648411 0.679724
vt 0.625000 0.671875
vt 0.632783 0.679728
vt 0.625000 0.656250
vt 0.632800 0.664081
vt 0.625000 0.640625
vt 0.632810 0.648443
vt 0.703125 0.640625
vt 0.718750 0.640625
vt 0.710937 0.648438
vt 0.734375 0.640625
vt 0.726562 0.648437
vt 0.703125 0.656250
vt 0.718750 0.656250
vt 0.710935 0.664065
vt 0.734375 0.656250
vt 0.726562 0.664063
vt 0.703125 0.625000
vt 0.695313 0.632813
vt 0.718750 0.625000
vt 0.710938 0.632812
vt 0.734375 0.625000
vt 0.726563 0.632812
vt 0.750000 0.625000
vt 0.742188 0.632812
vt 0.750000 0.640625
vt 0.742188 0.648437
vt 0.750000 0.656250
vt 0.742187 0.664061
vt 0.734375 0.671875
vt 0.750000 0.671875
vt 0.742187 0.679686
vt 0.718750 0.671875
vt 0.726561 0.679688
vt 0.703125 0.671875
vt 0.710933 0.679693
vt 0.695303 0.679700
vt 0.695308 0.664069
vt 0.695312 0.648440
vt 0.640625 0.578125
vt 0.656250 0.578125
vt 0.648426 0.585920
vt 0.671875 0.578125
vt 0.664053 0.585923
vt 0.640625 0.593750
vt 0.656250 0.593750
vt 0.648435 0.601557
vt 0.671875 0.593750
vt 0.664060 0.601558
vt 0.625000 0.562500
vt 0.640625 0.562500
vt 0.632783 0.570272
vt 0.656250 0.562500
vt 0.648411 0.570276
vt 0.671875 0.562500
vt 0.664041 0.570282
vt 0.679672 0.570290
vt 0.679681 0.585927
vt 0.679686 0.601559
vt 0.671875 0.609375
vt 0.679689 0.617187
vt 0.656250 0.609375
vt 0.664064 0.617187
vt 0.640625 0.609375
vt 0.648439 0.617187
vt 0.625000 0.609375
vt 0.632815 0.617187
vt 0.625000 0.593750
vt 0.632810 0.601557
vt 0.625000 0.578125
vt 0.632800 0.585919
vt 0.640625 0.515625
vt 0.656250 0.515625
vt 0.648360 0.523338
vt 0.671875 0.515625
vt 0.664001 0.523355
vt 0.640625 0.531250
vt 0.656250 0.531250
vt 0.648373 0.538978
vt 0.671875 0.531250
vt 0.664011 0.538992
vt 0.625000 0.500000
vt 0.640625 0.500000
vt 0.632717 0.507696
vt 0.656250 0.500000
vt 0.648354 0.507706
vt 0.671875 0.500000
vt 0.663997 0.507723
vt 0.687500 0.500000
vt 0.679642 0.507748
vt 0.687500 0.515625
vt 0.679645 0.523377
vt 0.687500 0.531250
vt 0.679652 0.539012
vt 0.671875 0.546875
vt 0.687500 0.546875
vt 0.679661 0.554650
vt 0.656250 0.546875
vt 0.664025 0.554636
vt 0.640625 0.546875
vt 0.648391 0.554625
vt 0.625000 0.546875
vt 0.632759 0.554619
vt 0.625000 0.531250
vt 0.632738 0.538970
vt 0.625000 0.515625
vt 0.632724 0.523329
vt 0.703125 0.515625
vt 0.718750 0.515625
vt 0.710926 0.523422
vt 0.734375 0.515625
vt 0.726558 0.523435
vt 0.703125 0.531250
vt 0.718750 0.531250
vt 0.710928 0.539050
vt 0.734375 0.531250
vt 0.726559 0.539060
vt 0.703125 0.500000
vt 0.695287 0.507775
vt 0.718750 0.500000
vt 0.710925 0.507796
vt 0.734375 0.500000
vt 0.726558 0.507810
vt 0.750000 0.500000
vt 0.742187 0.507816
vt 0.750000 0.515625
vt 0.742187 0.523441
vt 0.750000 0.531250
vt 0.742187 0.539066
vt 0.734375 0.546875
vt 0.750000 0.546875
vt 0.742187 0.554690
vt 0.718750 0.546875
vt 0.726560 0.554686
vt 0.703125 0.546875
vt 0.710930 0.554678
vt 0.695297 0.554666
vt 0.695292 0.539033
vt 0.695288 0.523403
vt 0.765625 0.578125
vt 0.781250 0.578125
vt 0.773439 0.585937
vt 0.796875 0.578125
vt 0.789065 0.585935
vt 0.765625 0.593750
vt 0.781250 0.593750
vt 0.773438 0.601563
vt 0.796875 0.593750
vt 0.789063 0.601562
vt 0.765625 0.562500
vt 0.757813 0.570314
vt 0.781250 0.562500
vt 0.773439 0.570312
vt 0.796875 0.562500
vt 0.789067 0.570307
vt 0.804697 0.570300
vt 0.804692 0.585931
vt 0.804689 0.601561
vt 0.796875 0.609375
vt 0.804687 0.617187
vt 0.781250 0.609375
vt 0.789062 0.617188
vt 0.765625 0.609375
vt 0.773438 0.617188
vt 0.757813 0.617188
vt 0.757813 0.601563
vt 0.757813 0.585939
vt 0.765625 0.515625
vt 0.781250 0.515625
vt 0.773442 0.523435
vt 0.796875 0.515625
vt 0.789074 0.523422
vt 0.765625 0.531250
vt 0.781250 0.531250
vt 0.773441 0.539060
vt 0.796875 0.531250
vt 0.789073 0.539050
vt 0.765625 0.500000
vt 0.757813 0.507816
vt 0.781250 0.500000
vt 0.773442 0.507810
vt 0.796875 0.500000
vt 0.789075 0.507796
vt 0.812500 0.500000
vt 0.804714 0.507775
vt 0.812500 0.515625
vt 0.804712 0.523403
vt 0.812500 0.531250
vt 0.804708 0.539033
vt 0.796875 0.546875
vt 0.812500 0.546875
vt 0.804703 0.554666
vt 0.781250 0.546875
vt 0.789070 0.554678
vt 0.765625 0.546875
vt 0.773440 0.554686
vt 0.757813 0.554690
vt 0.757813 0.539066
vt 0.757813 0.523441
vt 0.828125 0.515625
vt 0.843750 0.515625
vt 0.835999 0.523355
vt 0.859375 0.515625
vt 0.851640 0.523338
vt 0.828125 0.531250
vt 0.843750 0.531250
vt 0.835989 0.538992
vt 0.859375 0.531250
vt 0.851627 0.538978
vt 0.828125 0.500000
vt 0.820358 0.507748
vt 0.843750 0.500000
vt 0.836003 0.507723
vt 0.859375 0.500000
vt 0.851646 0.507706
vt 0.875000 0.500000
vt 0.867283 0.507696
vt 0.875000 0.515625
vt 0.867277 0.523329
vt 0.875000 0.531250
vt 0.867262 0.538970
vt 0.859375 0.546875
vt 0.875000 0.546875
vt 0.867241 0.554619
vt 0.843750 0.546875
vt 0.851609 0.554625
vt 0.828125 0.546875
vt 0.835975 0.554636
vt 0.820339 0.554650
vt 0.820348 0.539012
vt 0.820355 0.523377
vt 0.765625 0.703125
vt 0.781250 0.703125
vt 0.773441 0.710940
vt 0.796875 0.703125
vt 0.789072 0.710950
vt 0.765625 0.718750
vt 0.781250 0.718750
vt 0.773442 0.726565
vt 0.796875 0.718750
vt 0.789074 0.726578
vt 0.765625 0.687500
vt 0.757813 0.695310
vt 0.781250 0.687500
vt 0.773440 0.695314
vt 0.796875 0.687500
vt 0.789070 0.695322
vt 0.804703 0.695334
vt 0.804708 0.710967
vt 0.804712 0.726597
vt 0.796875 0.734375
vt 0.804714 0.742225
vt 0.781250 0.734375
vt 0.789075 0.742204
vt 0.765625 0.734375
vt 0.773442 0.742190
vt 0.757813 0.742184
vt 0.757813 0.726559
vt 0.757813 0.710935
vt 0.765625 0.640625
vt 0.781250 0.640625
vt 0.773438 0.648438
vt 0.796875 0.640625
vt 0.789063 0.648438
vt 0.765625 0.656250
vt 0.781250 0.656250
vt 0.773438 0.664063
vt 0.796875 0.656250
vt 0.789065 0.664065
vt 0.765625 0.625000
vt 0.757812 0.632812
vt 0.781250 0.625000
vt 0.773438 0.632812
vt 0.796875 0.625000
vt 0.789062 0.632812
vt 0.812500 0.625000
vt 0.804687 0.632813
vt 0.812500 0.640625
vt 0.804689 0.648439
vt 0.812500 0.656250
vt 0.804692 0.664069
vt 0.796875 0.671875
vt 0.812500 0.671875
vt 0.804697 0.679701
vt 0.781250 0.671875
vt 0.789067 0.679693
vt 0.765625 0.671875
vt 0.773439 0.679688
vt 0.757813 0.679686
vt 0.757813 0.664061
vt 0.757812 0.648437
vt 0.828125 0.640625
vt 0.843750 0.640625
vt 0.835940 0.648442
vt 0.859375 0.640625
vt 0.851565 0.648443
vt 0.828125 0.656250
vt 0.843750 0.656250
vt 0.835947 0.664077
vt 0.859375 0.656250
vt 0.851574 0.664080
vt 0.828125 0.625000
vt 0.820311 0.632813
vt 0.843750 0.625000
vt 0.835936 0.632813
vt 0.859375 0.625000
vt 0.851561 0.632813
vt 0.875000 0.625000
vt 0.867186 0.632813
vt 0.875000 0.640625
vt 0.867190 0.648443
vt 0.875000 0.656250
vt 0.867201 0.664081
vt 0.859375 0.671875
vt 0.875000 0.671875
vt 0.867218 0.679728
vt 0.843750 0.671875
vt 0.851589 0.679724
vt 0.828125 0.671875
vt 0.835959 0.679718
vt 0.820328 0.679710
vt 0.820320 0.664073
vt 0.820314 0.648441
vt 0.835989 0.711008
vt 0.875000 0.750000
vt 0.859375 0.750000
vt 0.843750 0.750000
vt 0.828125 0.750000
vt 0.812500 0.750000
vt 0.750000 0.750000
vt 0.734375 0.750000
vt 0.718750 0.750000
vt 0.703125 0.750000
vt 0.687500 0.750000
vt 0.671875 0.750000
vt 0.656250 0.750000
vt 0.640625 0.750000
vt 0.625000 0.750000
vt 0.796875 0.750000
vt 0.781250 0.750000
vt 0.765625 0.750000
s 0
usemtl Material
f 147/1/1 148/2/1 291/3/1
f 149/4/2 150/5/2 292/6/2
f 150/5/3 151/7/3 293/8/3
f 25/9/4 145/10/4 294/11/4
f 145/10/5 144/12/5 295/13/5
f 144/12/6 143/14/6 296/15/6
f 143/14/7 15/16/7 297/17/7
f 148/2/8 79/18/8 298/19/8
f 151/7/9 78/20/9 299/21/9
f 154/22/10 77/23/10 300/24/10
f 153/25/11 154/22/11 301/26/11
f 152/27/12 153/25/12 302/28/12
f 136/29/13 152/27/13 303/30/13
f 135/31/14 149/4/14 304/32/14
f 134/33/15 146/34/15 305/35/15
f 155/36/16 156/37/16 306/38/16
f 156/37/17 157/39/17 307/40/17
f 158/41/18 159/42/18 308/43/18
f 159/42/19 160/44/19 309/45/19
f 24/46/20 133/47/20 310/48/20
f 133/47/21 132/49/21 311/50/21
f 132/49/22 131/51/22 312/52/22
f 131/51/23 19/53/23 313/54/23
f 157/39/24 91/55/24 314/56/24
f 160/44/25 90/57/25 315/58/25
f 163/59/26 89/60/26 316/61/26
f 162/62/27 163/59/27 317/63/27
f 161/64/28 162/62/28 318/65/28
f 124/66/29 161/64/29 319/67/29
f 123/68/30 158/41/30 320/69/30
f 122/70/31 155/36/31 321/71/31
f 164/72/32 165/73/32 322/74/32
f 165/73/33 166/75/33 323/76/33
f 167/77/34 168/78/34 324/79/34
f 168/78/35 169/80/35 325/81/35
f 23/82/36 121/83/36 326/84/36
f 121/83/37 120/85/37 327/86/37
f 120/85/38 119/87/38 328/88/38
f 119/87/39 12/89/39 329/90/39
f 166/75/40 32/91/40 330/92/40
f 169/80/41 33/93/41 331/94/41
f 172/95/42 34/96/42 332/97/42
f 171/98/43 172/95/43 333/99/43
f 170/100/44 171/98/44 334/101/44
f 112/102/45 170/100/45 335/103/45
f 111/104/46 167/77/46 336/105/46
f 110/106/47 164/72/47 337/107/47
f 173/108/48 174/109/48 338/110/48
f 174/109/49 175/111/49 339/112/49
f 176/113/50 177/114/50 340/115/50
f 177/114/51 178/116/51 341/117/51
f 22/118/52 109/119/52 342/120/52
f 109/119/53 108/121/53 343/122/53
f 108/121/54 107/123/54 344/124/54
f 107/123/55 13/125/55 345/126/55
f 175/111/56 35/127/56 346/128/56
f 178/116/57 36/129/57 347/130/57
f 181/131/58 37/132/58 348/133/58
f 180/134/59 181/131/59 349/135/59
f 179/136/60 180/134/60 350/137/60
f 100/138/61 179/136/61 351/139/61
f 99/140/62 176/113/62 352/141/62
f 98/142/63 173/108/63 353/143/63
f 182/144/64 183/145/64 354/146/64
f 183/145/65 184/147/65 355/148/65
f 185/149/66 186/150/66 356/151/66
f 186/150/67 187/152/67 357/153/67
f 17/154/68 106/155/68 358/156/68
f 106/155/69 105/157/69 359/158/69
f 105/157/70 104/159/70 360/160/70
f 104/159/71 22/118/71 361/161/71
f 184/147/72 98/142/72 362/162/72
f 187/152/73 99/140/73 363/163/73
f 190/164/74 100/138/74 364/165/74
f 189/166/75 190/164/75 365/167/75
f 188/168/76 189/166/76 366/169/76
f 49/170/77 188/168/77 367/171/77
f 48/172/78 185/149/78 368/173/78
f 47/174/79 182/144/79 369/175/79
f 191/176/80 192/177/80 370/178/80
f 192/177/81 193/179/81 371/180/81
f 194/181/82 195/182/82 372/183/82
f 195/182/83 196/184/83 373/185/83
f 6/186/84 31/187/84 374/188/84
f 31/187/85 30/189/85 375/190/85
f 30/189/86 29/191/86 376/192/86
f 29/191/87 11/193/87 377/194/87
f 193/179/88 101/195/88 378/196/88
f 196/184/89 102/197/89 379/198/89
f 199/199/90 103/200/90 380/201/90
f 198/202/91 199/199/91 381/203/91
f 197/204/92 198/202/92 382/205/92
f 85/206/93 197/204/93 383/207/93
f 84/208/94 194/181/94 384/209/94
f 83/210/95 191/176/95 385/211/95
f 200/212/96 201/213/96 386/214/96
f 201/213/97 202/215/97 387/216/97
f 203/217/98 204/218/98 388/219/98
f 204/218/99 205/220/99 389/221/99
f 11/193/100 67/222/100 390/223/100
f 67/222/101 66/224/101 391/225/101
f 66/224/102 65/226/102 392/227/102
f 65/226/103 9/228/103 393/229/103
f 202/215/104 71/230/104 394/231/104
f 205/220/105 72/232/105 395/233/105
f 208/234/106 73/235/106 396/236/106
f 207/237/107 208/234/107 397/238/107
f 206/239/108 207/237/108 398/240/108
f 103/200/109 206/239/109 399/241/109
f 102/197/110 203/217/110 400/242/110
f 101/195/111 200/212/111 401/243/111
f 209/244/112 210/245/112 402/246/112
f 210/245/113 211/247/113 403/248/113
f 212/249/114 213/250/114 404/251/114
f 213/250/115 214/252/115 405/253/115
f 18/254/116 118/255/116 406/256/116
f 118/255/117 117/257/117 407/258/117
f 117/257/118 116/259/118 408/260/118
f 116/259/119 23/82/119 409/261/119
f 211/247/120 110/106/120 410/262/120
f 214/252/121 111/104/121 411/263/121
f 217/264/122 112/102/122 412/265/122
f 216/266/123 217/264/123 413/267/123
f 215/268/124 216/266/124 414/269/124
f 52/270/125 215/268/125 415/271/125
f 51/272/126 212/249/126 416/273/126
f 50/274/127 209/244/127 417/275/127
f 218/276/128 219/277/128 418/278/128
f 219/277/129 220/279/129 419/280/129
f 221/281/130 222/282/130 420/283/130
f 222/282/131 223/284/131 421/285/131
f 1/286/132 58/287/132 422/288/132
f 58/287/133 57/289/133 423/290/133
f 57/289/134 56/291/134 424/292/134
f 56/291/135 20/293/135 425/294/135
f 220/279/136 113/295/136 426/296/136
f 223/284/137 114/297/137 427/298/137
f 226/299/138 115/300/138 428/301/138
f 225/302/139 226/299/139 429/303/139
f 224/304/140 225/302/140 430/305/140
f 88/306/141 224/304/141 431/307/141
f 87/308/142 221/281/142 432/309/142
f 86/310/143 218/276/143 433/311/143
f 227/312/144 228/313/144 434/314/144
f 228/313/145 229/315/145 435/316/145
f 230/317/146 231/318/146 436/319/146
f 231/318/147 232/320/147 437/321/147
f 20/293/148 94/322/148 438/323/148
f 94/322/149 93/324/149 439/325/149
f 93/324/150 92/326/150 440/327/150
f 92/326/151 2/328/151 441/329/151
f 229/315/152 68/330/152 442/331/152
f 232/320/153 69/332/153 443/333/153
f 235/334/154 70/335/154 444/336/154
f 234/337/155 235/334/155 445/338/155
f 233/339/156 234/337/156 446/340/156
f 115/300/157 233/339/157 447/341/157
f 114/297/158 230/317/158 448/342/158
f 113/295/159 227/312/159 449/343/159
f 236/344/160 237/345/160 450/346/160
f 237/345/161 238/347/161 451/348/161
f 239/349/162 240/350/162 452/351/162
f 240/350/163 241/352/163 453/353/163
f 12/89/164 130/354/164 454/355/164
f 130/354/165 129/356/165 455/357/165
f 129/356/166 128/358/166 456/359/166
f 128/358/167 24/46/167 457/360/167
f 238/347/168 122/70/168 458/361/168
f 241/352/169 123/68/169 459/362/169
f 244/363/170 124/66/170 460/364/170
f 243/365/171 244/363/171 461/366/171
f 242/367/172 243/365/172 462/368/172
f 34/96/173 242/367/173 463/369/173
f 33/93/174 239/349/174 464/370/174
f 32/91/175 236/344/175 465/371/175
f 245/372/176 246/373/176 466/374/176
f 246/373/177 247/375/177 467/376/177
f 248/377/178 249/378/178 468/379/178
f 249/378/179 250/380/179 469/381/179
f 2/328/180 40/382/180 470/383/180
f 40/382/181 39/384/181 471/385/181
f 39/384/182 38/386/182 472/387/182
f 38/386/183 14/388/183 473/389/183
f 247/375/184 125/390/184 474/391/184
f 250/380/185 126/392/185 475/393/185
f 253/394/186 127/395/186 476/396/186
f 252/397/187 253/394/187 477/398/187
f 251/399/188 252/397/188 478/400/188
f 70/335/189 251/399/189 479/401/189
f 69/332/190 248/377/190 480/402/190
f 68/330/191 245/372/191 481/403/191
f 254/404/192 255/405/192 482/406/192
f 255/405/193 256/407/193 483/408/193
f 257/409/194 258/410/194 484/411/194
f 258/410/195 259/412/195 485/413/195
f 14/388/196 76/414/196 486/415/196
f 76/414/197 75/416/197 487/417/197
f 75/416/198 74/418/198 488/419/198
f 74/418/199 5/420/199 489/421/199
f 256/407/200 55/422/200 490/423/200
f 259/412/201 54/424/201 491/425/201
f 262/426/202 53/427/202 492/428/202
f 261/429/203 262/426/203 493/430/203
f 260/431/204 261/429/204 494/432/204
f 127/395/205 260/431/205 495/433/205
f 126/392/206 257/409/206 496/434/206
f 125/390/207 254/404/207 497/435/207
f 263/436/208 264/437/208 498/438/208
f 264/437/209 265/439/209 499/440/209
f 266/441/210 267/442/210 500/443/210
f 267/442/211 268/444/211 501/445/211
f 13/125/212 142/446/212 502/447/212
f 142/446/213 141/448/213 503/449/213
f 141/448/214 140/450/214 504/451/214
f 140/450/215 25/9/215 505/452/215
f 265/439/216 134/33/216 506/453/216
f 268/444/217 135/31/217 507/454/217
f 271/455/218 136/29/218 508/456/218
f 270/457/219 271/455/219 509/458/219
f 269/459/220 270/457/220 510/460/220
f 37/132/221 269/459/221 511/461/221
f 36/129/222 266/441/222 512/462/222
f 35/127/223 263/436/223 513/463/223
f 272/464/224 273/465/224 514/466/224
f 273/465/225 274/467/225 515/468/225
f 275/469/226 276/470/226 516/471/226
f 276/470/227 277/472/227 517/473/227
f 9/228/228 28/474/228 518/475/228
f 28/474/229 27/476/229 519/477/229
f 27/476/230 26/478/230 520/479/230
f 26/478/231 10/480/231 521/481/231
f 274/467/232 137/482/232 522/483/232
f 277/472/233 138/484/233 523/485/233
f 280/486/234 139/487/234 524/488/234
f 279/489/235 280/486/235 525/490/235
f 278/491/236 279/489/236 526/492/236
f 73/235/237 278/491/237 527/493/237
f 72/232/238 275/469/238 528/494/238
f 71/230/239 272/464/239 529/495/239
f 281/496/240 282/497/240 530/498/240
f 282/497/241 283/499/241 531/500/241
f 284/501/242 285/502/242 532/503/242
f 285/502/243 286/504/243 533/505/243
f 10/480/244 64/506/244 534/507/244
f 64/506/245 63/508/245 535/509/245
f 63/508/246 62/510/246 536/511/246
f 62/510/247 4/512/247 537/513/247
f 283/499/248 43/514/248 538/515/248
f 286/504/249 42/516/249 539/517/249
f 289/518/250 41/519/250 540/520/250
f 288/521/251 289/518/251 541/522/251
f 287/523/252 288/521/252 542/524/252
f 139/487/253 287/523/253 543/525/253
f 138/484/254 284/501/254 544/526/254
f 137/482/255 281/496/255 545/527/255
f 146/34/256 147/1/256 290/528/256
f 147/1/257 150/5/257 290/528/257
f 150/5/258 149/4/258 290/528/258
f 149/4/259 146/34/259 290/528/259
f 148/2/260 151/7/260 291/3/260
f 151/7/261 150/5/261 291/3/261
f 150/5/262 147/1/262 291/3/262
f 150/5/263 153/25/263 292/6/263
f 153/25/264 152/27/264 292/6/264
f 152/27/265 149/4/265 292/6/265
f 151/7/266 154/22/266 293/8/266
f 154/22/267 153/25/267 293/8/267
f 153/25/268 150/5/268 293/8/268
f 145/10/269 146/34/269 294/11/269
f 146/34/270 134/33/270 294/11/270
f 134/33/271 25/9/271 294/11/271
f 144/12/272 147/1/272 295/13/272
f 147/1/273 146/34/273 295/13/273
f 146/34/274 145/10/274 295/13/274
f 143/14/275 148/2/275 296/15/275
f 148/2/276 147/1/276 296/15/276
f 147/1/277 144/12/277 296/15/277
f 15/16/278 79/18/278 297/17/278
f 79/18/279 148/2/279 297/17/279
f 148/2/280 143/14/280 297/17/280
f 79/18/281 78/20/281 298/19/281
f 78/20/282 151/7/282 298/19/282
f 151/7/283 148/2/283 298/19/283
f 78/20/284 77/23/284 299/21/284
f 77/23/285 154/22/285 299/21/285
f 154/22/286 151/7/286 299/21/286
f 77/23/287 7/529/287 300/24/287
f 7/529/288 46/530/288 300/24/288
f 46/530/289 154/22/289 300/24/289
f 154/22/290 46/530/290 301/26/290
f 46/530/291 45/531/291 301/26/291
f 45/531/292 153/25/292 301/26/292
f 153/25/293 45/531/293 302/28/293
f 45/531/294 44/532/294 302/28/294
f 44/532/295 152/27/295 302/28/295
f 152/27/296 44/532/296 303/30/296
f 44/532/297 16/533/297 303/30/297
f 16/533/298 136/29/298 303/30/298
f 149/4/299 152/27/299 304/32/299
f 152/27/300 136/29/300 304/32/300
f 136/29/301 135/31/301 304/32/301
f 146/34/302 149/4/302 305/35/302
f 149/4/303 135/31/303 305/35/303
f 135/31/304 134/33/304 305/35/304
f 156/37/305 159/42/305 306/38/305
f 159/42/306 158/41/306 306/38/306
f 158/41/307 155/36/307 306/38/307
f 157/39/308 160/44/308 307/40/308
f 160/44/309 159/42/309 307/40/309
f 159/42/310 156/37/310 307/40/310
f 159/42/311 162/62/311 308/43/311
f 162/62/312 161/64/312 308/43/312
f 161/64/313 158/41/313 308/43/313
f 160/44/314 163/59/314 309/45/314
f 163/59/315 162/62/315 309/45/315
f 162/62/316 159/42/316 309/45/316
f 133/47/317 155/36/317 310/48/317
f 155/36/318 122/70/318 310/48/318
f 122/70/319 24/46/319 310/48/319
f 132/49/320 156/37/320 311/50/320
f 156/37/321 155/36/321 311/50/321
f 155/36/322 133/47/322 311/50/322
f 131/51/323 157/39/323 312/52/323
f 157/39/324 156/37/324 312/52/324
f 156/37/325 132/49/325 312/52/325
f 19/53/326 91/55/326 313/54/326
f 91/55/327 157/39/327 313/54/327
f 157/39/328 131/51/328 313/54/328
f 91/55/329 90/57/329 314/56/329
f 90/57/330 160/44/330 314/56/330
f 160/44/331 157/39/331 314/56/331
f 90/57/332 89/60/332 315/58/332
f 89/60/333 163/59/333 315/58/333
f 163/59/334 160/44/334 315/58/334
f 89/60/335 4/512/335 316/61/335
f 4/512/336 62/510/336 316/61/336
f 62/510/337 163/59/337 316/61/337
f 163/59/338 62/510/338 317/63/338
f 62/510/339 63/508/339 317/63/339
f 63/508/340 162/62/340 317/63/340
f 162/62/341 63/508/341 318/65/341
f 63/508/342 64/506/342 318/65/342
f 64/506/343 161/64/343 318/65/343
f 161/64/344 64/506/344 319/67/344
f 64/506/345 10/480/345 319/67/345
f 10/480/346 124/66/346 319/67/346
f 158/41/347 161/64/347 320/69/347
f 161/64/348 124/66/348 320/69/348
f 124/66/349 123/68/349 320/69/349
f 155/36/350 158/41/350 321/71/350
f 158/41/351 123/68/351 321/71/351
f 123/68/352 122/70/352 321/71/352
f 165/73/353 168/78/353 322/74/353
f 168/78/354 167/77/354 322/74/354
f 167/77/355 164/72/355 322/74/355
f 166/75/356 169/80/356 323/76/356
f 169/80/357 168/78/357 323/76/357
f 168/78/358 165/73/358 323/76/358
f 168/78/359 171/98/359 324/79/359
f 171/98/360 170/100/360 324/79/360
f 170/100/361 167/77/361 324/79/361
f 169/80/362 172/95/362 325/81/362
f 172/95/363 171/98/363 325/81/363
f 171/98/364 168/78/364 325/81/364
f 121/83/365 164/72/365 326/84/365
f 164/72/366 110/106/366 326/84/366
f 110/106/367 23/82/367 326/84/367
f 120/85/368 165/73/368 327/86/368
f 165/73/369 164/72/369 327/86/369
f 164/72/370 121/83/370 327/86/370
f 119/87/371 166/75/371 328/88/371
f 166/75/372 165/73/372 328/88/372
f 165/73/373 120/85/373 328/88/373
f 12/89/374 32/91/374 329/90/374
f 32/91/375 166/75/375 329/90/375
f 166/75/376 119/87/376 329/90/376
f 32/91/377 33/93/377 330/92/377
f 33/93/378 169/80/378 330/92/378
f 169/80/379 166/75/379 330/92/379
f 33/93/380 34/96/380 331/94/380
f 34/96/381 172/95/381 331/94/381
f 172/95/382 169/80/382 331/94/382
f 34/96/383 9/228/383 332/97/383
f 9/228/384 65/226/384 332/97/384
f 65/226/385 172/95/385 332/97/385
f 172/95/386 65/226/386 333/99/386
f 65/226/387 66/224/387 333/99/387
f 66/224/388 171/98/388 333/99/388
f 171/98/389 66/224/389 334/101/389
f 66/224/390 67/222/390 334/101/390
f 67/222/391 170/100/391 334/101/391
f 170/100/392 67/222/392 335/103/392
f 67/222/393 11/193/393 335/103/393
f 11/193/394 112/102/394 335/103/394
f 167/77/395 170/100/395 336/105/395
f 170/100/396 112/102/396 336/105/396
f 112/102/397 111/104/397 336/105/397
f 164/72/398 167/77/398 337/107/398
f 167/77/399 111/104/399 337/107/399
f 111/104/400 110/106/400 337/107/400
f 174/109/401 177/114/401 338/110/401
f 177/114/402 176/113/402 338/110/402
f 176/113/403 173/108/403 338/110/403
f 175/111/404 178/116/404 339/112/404
f 178/116/405 177/114/405 339/112/405
f 177/114/406 174/109/406 339/112/406
f 177/114/407 180/134/407 340/115/407
f 180/134/408 179/136/408 340/115/408
f 179/136/409 176/113/409 340/115/409
f 178/116/410 181/131/410 341/117/410
f 181/131/411 180/134/411 341/117/411
f 180/134/412 177/114/412 341/117/412
f 109/119/413 173/108/413 342/120/413
f 173/108/414 98/142/414 342/120/414
f 98/142/415 22/118/415 342/120/415
f 108/121/416 174/109/416 343/122/416
f 174/109/417 173/108/417 343/122/417
f 173/108/418 109/119/418 343/122/418
f 107/123/419 175/111/419 344/124/419
f 175/111/420 174/109/420 344/124/420
f 174/109/421 108/121/421 344/124/421
f 13/125/422 35/127/422 345/126/422
f 35/127/423 175/111/423 345/126/423
f 175/111/424 107/123/424 345/126/424
f 35/127/425 36/129/425 346/128/425
f 36/129/426 178/116/426 346/128/426
f 178/116/427 175/111/427 346/128/427
f 36/129/428 37/132/428 347/130/428
f 37/132/429 181/131/429 347/130/429
f 181/131/430 178/116/430 347/130/430
f 37/132/431 8/534/431 348/133/431
f 8/534/432 61/535/432 348/133/432
f 61/535/433 181/131/433 348/133/433
f 181/131/434 61/535/434 349/135/434
f 61/535/435 60/536/435 349/135/435
f 60/536/436 180/134/436 349/135/436
f 180/134/437 60/536/437 350/137/437
f 60/536/438 59/537/438 350/137/438
f 59/537/439 179/136/439 350/137/439
f 179/136/440 59/537/440 351/139/440
f 59/537/441 21/538/441 351/139/441
f 21/538/442 100/138/442 351/139/442
f 176/113/443 179/136/443 352/141/443
f 179/136/444 100/138/444 352/141/444
f 100/138/445 99/140/445 352/141/445
f 173/108/446 176/113/446 353/143/446
f 176/113/447 99/140/447 353/143/447
f 99/140/448 98/142/448 353/143/448
f 183/145/449 186/150/449 354/146/449
f 186/150/450 185/149/450 354/146/450
f 185/149/451 182/144/451 354/146/451
f 184/147/452 187/152/452 355/148/452
f 187/152/453 186/150/453 355/148/453
f 186/150/454 183/145/454 355/148/454
f 186/150/455 189/166/455 356/151/455
f 189/166/456 188/168/456 356/151/456
f 188/168/457 185/149/457 356/151/457
f 187/152/458 190/164/458 357/153/458
f 190/164/459 189/166/459 357/153/459
f 189/166/460 186/150/460 357/153/460
f 106/155/461 182/144/461 358/156/461
f 182/144/462 47/174/462 358/156/462
f 47/174/463 17/154/463 358/156/463
f 105/157/464 183/145/464 359/158/464
f 183/145/465 182/144/465 359/158/465
f 182/144/466 106/155/466 359/158/466
f 104/159/467 184/147/467 360/160/467
f 184/147/468 183/145/468 360/160/468
f 183/145/469 105/157/469 360/160/469
f 22/118/470 98/142/470 361/161/470
f 98/142/471 184/147/471 361/161/471
f 184/147/472 104/159/472 361/161/472
f 98/142/473 99/140/473 362/162/473
f 99/140/474 187/152/474 362/162/474
f 187/152/475 184/147/475 362/162/475
f 99/140/476 100/138/476 363/163/476
f 100/138/477 190/164/477 363/163/477
f 190/164/478 187/152/478 363/163/478
f 100/138/479 21/538/479 364/165/479
f 21/538/480 97/539/480 364/165/480
f 97/539/481 190/164/481 364/165/481
f 190/164/482 97/539/482 365/167/482
f 97/539/483 96/540/483 365/167/483
f 96/540/484 189/166/484 365/167/484
f 189/166/485 96/540/485 366/169/485
f 96/540/486 95/541/486 366/169/486
f 95/541/487 188/168/487 366/169/487
f 188/168/488 95/541/488 367/171/488
f 95/541/489 3/542/489 367/171/489
f 3/542/490 49/170/490 367/171/490
f 185/149/491 188/168/491 368/173/491
f 188/168/492 49/170/492 368/173/492
f 49/170/493 48/172/493 368/173/493
f 182/144/494 185/149/494 369/175/494
f 185/149/495 48/172/495 369/175/495
f 48/172/496 47/174/496 369/175/496
f 192/177/497 195/182/497 370/178/497
f 195/182/498 194/181/498 370/178/498
f 194/181/499 191/176/499 370/178/499
f 193/179/500 196/184/500 371/180/500
f 196/184/501 195/182/501 371/180/501
f 195/182/502 192/177/502 371/180/502
f 195/182/503 198/202/503 372/183/503
f 198/202/504 197/204/504 372/183/504
f 197/204/505 194/181/505 372/183/505
f 196/184/506 199/199/506 373/185/506
f 199/199/507 198/202/507 373/185/507
f 198/202/508 195/182/508 373/185/508
f 31/187/509 191/176/509 374/188/509
f 191/176/510 83/210/510 374/188/510
f 83/210/511 6/186/511 374/188/511
f 30/189/512 192/177/512 375/190/512
f 192/177/513 191/176/513 375/190/513
f 191/176/514 31/187/514 375/190/514
f 29/191/515 193/179/515 376/192/515
f 193/179/516 192/177/516 376/192/516
f 192/177/517 30/189/517 376/192/517
f 11/193/518 101/195/518 377/194/518
f 101/195/519 193/179/519 377/194/519
f 193/179/520 29/191/520 377/194/520
f 101/195/521 102/197/521 378/196/521
f 102/197/522 196/184/522 378/196/522
f 196/184/523 193/179/523 378/196/523
f 102/197/524 103/200/524 379/198/524
f 103/200/525 199/199/525 379/198/525
f 199/199/526 196/184/526 379/198/526
f 103/200/527 22/118/527 380/201/527
f 22/118/528 104/159/528 380/201/528
f 104/159/529 199/199/529 380/201/529
f 199/199/530 104/159/530 381/203/530
f 104/159/531 105/157/531 381/203/531
f 105/157/532 198/202/532 381/203/532
f 198/202/533 105/157/533 382/205/533
f 105/157/534 106/155/534 382/205/534
f 106/155/535 197/204/535 382/205/535
f 197/204/536 106/155/536 383/207/536
f 106/155/537 17/154/537 383/207/537
f 17/154/538 85/206/538 383/207/538
f 194/181/539 197/204/539 384/209/539
f 197/204/540 85/206/540 384/209/540
f 85/206/541 84/208/541 384/209/541
f 191/176/542 194/181/542 385/211/542
f 194/181/543 84/208/543 385/211/543
f 84/208/544 83/210/544 385/211/544
f 201/213/545 204/218/545 386/214/545
f 204/218/546 203/217/546 386/214/546
f 203/217/547 200/212/547 386/214/547
f 202/215/548 205/220/548 387/216/548
f 205/220/549 204/218/549 387/216/549
f 204/218/550 201/213/550 387/216/550
f 204/218/551 207/237/551 388/219/551
f 207/237/552 206/239/552 388/219/552
f 206/239/553 203/217/553 388/219/553
f 205/220/554 208/234/554 389/221/554
f 208/234/555 207/237/555 389/221/555
f 207/237/556 204/218/556 389/221/556
f 67/222/557 200/212/557 390/223/557
f 200/212/558 101/195/558 390/223/558
f 101/195/559 11/193/559 390/223/559
f 66/224/560 201/213/560 391/225/560
f 201/213/561 200/212/561 391/225/561
f 200/212/562 67/222/562 391/225/562
f 65/226/563 202/215/563 392/227/563
f 202/215/564 201/213/564 392/227/564
f 201/213/565 66/224/565 392/227/565
f 9/228/566 71/230/566 393/229/566
f 71/230/567 202/215/567 393/229/567
f 202/215/568 65/226/568 393/229/568
f 71/230/569 72/232/569 394/231/569
f 72/232/570 205/220/570 394/231/570
f 205/220/571 202/215/571 394/231/571
f 72/232/572 73/235/572 395/233/572
f 73/235/573 208/234/573 395/233/573
f 208/234/574 205/220/574 395/233/574
f 73/235/575 13/125/575 396/236/575
f 13/125/576 107/123/576 396/236/576
f 107/123/577 208/234/577 396/236/577
f 208/234/578 107/123/578 397/238/578
f 107/123/579 108/121/579 397/238/579
f 108/121/580 207/237/580 397/238/580
f 207/237/581 108/121/581 398/240/581
f 108/121/582 109/119/582 398/240/582
f 109/119/583 206/239/583 398/240/583
f 206/239/584 109/119/584 399/241/584
f 109/119/585 22/118/585 399/241/585
f 22/118/586 103/200/586 399/241/586
f 203/217/587 206/239/587 400/242/587
f 206/239/588 103/200/588 400/242/588
f 103/200/589 102/197/589 400/242/589
f 200/212/590 203/217/590 401/243/590
f 203/217/591 102/197/591 401/243/591
f 102/197/592 101/195/592 401/243/592
f 210/245/593 213/250/593 402/246/593
f 213/250/594 212/249/594 402/246/594
f 212/249/595 209/244/595 402/246/595
f 211/247/596 214/252/596 403/248/596
f 214/252/597 213/250/597 403/248/597
f 213/250/598 210/245/598 403/248/598
f 213/250/599 216/266/599 404/251/599
f 216/266/600 215/268/600 404/251/600
f 215/268/601 212/249/601 404/251/601
f 214/252/602 217/264/602 405/253/602
f 217/264/603 216/266/603 405/253/603
f 216/266/604 213/250/604 405/253/604
f 118/255/605 209/244/605 406/256/605
f 209/244/606 50/274/606 406/256/606
f 50/274/607 18/254/607 406/256/607
f 117/257/608 210/245/608 407/258/608
f 210/245/609 209/244/609 407/258/609
f 209/244/610 118/255/610 407/258/610
f 116/259/611 211/247/611 408/260/611
f 211/247/612 210/245/612 408/260/612
f 210/245/613 117/257/613 408/260/613
f 23/82/614 110/106/614 409/261/614
f 110/106/615 211/247/615 409/261/615
f 211/247/616 116/259/616 409/261/616
f 110/106/617 111/104/617 410/262/617
f 111/104/618 214/252/618 410/262/618
f 214/252/619 211/247/619 410/262/619
f 111/104/620 112/102/620 411/263/620
f 112/102/621 217/264/621 411/263/621
f 217/264/622 214/252/622 411/263/622
f 112/102/623 11/193/623 412/265/623
f 11/193/624 29/191/624 412/265/624
f 29/191/625 217/264/625 412/265/625
f 217/264/626 29/191/626 413/267/626
f 29/191/627 30/189/627 413/267/627
f 30/189/628 216/266/628 413/267/628
f 216/266/629 30/189/629 414/269/629
f 30/189/630 31/187/630 414/269/630
f 31/187/631 215/268/631 414/269/631
f 215/268/632 31/187/632 415/271/632
f 31/187/633 6/186/633 415/271/633
f 6/186/634 52/270/634 415/271/634
f 212/249/635 215/268/635 416/273/635
f 215/268/636 52/270/636 416/273/636
f 52/270/637 51/272/637 416/273/637
f 209/244/638 212/249/638 417/275/638
f 212/249/639 51/272/639 417/275/639
f 51/272/640 50/274/640 417/275/640
f 219/277/641 222/282/641 418/278/641
f 222/282/642 221/281/642 418/278/642
f 221/281/643 218/276/643 418/278/643
f 220/279/644 223/284/644 419/280/644
f 223/284/645 222/282/645 419/280/645
f 222/282/646 219/277/646 419/280/646
f 222/282/647 225/302/647 420/283/647
f 225/302/648 224/304/648 420/283/648
f 224/304/649 221/281/649 420/283/649
f 223/284/650 226/299/650 421/285/650
f 226/299/651 225/302/651 421/285/651
f 225/302/652 222/282/652 421/285/652
f 58/287/653 218/276/653 422/288/653
f 218/276/654 86/310/654 422/288/654
f 86/310/655 1/286/655 422/288/655
f 57/289/656 219/277/656 423/290/656
f 219/277/657 218/276/657 423/290/657
f 218/276/658 58/287/658 423/290/658
f 56/291/659 220/279/659 424/292/659
f 220/279/660 219/277/660 424/292/660
f 219/277/661 57/289/661 424/292/661
f 20/293/662 113/295/662 425/294/662
f 113/295/663 220/279/663 425/294/663
f 220/279/664 56/291/664 425/294/664
f 113/295/665 114/297/665 426/296/665
f 114/297/666 223/284/666 426/296/666
f 223/284/667 220/279/667 426/296/667
f 114/297/668 115/300/668 427/298/668
f 115/300/669 226/299/669 427/298/669
f 226/299/670 223/284/670 427/298/670
f 115/300/671 23/82/671 428/301/671
f 23/82/672 116/259/672 428/301/672
f 116/259/673 226/299/673 428/301/673
f 226/299/674 116/259/674 429/303/674
f 116/259/675 117/257/675 429/303/675
f 117/257/676 225/302/676 429/303/676
f 225/302/677 117/257/677 430/305/677
f 117/257/678 118/255/678 430/305/678
f 118/255/679 224/304/679 430/305/679
f 224/304/680 118/255/680 431/307/680
f 118/255/681 18/254/681 431/307/681
f 18/254/682 88/306/682 431/307/682
f 221/281/683 224/304/683 432/309/683
f 224/304/684 88/306/684 432/309/684
f 88/306/685 87/308/685 432/309/685
f 218/276/686 221/281/686 433/311/686
f 221/281/687 87/308/687 433/311/687
f 87/308/688 86/310/688 433/311/688
f 228/313/689 231/318/689 434/314/689
f 231/318/690 230/317/690 434/314/690
f 230/317/691 227/312/691 434/314/691
f 229/315/692 232/320/692 435/316/692
f 232/320/693 231/318/693 435/316/693
f 231/318/694 228/313/694 435/316/694
f 231/318/695 234/337/695 436/319/695
f 234/337/696 233/339/696 436/319/696
f 233/339/697 230/317/697 436/319/697
f 232/320/698 235/334/698 437/321/698
f 235/334/699 234/337/699 437/321/699
f 234/337/700 231/318/700 437/321/700
f 94/322/701 227/312/701 438/323/701
f 227/312/702 113/295/702 438/323/702
f 113/295/703 20/293/703 438/323/703
f 93/324/704 228/313/704 439/325/704
f 228/313/705 227/312/705 439/325/705
f 227/312/706 94/322/706 439/325/706
f 92/326/707 229/315/707 440/327/707
f 229/315/708 228/313/708 440/327/708
f 228/313/709 93/324/709 440/327/709
f 2/328/710 68/330/710 441/329/710
f 68/330/711 229/315/711 441/329/711
f 229/315/712 92/326/712 441/329/712
f 68/330/713 69/332/713 442/331/713
f 69/332/714 232/320/714 442/331/714
f 232/320/715 229/315/715 442/331/715
f 69/332/716 70/335/716 443/333/716
f 70/335/717 235/334/717 443/333/717
f 235/334/718 232/320/718 443/333/718
f 70/335/719 12/89/719 444/336/719
f 12/89/720 119/87/720 444/336/720
f 119/87/721 235/334/721 444/336/721
f 235/334/722 119/87/722 445/338/722
f 119/87/723 120/85/723 445/338/723
f 120/85/724 234/337/724 445/338/724
f 234/337/725 120/85/725 446/340/725
f 120/85/726 121/83/726 446/340/726
f 121/83/727 233/339/727 446/340/727
f 233/339/728 121/83/728 447/341/728
f 121/83/729 23/82/729 447/341/729
f 23/82/730 115/300/730 447/341/730
f 230/317/731 233/339/731 448/342/731
f 233/339/732 115/300/732 448/342/732
f 115/300/733 114/297/733 448/342/733
f 227/312/734 230/317/734 449/343/734
f 230/317/735 114/297/735 449/343/735
f 114/297/736 113/295/736 449/343/736
f 237/345/737 240/350/737 450/346/737
f 240/350/738 239/349/738 450/346/738
f 239/349/739 236/344/739 450/346/739
f 238/347/740 241/352/740 451/348/740
f 241/352/741 240/350/741 451/348/741
f 240/350/742 237/345/742 451/348/742
f 240/350/743 243/365/743 452/351/743
f 243/365/744 242/367/744 452/351/744
f 242/367/745 239/349/745 452/351/745
f 241/352/746 244/363/746 453/353/746
f 244/363/747 243/365/747 453/353/747
f 243/365/748 240/350/748 453/353/748
f 130/354/749 236/344/749 454/355/749
f 236/344/750 32/91/750 454/355/750
f 32/91/751 12/89/751 454/355/751
f 129/356/752 237/345/752 455/357/752
f 237/345/753 236/344/753 455/357/753
f 236/344/754 130/354/754 455/357/754
f 128/358/755 238/347/755 456/359/755
f 238/347/756 237/345/756 456/359/756
f 237/345/757 129/356/757 456/359/757
f 24/46/758 122/70/758 457/360/758
f 122/70/759 238/347/759 457/360/759
f 238/347/760 128/358/760 457/360/760
f 122/70/761 123/68/761 458/361/761
f 123/68/762 241/352/762 458/361/762
f 241/352/763 238/347/763 458/361/763
f 123/68/764 124/66/764 459/362/764
f 124/66/765 244/363/765 459/362/765
f 244/363/766 241/352/766 459/362/766
f 124/66/767 10/480/767 460/364/767
f 10/480/768 26/478/768 460/364/768
f 26/478/769 244/363/769 460/364/769
f 244/363/770 26/478/770 461/366/770
f 26/478/771 27/476/771 461/366/771
f 27/476/772 243/365/772 461/366/772
f 243/365/773 27/476/773 462/368/773
f 27/476/774 28/474/774 462/368/774
f 28/474/775 242/367/775 462/368/775
f 242/367/776 28/474/776 463/369/776
f 28/474/777 9/228/777 463/369/777
f 9/228/778 34/96/778 463/369/778
f 239/349/779 242/367/779 464/370/779
f 242/367/780 34/96/780 464/370/780
f 34/96/781 33/93/781 464/370/781
f 236/344/782 239/349/782 465/371/782
f 239/349/783 33/93/783 465/371/783
f 33/93/784 32/91/784 465/371/784
f 246/373/785 249/378/785 466/374/785
f 249/378/786 248/377/786 466/374/786
f 248/377/787 245/372/787 466/374/787
f 247/375/788 250/380/788 467/376/788
f 250/380/789 249/378/789 467/376/789
f 249/378/790 246/373/790 467/376/790
f 249/378/791 252/397/791 468/379/791
f 252/397/792 251/399/792 468/379/792
f 251/399/793 248/377/793 468/379/793
f 250/380/794 253/394/794 469/381/794
f 253/394/795 252/397/795 469/381/795
f 252/397/796 249/378/796 469/381/796
f 40/382/797 245/372/797 470/383/797
f 245/372/798 68/330/798 470/383/798
f 68/330/799 2/328/799 470/383/799
f 39/384/800 246/373/800 471/385/800
f 246/373/801 245/372/801 471/385/801
f 245/372/802 40/382/802 471/385/802
f 38/386/803 247/375/803 472/387/803
f 247/375/804 246/373/804 472/387/804
f 246/373/805 39/384/805 472/387/805
f 14/388/806 125/390/806 473/389/806
f 125/390/807 247/375/807 473/389/807
f 247/375/808 38/386/808 473/389/808
f 125/390/809 126/392/809 474/391/809
f 126/392/810 250/380/810 474/391/810
f 250/380/811 247/375/811 474/391/811
f 126/392/812 127/395/812 475/393/812
f 127/395/813 253/394/813 475/393/813
f 253/394/814 250/380/814 475/393/814
f 127/395/815 24/46/815 476/396/815
f 24/46/816 128/358/816 476/396/816
f 128/358/817 253/394/817 476/396/817
f 253/394/818 128/358/818 477/398/818
f 128/358/819 129/356/819 477/398/819
f 129/356/820 252/397/820 477/398/820
f 252/397/821 129/356/821 478/400/821
f 129/356/822 130/354/822 478/400/822
f 130/354/823 251/399/823 478/400/823
f 251/399/824 130/354/824 479/401/824
f 130/354/825 12/89/825 479/401/825
f 12/89/826 70/335/826 479/401/826
f 248/377/827 251/399/827 480/402/827
f 251/399/828 70/335/828 480/402/828
f 70/335/829 69/332/829 480/402/829
f 245/372/830 248/377/830 481/403/830
f 248/377/831 69/332/831 481/403/831
f 69/332/832 68/330/832 481/403/832
f 255/405/833 258/410/833 482/406/833
f 258/410/834 257/409/834 482/406/834
f 257/409/835 254/404/835 482/406/835
f 256/407/836 259/412/836 483/408/836
f 259/412/837 258/410/837 483/408/837
f 258/410/838 255/405/838 483/408/838
f 258/410/839 261/429/839 484/411/839
f 261/429/840 260/431/840 484/411/840
f 260/431/841 257/409/841 484/411/841
f 259/412/842 262/426/842 485/413/842
f 262/426/843 261/429/843 485/413/843
f 261/429/844 258/410/844 485/413/844
f 76/414/845 254/404/845 486/415/845
f 254/404/846 125/390/846 486/415/846
f 125/390/847 14/388/847 486/415/847
f 75/416/848 255/405/848 487/417/848
f 255/405/849 254/404/849 487/417/849
f 254/404/850 76/414/850 487/417/850
f 74/418/851 256/407/851 488/419/851
f 256/407/852 255/405/852 488/419/852
f 255/405/853 75/416/853 488/419/853
f 5/420/854 55/422/854 489/421/854
f 55/422/855 256/407/855 489/421/855
f 256/407/856 74/418/856 489/421/856
f 55/422/857 54/424/857 490/423/857
f 54/424/858 259/412/858 490/423/858
f 259/412/859 256/407/859 490/423/859
f 54/424/860 53/427/860 491/425/860
f 53/427/861 262/426/861 491/425/861
f 262/426/862 259/412/862 491/425/862
f 53/427/863 19/53/863 492/428/863
f 19/53/864 131/51/864 492/428/864
f 131/51/865 262/426/865 492/428/865
f 262/426/866 131/51/866 493/430/866
f 131/51/867 132/49/867 493/430/867
f 132/49/868 261/429/868 493/430/868
f 261/429/869 132/49/869 494/432/869
f 132/49/870 133/47/870 494/432/870
f 133/47/871 260/431/871 494/432/871
f 260/431/872 133/47/872 495/433/872
f 133/47/873 24/46/873 495/433/873
f 24/46/874 127/395/874 495/433/874
f 257/409/875 260/431/875 496/434/875
f 260/431/876 127/395/876 496/434/876
f 127/395/877 126/392/877 496/434/877
f 254/404/878 257/409/878 497/435/878
f 257/409/879 126/392/879 497/435/879
f 126/392/880 125/390/880 497/435/880
f 264/437/881 267/442/881 498/438/881
f 267/442/882 266/441/882 498/438/882
f 266/441/883 263/436/883 498/438/883
f 265/439/884 268/444/884 499/440/884
f 268/444/885 267/442/885 499/440/885
f 267/442/886 264/437/886 499/440/886
f 267/442/887 270/457/887 500/443/887
f 270/457/888 269/459/888 500/443/888
f 269/459/889 266/441/889 500/443/889
f 268/444/890 271/455/890 501/445/890
f 271/455/891 270/457/891 501/445/891
f 270/457/892 267/442/892 501/445/892
f 142/446/893 263/436/893 502/447/893
f 263/436/894 35/127/894 502/447/894
f 35/127/895 13/125/895 502/447/895
f 141/448/896 264/437/896 503/449/896
f 264/437/897 263/436/897 503/449/897
f 263/436/898 142/446/898 503/449/898
f 140/450/899 265/439/899 504/451/899
f 265/439/900 264/437/900 504/451/900
f 264/437/901 141/448/901 504/451/901
f 25/9/902 134/33/902 505/452/902
f 134/33/903 265/439/903 505/452/903
f 265/439/904 140/450/904 505/452/904
f 134/33/905 135/31/905 506/453/905
f 135/31/906 268/444/906 506/453/906
f 268/444/907 265/439/907 506/453/907
f 135/31/908 136/29/908 507/454/908
f 136/29/909 271/455/909 507/454/909
f 271/455/910 268/444/910 507/454/910
f 136/29/911 16/533/911 508/456/911
f 16/533/912 82/543/912 508/456/912
f 82/543/913 271/455/913 508/456/913
f 271/455/914 82/543/914 509/458/914
f 82/543/915 81/544/915 509/458/915
f 81/544/916 270/457/916 509/458/916
f 270/457/917 81/544/917 510/460/917
f 81/544/918 80/545/918 510/460/918
f 80/545/919 269/459/919 510/460/919
f 269/459/920 80/545/920 511/461/920
f 80/545/921 8/534/921 511/461/921
f 8/534/922 37/132/922 511/461/922
f 266/441/923 269/459/923 512/462/923
f 269/459/924 37/132/924 512/462/924
f 37/132/925 36/129/925 512/462/925
f 263/436/926 266/441/926 513/463/926
f 266/441/927 36/129/927 513/463/927
f 36/129/928 35/127/928 513/463/928
f 273/465/929 276/470/929 514/466/929
f 276/470/930 275/469/930 514/466/930
f 275/469/931 272/464/931 514/466/931
f 274/467/932 277/472/932 515/468/932
f 277/472/933 276/470/933 515/468/933
f 276/470/934 273/465/934 515/468/934
f 276/470/935 279/489/935 516/471/935
f 279/489/936 278/491/936 516/471/936
f 278/491/937 275/469/937 516/471/937
f 277/472/938 280/486/938 517/473/938
f 280/486/939 279/489/939 517/473/939
f 279/489/940 276/470/940 517/473/940
f 28/474/941 272/464/941 518/475/941
f 272/464/942 71/230/942 518/475/942
f 71/230/943 9/228/943 518/475/943
f 27/476/944 273/465/944 519/477/944
f 273/465/945 272/464/945 519/477/945
f 272/464/946 28/474/946 519/477/946
f 26/478/947 274/467/947 520/479/947
f 274/467/948 273/465/948 520/479/948
f 273/465/949 27/476/949 520/479/949
f 10/480/950 137/482/950 521/481/950
f 137/482/951 274/467/951 521/481/951
f 274/467/952 26/478/952 521/481/952
f 137/482/953 138/484/953 522/483/953
f 138/484/954 277/472/954 522/483/954
f 277/472/955 274/467/955 522/483/955
f 138/484/956 139/487/956 523/485/956
f 139/487/957 280/486/957 523/485/957
f 280/486/958 277/472/958 523/485/958
f 139/487/959 25/9/959 524/488/959
f 25/9/960 140/450/960 524/488/960
f 140/450/961 280/486/961 524/488/961
f 280/486/962 140/450/962 525/490/962
f 140/450/963 141/448/963 525/490/963
f 141/448/964 279/489/964 525/490/964
f 279/489/965 141/448/965 526/492/965
f 141/448/966 142/446/966 526/492/966
f 142/446/967 278/491/967 526/492/967
f 278/491/968 142/446/968 527/493/968
f 142/446/969 13/125/969 527/493/969
f 13/125/970 73/235/970 527/493/970
f 275/469/971 278/491/971 528/494/971
f 278/491/972 73/235/972 528/494/972
f 73/235/973 72/232/973 528/494/973
f 272/464/974 275/469/974 529/495/974
f 275/469/975 72/232/975 529/495/975
f 72/232/976 71/230/976 529/495/976
f 282/497/977 285/502/977 530/498/977
f 285/502/978 284/501/978 530/498/978
f 284/501/979 281/496/979 530/498/979
f 283/499/980 286/504/980 531/500/980
f 286/504/981 285/502/981 531/500/981
f 285/502/982 282/497/982 531/500/982
f 285/502/983 288/521/983 532/503/983
f 288/521/984 287/523/984 532/503/984
f 287/523/985 284/501/985 532/503/985
f 286/504/986 289/518/986 533/505/986
f 289/518/987 288/521/987 533/505/987
f 288/521/988 285/502/988 533/505/988
f 64/506/989 281/496/989 534/507/989
f 281/496/990 137/482/990 534/507/990
f 137/482/991 10/480/991 534/507/991
f 63/508/992 282/497/992 535/509/992
f 282/497/993 281/496/993 535/509/993
f 281/496/994 64/506/994 535/509/994
f 62/510/995 283/499/995 536/511/995
f 283/499/996 282/497/996 536/511/996
f 282/497/997 63/508/997 536/511/997
f 4/512/998 43/514/998 537/513/998
f 43/514/999 283/499/999 537/513/999
f 283/499/1000 62/510/1000 537/513/1000
f 43/514/1001 42/516/1001 538/515/1001
f 42/516/1002 286/504/1002 538/515/1002
f 286/504/1003 283/499/1003 538/515/1003
f 42/516/1004 41/519/1004 539/517/1004
f 41/519/1005 289/518/1005 539/517/1005
f 289/518/1006 286/504/1006 539/517/1006
f 41/519/1007 15/16/1007 540/520/1007
f 15/16/1008 143/14/1008 540/520/1008
f 143/14/1009 289/518/1009 540/520/1009
f 289/518/1010 143/14/1010 541/522/1010
f 143/14/1011 144/12/1011 541/522/1011
f 144/12/1012 288/521/1012 541/522/1012
f 288/521/1013 144/12/1013 542/524/1013
f 144/12/1014 145/10/1014 542/524/1014
f 145/10/1015 287/523/1015 542/524/1015
f 287/523/1016 145/10/1016 543/525/1016
f 145/10/1017 25/9/1017 543/525/1017
f 25/9/1018 139/487/1018 543/525/1018
f 284/501/1019 287/523/1019 544/526/1019
f 287/523/1020 139/487/1020 544/526/1020
f 139/487/1021 138/484/1021 544/526/1021
f 281/496/1022 284/501/1022 545/527/1022
f 284/501/1023 138/484/1023 545/527/1023
f 138/484/1024 137/482/1024 545/527/1024
