# This file uses centimeters as units for non-parametric coordinates.

mtllib block_01.mtl
g default
v 13.983512 1.077850 5.949278
v 14.913555 0.147872 11.766315
v 12.062793 0.032956 13.170926
v 11.181961 0.691946 6.575140
v 10.753469 1.752530 -0.000012
v 13.880865 2.282805 0.000011
v 0.558120 1.057236 5.683859
v 0.000000 0.000000 0.000000
v 3.102212 0.492126 -0.000005
v 2.922401 0.948152 6.292360
v 1.698160 2.048354 12.323047
v -0.550517 2.496394 10.841137
v 13.820521 2.549611 6.144794
v 11.095166 2.325068 6.706691
v 12.167174 1.676871 13.272811
v 14.826852 1.630809 11.977009
v 10.539852 3.348654 -0.000019
v 13.660405 3.739265 0.000026
v 0.694927 2.536862 5.482040
v 3.108980 2.570307 6.150543
v 3.064474 2.122960 -0.000017
v -0.080294 1.491383 -0.000003
v 2.191817 3.595041 11.998299
v -0.146638 3.900415 10.480439
v 6.480225 4.627265 7.156777
v 7.200266 4.120897 7.300018
v 6.745377 4.370155 0.000010
v 5.990990 4.690462 -0.000014
v 7.998361 4.552653 7.259785
v 7.494080 4.868681 0.000005
v 9.266357 3.107113 7.025509
v 10.137278 2.892648 14.171881
v 8.704727 3.798758 -0.000030
v 4.998623 3.277186 6.704415
v 4.863824 3.163290 -0.000050
v 4.689576 4.017308 13.490680
v 7.105151 5.160914 14.683238
v 7.748969 4.371005 15.147597
v 8.624687 4.801569 14.860958
v 6.916271 0.736409 7.357291
v 7.844890 0.708770 7.264887
v 7.636906 0.887094 15.262080
v 6.605495 1.119550 15.601676
v 5.628072 1.305447 15.067887
v 6.009013 0.773527 7.191230
v 9.669328 0.424617 14.307496
v 9.327185 0.659330 6.968978
v 7.789178 1.255060 0.000014
v 9.047408 1.465477 -0.000015
v 4.790993 0.763835 -0.000028
v 6.036429 0.966231 0.000002
v 4.610875 0.853816 6.781679
v 3.790195 1.650018 13.774852
v 6.911576 1.109866 0.000009
v 7.405370 4.651764 14.985687
v 7.465820 4.199226 11.172582
v 8.300105 4.624250 11.028424
v 8.165118 4.472087 15.074542
v 7.328340 0.724300 7.341954
v 7.765558 0.730130 11.194967
v 7.026006 1.027157 15.532080
v 6.790420 0.857187 11.396469
v 5.851619 0.971688 11.065429
v 6.508125 0.750595 7.308863
v 6.195761 1.199962 15.448481
v 8.559948 0.676605 14.828211
v 8.534378 0.686199 7.132064
v 9.492415 0.488504 10.603655
v 7.841703 0.914112 3.563926
v 8.382670 1.354165 0.000003
v 9.181473 1.008932 3.449883
v 5.448354 0.870524 -0.000017
v 6.055775 0.802081 3.531508
v 5.356028 0.809752 7.005343
v 4.760898 0.742747 3.371026
v 4.790152 1.462126 14.478305
v 4.260494 1.185840 10.258479
v 6.943456 0.852346 3.595639
v 7.314745 1.176362 0.000022
v 6.508665 1.043553 0.000003
v 8.598636 3.788656 7.145033
v 8.068993 4.292744 -0.000022
v 9.345002 3.806974 14.527525
v 5.767082 3.904770 6.937890
v 5.909512 4.535209 14.116228
v 5.461085 3.888455 -0.000036
v 9.767442 1.586244 -0.000027
v 10.165992 0.642581 6.793760
v 10.823263 0.181382 13.764292
v 2.758831 1.844541 13.051779
v 3.829868 0.899608 6.548172
v 4.078852 0.648601 -0.000009
v 14.371106 0.587130 8.870166
v 13.445375 0.043015 12.493700
v 11.580025 0.324874 9.871121
v 12.494133 0.851843 6.283940
v 12.184179 1.994909 -0.000005
v 13.854761 1.654596 2.987014
v 10.925384 1.184662 3.285639
v 0.435013 0.492880 2.891191
v 1.683359 0.266691 0.000007
v 3.110044 0.659866 3.170656
v 1.803492 1.001308 5.999247
v 0.588481 2.267721 11.584902
v 0.159742 1.741073 8.311756
v 2.408017 1.437982 9.332190
v 12.382345 2.353409 6.447914
v 11.582841 1.965847 10.002905
v 13.447009 1.554364 12.659271
v 14.244518 2.064867 9.090141
v 10.769161 2.801746 3.366523
v 13.661304 3.119090 3.101624
v 11.987399 3.475482 0.000019
v 1.944130 2.502369 5.825222
v 3.176697 2.292606 3.103595
v 1.609631 1.778476 -0.000015
v 0.458598 1.984361 2.786269
v 2.740377 3.028646 9.102744
v 0.425434 3.188878 8.026490
v 1.004665 3.693042 11.234481
v 6.832927 4.286298 7.245554
v 6.964041 4.198801 3.598780
v 6.368720 4.453692 -0.000006
v 6.222922 4.603016 3.543776
v 7.592021 4.248994 7.297049
v 7.734798 4.657807 3.597952
v 7.120287 4.542801 -0.000010
v 10.071514 2.590936 6.890683
v 9.672842 2.955234 10.587420
v 11.066267 2.145155 13.767812
v 9.479153 3.464255 -0.000014
v 8.956572 3.408282 3.501436
v 4.123673 2.825068 6.443653
v 4.972747 3.161641 3.344523
v 4.115364 2.576007 -0.000047
v 3.434912 3.697584 12.768862
v 4.885614 3.588651 10.089896
v 6.780006 4.838246 10.885415
v 12.909759 0.416152 9.395745
v 12.279174 1.392101 3.148888
v 1.868372 0.584243 3.038318
v 1.320916 1.584759 8.830783
v 12.852019 1.923659 9.575711
v 12.122188 2.884216 3.246093
v 1.896096 2.096746 2.951511
v 1.593609 3.054026 8.568755
v 6.590723 4.320142 3.576501
v 7.346653 4.347534 3.603580
v 10.531260 2.328040 10.330505
v 9.737669 2.987586 3.446592
v 4.184716 2.642209 3.232927
v 3.844512 3.202995 9.617361
v 7.109034 4.419182 11.069368
v 7.869076 4.312180 11.140865
v 7.206728 0.805094 11.357665
v 6.381125 0.905821 11.300936
v 8.558976 0.619799 10.927347
v 8.470302 0.958581 3.513268
v 5.446517 0.773408 3.458888
v 5.117398 1.069209 10.698057
v 7.351098 0.879693 3.591619
v 6.537560 0.827614 3.576697
v 8.313522 3.991827 3.550329
v 8.951541 3.748935 10.814065
v 5.853616 4.162529 10.504559
v 5.629407 3.839149 3.446414
v 9.942494 1.069269 3.380339
v 10.470417 0.366845 10.262510
v 3.371283 1.307145 9.804134
v 4.031311 0.709176 3.278231
vn 0.781398 -0.544937 0.304072
vn 0.740075 0.509449 0.439035
vn 0.336464 0.627617 0.702061
vn 0.313397 -0.774381 0.549650
vn 0.313397 -0.774381 0.549650
vn 0.336464 0.627617 0.702061
vn 0.448501 0.610476 0.652814
vn 0.248127 -0.768289 0.590056
vn 0.248127 -0.768289 0.590056
vn 0.448501 0.610476 0.652814
vn 0.595024 0.542166 0.593298
vn 0.169777 -0.751813 0.637144
vn 0.169777 -0.751813 0.637144
vn 0.595024 0.542166 0.593298
vn 0.697718 0.459096 0.549927
vn 0.146442 -0.734819 0.662265
vn 0.146442 -0.734819 0.662265
vn 0.697718 0.459096 0.549927
vn 0.753793 0.394617 0.525428
vn 0.154042 -0.723946 0.672439
vn 0.154042 -0.723946 0.672439
vn 0.753793 0.394617 0.525428
vn 0.432232 0.561035 0.705985
vn 0.158640 -0.717265 0.678501
vn 0.158640 -0.717265 0.678501
vn 0.432232 0.561035 0.705985
vn -0.115594 0.679773 0.724256
vn 0.100753 -0.695381 0.711544
vn 0.100753 -0.695381 0.711544
vn -0.115594 0.679773 0.724256
vn 0.105491 0.771291 0.627680
vn -0.200831 -0.604641 0.770763
vn -0.200831 -0.604641 0.770763
vn 0.105491 0.771291 0.627680
vn 0.365884 0.664080 0.652017
vn -0.493611 -0.528606 0.690597
vn -0.493611 -0.528606 0.690597
vn 0.365884 0.664080 0.652017
vn -0.236333 0.753911 0.612997
vn -0.553822 -0.512167 0.656480
vn -0.553822 -0.512167 0.656480
vn -0.236333 0.753911 0.612997
vn -0.559883 0.713080 0.421958
vn -0.556496 -0.505224 0.659591
vn -0.556496 -0.505224 0.659591
vn -0.559883 0.713080 0.421958
vn -0.489758 0.773698 0.401907
vn -0.559236 -0.494069 0.665696
vn -0.559236 -0.494069 0.665696
vn -0.489758 0.773698 0.401907
vn -0.383233 0.833138 0.398765
vn -0.559810 -0.478705 0.676354
vn -0.559810 -0.478705 0.676354
vn -0.383233 0.833138 0.398765
vn -0.261713 0.871145 0.415466
vn -0.555211 -0.460168 0.692810
vn -0.555211 -0.460168 0.692810
vn -0.261713 0.871145 0.415466
vn -0.157137 0.886240 0.435760
vn -0.550278 -0.440914 0.709076
vn -0.550278 -0.440914 0.709076
vn -0.157137 0.886240 0.435760
vn -0.591027 0.787614 0.174215
vn -0.906145 -0.221586 0.360278
vn -0.906145 -0.221586 0.360278
vn -0.591027 0.787614 0.174215
vn -0.535314 0.782582 -0.317812
vn -0.818971 -0.572976 -0.031371
vn -0.818971 -0.572976 -0.031371
vn -0.535314 0.782582 -0.317812
vn -0.636204 0.751477 -0.174719
vn -0.771091 -0.628267 0.103437
vn -0.771091 -0.628267 0.103437
vn -0.636204 0.751477 -0.174719
vn -0.715487 0.698475 -0.014549
vn -0.687401 -0.697185 0.203500
vn -0.687401 -0.697185 0.203500
vn -0.715487 0.698475 -0.014549
vn -0.652184 0.539038 -0.533006
vn -0.558450 -0.687916 -0.463578
vn -0.558450 -0.687916 -0.463578
vn -0.652184 0.539038 -0.533006
vn -0.123220 0.666724 -0.735048
vn 0.111306 -0.728467 -0.675978
vn 0.111306 -0.728467 -0.675978
vn -0.123220 0.666724 -0.735048
vn -0.204223 0.664576 -0.718771
vn 0.109515 -0.714208 -0.691312
vn 0.109515 -0.714208 -0.691312
vn -0.204223 0.664576 -0.718771
vn -0.358156 0.610284 -0.706596
vn 0.108411 -0.703344 -0.702534
vn 0.108411 -0.703344 -0.702534
vn -0.358156 0.610284 -0.706596
vn -0.507924 0.507055 -0.696354
vn 0.107437 -0.694556 -0.711372
vn 0.107437 -0.694556 -0.711372
vn -0.507924 0.507055 -0.696354
vn -0.589203 0.423088 -0.688358
vn 0.106471 -0.686525 -0.719269
vn 0.106471 -0.686525 -0.719269
vn -0.589203 0.423088 -0.688358
vn -0.111066 0.569323 -0.814577
vn 0.106135 -0.679631 -0.725836
vn 0.106135 -0.679631 -0.725836
vn -0.111066 0.569323 -0.814577
vn 0.316878 0.636071 -0.703564
vn 0.106453 -0.674332 -0.730715
vn 0.106453 -0.674332 -0.730715
vn 0.316878 0.636071 -0.703564
vn -0.081976 0.722397 -0.686602
vn 0.106217 -0.670118 -0.734615
vn 0.106217 -0.670118 -0.734615
vn -0.081976 0.722397 -0.686602
vn -0.433426 0.594987 -0.676854
vn 0.105920 -0.666088 -0.738314
vn 0.105920 -0.666088 -0.738314
vn -0.433426 0.594987 -0.676854
vn 0.019025 0.595051 -0.803462
vn 0.105773 -0.661149 -0.742761
vn 0.105773 -0.661149 -0.742761
vn 0.019025 0.595051 -0.803462
vn 0.486405 0.522794 -0.700070
vn 0.105220 -0.654658 -0.748566
vn 0.105220 -0.654658 -0.748566
vn 0.486405 0.522794 -0.700070
vn 0.387212 0.616880 -0.685220
vn 0.103961 -0.647123 -0.755264
vn 0.103961 -0.647123 -0.755264
vn 0.387212 0.616880 -0.685220
vn 0.194473 0.721735 -0.664288
vn 0.103920 -0.639116 -0.762058
vn 0.103920 -0.639116 -0.762058
vn 0.194473 0.721735 -0.664288
vn -0.004534 0.762755 -0.646672
vn 0.105130 -0.631970 -0.767829
vn 0.105130 -0.631970 -0.767829
vn -0.004534 0.762755 -0.646672
vn -0.102719 0.762711 -0.638531
vn 0.105383 -0.626759 -0.772054
vn 0.105383 -0.626759 -0.772054
vn -0.102719 0.762711 -0.638531
vn 0.521131 0.703046 -0.483889
vn 0.631082 -0.448497 -0.632919
vn 0.631082 -0.448497 -0.632919
vn 0.521131 0.703046 -0.483889
vn 0.604258 0.783952 0.142447
vn 0.797081 -0.590244 -0.127568
vn 0.797081 -0.590244 -0.127568
vn 0.604258 0.783952 0.142447
vn 0.623654 0.778049 0.075470
vn 0.776346 -0.604920 -0.177083
vn 0.776346 -0.604920 -0.177083
vn 0.623654 0.778049 0.075470
vn 0.643402 0.765528 0.000623
vn 0.746651 -0.626567 -0.223443
vn 0.746651 -0.626567 -0.223443
vn 0.643402 0.765528 0.000623
vn 0.740075 0.509449 0.439035
vn 0.781398 -0.544937 0.304072
vn 0.776346 -0.604920 -0.177083
vn 0.746651 -0.626567 -0.223443
vn 0.052530 -0.989578 -0.134076
vn 0.103121 -0.981114 -0.163653
vn 0.746651 -0.626567 -0.223443
vn 0.781398 -0.544937 0.304072
vn 0.313397 -0.774381 0.549650
vn 0.052530 -0.989578 -0.134076
vn 0.052530 -0.989578 -0.134076
vn 0.313397 -0.774381 0.549650
vn 0.248127 -0.768289 0.590056
vn -0.013326 -0.995496 -0.093864
vn 0.103121 -0.981114 -0.163653
vn 0.052530 -0.989578 -0.134076
vn -0.013326 -0.995496 -0.093864
vn 0.059151 -0.989081 -0.134978
vn 0.105130 -0.631970 -0.767829
vn 0.105383 -0.626759 -0.772054
vn 0.139058 -0.972670 -0.185947
vn 0.118342 -0.978533 -0.168726
vn 0.139058 -0.972670 -0.185947
vn 0.105383 -0.626759 -0.772054
vn 0.631082 -0.448497 -0.632919
vn 0.797081 -0.590244 -0.127568
vn 0.139058 -0.972670 -0.185947
vn 0.797081 -0.590244 -0.127568
vn 0.776346 -0.604920 -0.177083
vn 0.103121 -0.981114 -0.163653
vn 0.118342 -0.978533 -0.168726
vn 0.139058 -0.972670 -0.185947
vn 0.103121 -0.981114 -0.163653
vn 0.059151 -0.989081 -0.134978
vn -0.771091 -0.628267 0.103437
vn -0.687401 -0.697185 0.203500
vn 0.050525 -0.992205 0.113913
vn -0.086227 -0.983082 0.161598
vn -0.687401 -0.697185 0.203500
vn -0.558450 -0.687916 -0.463578
vn 0.111306 -0.728467 -0.675978
vn 0.050525 -0.992205 0.113913
vn 0.050525 -0.992205 0.113913
vn 0.111306 -0.728467 -0.675978
vn 0.109515 -0.714208 -0.691312
vn 0.050132 -0.996511 0.066732
vn -0.086227 -0.983082 0.161598
vn 0.050525 -0.992205 0.113913
vn 0.050132 -0.996511 0.066732
vn -0.080985 -0.989967 0.115786
vn -0.555211 -0.460168 0.692810
vn -0.550278 -0.440914 0.709076
vn -0.208973 -0.961956 0.175986
vn -0.198320 -0.969895 0.141327
vn -0.208973 -0.961956 0.175986
vn -0.550278 -0.440914 0.709076
vn -0.906145 -0.221586 0.360278
vn -0.818971 -0.572976 -0.031371
vn -0.208973 -0.961956 0.175986
vn -0.818971 -0.572976 -0.031371
vn -0.771091 -0.628267 0.103437
vn -0.086227 -0.983082 0.161598
vn -0.198320 -0.969895 0.141327
vn -0.208973 -0.961956 0.175986
vn -0.086227 -0.983082 0.161598
vn -0.080985 -0.989967 0.115786
vn 0.643402 0.765528 0.000623
vn 0.623654 0.778049 0.075470
vn -0.066504 0.985331 0.157165
vn -0.014467 0.991763 0.127268
vn -0.014467 0.991763 0.127268
vn -0.066504 0.985331 0.157165
vn 0.116581 0.987071 0.109999
vn 0.184877 0.980780 0.062382
vn -0.014467 0.991763 0.127268
vn 0.184877 0.980780 0.062382
vn 0.448501 0.610476 0.652814
vn 0.336464 0.627617 0.702061
vn 0.740075 0.509449 0.439035
vn 0.643402 0.765528 0.000623
vn -0.014467 0.991763 0.127268
vn 0.336464 0.627617 0.702061
vn 0.049954 0.987429 0.149960
vn -0.105102 0.978294 0.178590
vn -0.102719 0.762711 -0.638531
vn -0.004534 0.762755 -0.646672
vn 0.116581 0.987071 0.109999
vn -0.066504 0.985331 0.157165
vn -0.105102 0.978294 0.178590
vn 0.049954 0.987429 0.149960
vn -0.105102 0.978294 0.178590
vn -0.066504 0.985331 0.157165
vn 0.623654 0.778049 0.075470
vn 0.604258 0.783952 0.142447
vn -0.102719 0.762711 -0.638531
vn -0.105102 0.978294 0.178590
vn 0.604258 0.783952 0.142447
vn 0.521131 0.703046 -0.483889
vn -0.715487 0.698475 -0.014549
vn -0.636204 0.751477 -0.174719
vn 0.045628 0.985171 -0.165397
vn -0.087428 0.989913 -0.111485
vn -0.087428 0.989913 -0.111485
vn 0.045628 0.985171 -0.165397
vn -0.102090 0.986450 -0.128431
vn -0.217685 0.974085 -0.061414
vn -0.087428 0.989913 -0.111485
vn -0.217685 0.974085 -0.061414
vn -0.204223 0.664576 -0.718771
vn -0.123220 0.666724 -0.735048
vn -0.652184 0.539038 -0.533006
vn -0.715487 0.698475 -0.014549
vn -0.087428 0.989913 -0.111485
vn -0.123220 0.666724 -0.735048
vn 0.023949 0.984284 -0.174964
vn 0.168640 0.967722 -0.187281
vn -0.157137 0.886240 0.435760
vn -0.261713 0.871145 0.415466
vn -0.102090 0.986450 -0.128431
vn 0.045628 0.985171 -0.165397
vn 0.168640 0.967722 -0.187281
vn 0.023949 0.984284 -0.174964
vn 0.168640 0.967722 -0.187281
vn 0.045628 0.985171 -0.165397
vn -0.636204 0.751477 -0.174719
vn -0.535314 0.782582 -0.317812
vn -0.157137 0.886240 0.435760
vn 0.168640 0.967722 -0.187281
vn -0.535314 0.782582 -0.317812
vn -0.591027 0.787614 0.174215
vn 0.004405 0.999435 -0.033328
vn 0.625410 0.778458 -0.053533
vn 0.526387 0.850189 -0.009798
vn -0.114132 0.993240 0.021163
vn 0.526387 0.850189 -0.009798
vn 0.625410 0.778458 -0.053533
vn 0.049545 0.998766 -0.003366
vn -0.037422 0.998468 0.040754
vn 0.526387 0.850189 -0.009798
vn -0.037422 0.998468 0.040754
vn -0.081976 0.722397 -0.686602
vn 0.316878 0.636071 -0.703564
vn -0.114132 0.993240 0.021163
vn 0.526387 0.850189 -0.009798
vn 0.316878 0.636071 -0.703564
vn -0.111066 0.569323 -0.814577
vn -0.037422 0.998468 0.040754
vn 0.049545 0.998766 -0.003366
vn -0.517896 0.854512 0.039909
vn -0.550497 0.831682 0.072511
vn -0.550497 0.831682 0.072511
vn -0.517896 0.854512 0.039909
vn 0.117794 0.993029 -0.004278
vn 0.081779 0.995721 0.043026
vn -0.550497 0.831682 0.072511
vn 0.081779 0.995721 0.043026
vn 0.019025 0.595051 -0.803462
vn -0.433426 0.594987 -0.676854
vn -0.081976 0.722397 -0.686602
vn -0.037422 0.998468 0.040754
vn -0.550497 0.831682 0.072511
vn -0.433426 0.594987 -0.676854
vn 0.448501 0.610476 0.652814
vn 0.184877 0.980780 0.062382
vn 0.471714 0.881605 -0.016105
vn 0.595024 0.542166 0.593298
vn 0.184877 0.980780 0.062382
vn 0.116581 0.987071 0.109999
vn 0.415426 0.908781 0.039213
vn 0.471714 0.881605 -0.016105
vn 0.471714 0.881605 -0.016105
vn 0.415426 0.908781 0.039213
vn 0.644152 0.764727 -0.016179
vn 0.669250 0.740271 -0.064055
vn 0.595024 0.542166 0.593298
vn 0.471714 0.881605 -0.016105
vn 0.669250 0.740271 -0.064055
vn 0.697718 0.459096 0.549927
vn 0.644152 0.764727 -0.016179
vn 0.415426 0.908781 0.039213
vn 0.339392 0.935914 0.094224
vn 0.595400 0.802604 0.036420
vn 0.339392 0.935914 0.094224
vn 0.415426 0.908781 0.039213
vn 0.116581 0.987071 0.109999
vn 0.049954 0.987429 0.149960
vn 0.339392 0.935914 0.094224
vn 0.049954 0.987429 0.149960
vn -0.004534 0.762755 -0.646672
vn 0.194473 0.721735 -0.664288
vn 0.595400 0.802604 0.036420
vn 0.339392 0.935914 0.094224
vn 0.194473 0.721735 -0.664288
vn 0.387212 0.616880 -0.685220
vn -0.204223 0.664576 -0.718771
vn -0.217685 0.974085 -0.061414
vn -0.438345 0.898434 -0.025867
vn -0.358156 0.610284 -0.706596
vn -0.217685 0.974085 -0.061414
vn -0.102090 0.986450 -0.128431
vn -0.325319 0.940314 -0.099882
vn -0.438345 0.898434 -0.025867
vn -0.438345 0.898434 -0.025867
vn -0.325319 0.940314 -0.099882
vn -0.544542 0.836587 -0.059968
vn -0.649539 0.760294 0.007147
vn -0.358156 0.610284 -0.706596
vn -0.438345 0.898434 -0.025867
vn -0.649539 0.760294 0.007147
vn -0.507924 0.507055 -0.696354
vn -0.544542 0.836587 -0.059968
vn -0.325319 0.940314 -0.099882
vn -0.179428 0.970567 -0.160639
vn -0.389986 0.912449 -0.123887
vn -0.179428 0.970567 -0.160639
vn -0.325319 0.940314 -0.099882
vn -0.102090 0.986450 -0.128431
vn 0.023949 0.984284 -0.174964
vn -0.179428 0.970567 -0.160639
vn 0.023949 0.984284 -0.174964
vn -0.261713 0.871145 0.415466
vn -0.383233 0.833138 0.398765
vn -0.389986 0.912449 -0.123887
vn -0.179428 0.970567 -0.160639
vn -0.383233 0.833138 0.398765
vn -0.489758 0.773698 0.401907
vn 0.049545 0.998766 -0.003366
vn 0.625410 0.778458 -0.053533
vn 0.737585 0.669327 -0.089270
vn 0.143522 0.988607 -0.045369
vn 0.737585 0.669327 -0.089270
vn 0.625410 0.778458 -0.053533
vn 0.004405 0.999435 -0.033328
vn 0.168423 0.981640 -0.089538
vn 0.737585 0.669327 -0.089270
vn 0.168423 0.981640 -0.089538
vn -0.236333 0.753911 0.612997
vn 0.365884 0.664080 0.652017
vn 0.143522 0.988607 -0.045369
vn 0.737585 0.669327 -0.089270
vn 0.365884 0.664080 0.652017
vn 0.105491 0.771291 0.627680
vn 0.130065 0.990361 -0.047619
vn -0.501047 0.865374 0.008921
vn -0.115594 0.679773 0.724256
vn 0.432232 0.561035 0.705985
vn 0.117794 0.993029 -0.004278
vn -0.517896 0.854512 0.039909
vn -0.501047 0.865374 0.008921
vn 0.130065 0.990361 -0.047619
vn -0.501047 0.865374 0.008921
vn -0.517896 0.854512 0.039909
vn 0.049545 0.998766 -0.003366
vn 0.143522 0.988607 -0.045369
vn -0.115594 0.679773 0.724256
vn -0.501047 0.865374 0.008921
vn 0.143522 0.988607 -0.045369
vn 0.105491 0.771291 0.627680
vn -0.030841 -0.999524 -0.000022
vn -0.030007 -0.999498 -0.010208
vn -0.120606 -0.991999 0.037301
vn -0.122520 -0.991379 0.046433
vn -0.120606 -0.991999 0.037301
vn -0.030007 -0.999498 -0.010208
vn -0.035845 -0.999057 -0.024505
vn -0.128202 -0.991461 0.023859
vn -0.120606 -0.991999 0.037301
vn -0.128202 -0.991461 0.023859
vn 0.158640 -0.717265 0.678501
vn 0.100753 -0.695381 0.711544
vn -0.122520 -0.991379 0.046433
vn -0.120606 -0.991999 0.037301
vn 0.100753 -0.695381 0.711544
vn -0.200831 -0.604641 0.770763
vn -0.158129 -0.985362 0.063694
vn -0.138424 -0.988892 0.054152
vn -0.493611 -0.528606 0.690597
vn -0.553822 -0.512167 0.656480
vn -0.056974 -0.998157 0.020913
vn -0.041367 -0.999101 0.009251
vn -0.138424 -0.988892 0.054152
vn -0.158129 -0.985362 0.063694
vn -0.138424 -0.988892 0.054152
vn -0.041367 -0.999101 0.009251
vn -0.030841 -0.999524 -0.000022
vn -0.122520 -0.991379 0.046433
vn -0.493611 -0.528606 0.690597
vn -0.138424 -0.988892 0.054152
vn -0.122520 -0.991379 0.046433
vn -0.200831 -0.604641 0.770763
vn 0.146442 -0.734819 0.662265
vn 0.154042 -0.723946 0.672439
vn -0.137373 -0.990510 0.004241
vn -0.146242 -0.989048 -0.019952
vn -0.137373 -0.990510 0.004241
vn 0.154042 -0.723946 0.672439
vn 0.158640 -0.717265 0.678501
vn -0.128202 -0.991461 0.023859
vn -0.137373 -0.990510 0.004241
vn -0.128202 -0.991461 0.023859
vn -0.035845 -0.999057 -0.024505
vn -0.042641 -0.998070 -0.045137
vn -0.146242 -0.989048 -0.019952
vn -0.137373 -0.990510 0.004241
vn -0.042641 -0.998070 -0.045137
vn -0.048595 -0.996336 -0.070382
vn 0.064378 -0.994546 -0.082054
vn 0.061487 -0.993034 -0.100513
vn -0.042641 -0.998070 -0.045137
vn -0.035845 -0.999057 -0.024505
vn 0.105773 -0.661149 -0.742761
vn 0.105220 -0.654658 -0.748566
vn 0.061487 -0.993034 -0.100513
vn 0.064378 -0.994546 -0.082054
vn 0.061487 -0.993034 -0.100513
vn 0.105220 -0.654658 -0.748566
vn 0.103961 -0.647123 -0.755264
vn 0.058995 -0.990735 -0.122331
vn -0.042641 -0.998070 -0.045137
vn 0.061487 -0.993034 -0.100513
vn 0.058995 -0.990735 -0.122331
vn -0.048595 -0.996336 -0.070382
vn 0.107437 -0.694556 -0.711372
vn 0.106471 -0.686525 -0.719269
vn 0.047276 -0.998776 -0.014543
vn 0.043348 -0.999030 0.007765
vn 0.047276 -0.998776 -0.014543
vn 0.106471 -0.686525 -0.719269
vn 0.106135 -0.679631 -0.725836
vn 0.053033 -0.998046 -0.033053
vn 0.047276 -0.998776 -0.014543
vn 0.053033 -0.998046 -0.033053
vn -0.056974 -0.998157 0.020913
vn -0.068938 -0.996913 0.037578
vn 0.043348 -0.999030 0.007765
vn 0.047276 -0.998776 -0.014543
vn -0.068938 -0.996913 0.037578
vn -0.077009 -0.995319 0.058395
vn -0.056974 -0.998157 0.020913
vn -0.158129 -0.985362 0.063694
vn -0.172098 -0.982028 0.077481
vn -0.068938 -0.996913 0.037578
vn -0.158129 -0.985362 0.063694
vn -0.553822 -0.512167 0.656480
vn -0.556496 -0.505224 0.659591
vn -0.172098 -0.982028 0.077481
vn -0.172098 -0.982028 0.077481
vn -0.556496 -0.505224 0.659591
vn -0.559236 -0.494069 0.665696
vn -0.182422 -0.978633 0.094872
vn -0.068938 -0.996913 0.037578
vn -0.172098 -0.982028 0.077481
vn -0.182422 -0.978633 0.094872
vn -0.077009 -0.995319 0.058395
vn 0.064378 -0.994546 -0.082054
vn -0.035845 -0.999057 -0.024505
vn -0.030007 -0.999498 -0.010208
vn 0.066306 -0.995453 -0.068385
vn 0.066306 -0.995453 -0.068385
vn -0.030007 -0.999498 -0.010208
vn -0.030841 -0.999524 -0.000022
vn 0.065271 -0.996209 -0.057511
vn 0.066306 -0.995453 -0.068385
vn 0.065271 -0.996209 -0.057511
vn 0.106217 -0.670118 -0.734615
vn 0.105920 -0.666088 -0.738314
vn 0.105773 -0.661149 -0.742761
vn 0.064378 -0.994546 -0.082054
vn 0.066306 -0.995453 -0.068385
vn 0.105920 -0.666088 -0.738314
vn 0.065271 -0.996209 -0.057511
vn -0.030841 -0.999524 -0.000022
vn -0.041367 -0.999101 0.009251
vn 0.060348 -0.997086 -0.046667
vn 0.060348 -0.997086 -0.046667
vn -0.041367 -0.999101 0.009251
vn -0.056974 -0.998157 0.020913
vn 0.053033 -0.998046 -0.033053
vn 0.060348 -0.997086 -0.046667
vn 0.053033 -0.998046 -0.033053
vn 0.106135 -0.679631 -0.725836
vn 0.106453 -0.674332 -0.730715
vn 0.106217 -0.670118 -0.734615
vn 0.065271 -0.996209 -0.057511
vn 0.060348 -0.997086 -0.046667
vn 0.106453 -0.674332 -0.730715
vn 0.081779 0.995721 0.043026
vn 0.117794 0.993029 -0.004278
vn 0.759107 0.649414 -0.044927
vn 0.728306 0.685251 -0.001220
vn 0.728306 0.685251 -0.001220
vn 0.759107 0.649414 -0.044927
vn 0.644152 0.764727 -0.016179
vn 0.595400 0.802604 0.036420
vn 0.728306 0.685251 -0.001220
vn 0.595400 0.802604 0.036420
vn 0.387212 0.616880 -0.685220
vn 0.486405 0.522794 -0.700070
vn 0.019025 0.595051 -0.803462
vn 0.081779 0.995721 0.043026
vn 0.728306 0.685251 -0.001220
vn 0.486405 0.522794 -0.700070
vn 0.697718 0.459096 0.549927
vn 0.669250 0.740271 -0.064055
vn 0.769062 0.633726 -0.083271
vn 0.753793 0.394617 0.525428
vn 0.669250 0.740271 -0.064055
vn 0.644152 0.764727 -0.016179
vn 0.759107 0.649414 -0.044927
vn 0.769062 0.633726 -0.083271
vn 0.769062 0.633726 -0.083271
vn 0.759107 0.649414 -0.044927
vn 0.117794 0.993029 -0.004278
vn 0.130065 0.990361 -0.047619
vn 0.753793 0.394617 0.525428
vn 0.769062 0.633726 -0.083271
vn 0.130065 0.990361 -0.047619
vn 0.432232 0.561035 0.705985
vn 0.168423 0.981640 -0.089538
vn 0.004405 0.999435 -0.033328
vn -0.684211 0.729190 -0.011679
vn -0.542751 0.837155 -0.067770
vn -0.542751 0.837155 -0.067770
vn -0.684211 0.729190 -0.011679
vn -0.544542 0.836587 -0.059968
vn -0.389986 0.912449 -0.123887
vn -0.542751 0.837155 -0.067770
vn -0.389986 0.912449 -0.123887
vn -0.489758 0.773698 0.401907
vn -0.559883 0.713080 0.421958
vn -0.236333 0.753911 0.612997
vn 0.168423 0.981640 -0.089538
vn -0.542751 0.837155 -0.067770
vn -0.559883 0.713080 0.421958
vn -0.507924 0.507055 -0.696354
vn -0.649539 0.760294 0.007147
vn -0.768758 0.638466 0.037056
vn -0.589203 0.423088 -0.688358
vn -0.649539 0.760294 0.007147
vn -0.544542 0.836587 -0.059968
vn -0.684211 0.729190 -0.011679
vn -0.768758 0.638466 0.037056
vn -0.768758 0.638466 0.037056
vn -0.684211 0.729190 -0.011679
vn 0.004405 0.999435 -0.033328
vn -0.114132 0.993240 0.021163
vn -0.589203 0.423088 -0.688358
vn -0.768758 0.638466 0.037056
vn -0.114132 0.993240 0.021163
vn -0.111066 0.569323 -0.814577
vn -0.048595 -0.996336 -0.070382
vn 0.058995 -0.990735 -0.122331
vn 0.079293 -0.986109 -0.145948
vn -0.015324 -0.994834 -0.100355
vn 0.058995 -0.990735 -0.122331
vn 0.103961 -0.647123 -0.755264
vn 0.103920 -0.639116 -0.762058
vn 0.079293 -0.986109 -0.145948
vn 0.079293 -0.986109 -0.145948
vn 0.103920 -0.639116 -0.762058
vn 0.105130 -0.631970 -0.767829
vn 0.118342 -0.978533 -0.168726
vn -0.015324 -0.994834 -0.100355
vn 0.079293 -0.986109 -0.145948
vn 0.118342 -0.978533 -0.168726
vn 0.059151 -0.989081 -0.134978
vn -0.013326 -0.995496 -0.093864
vn 0.248127 -0.768289 0.590056
vn 0.169777 -0.751813 0.637144
vn -0.109928 -0.992642 -0.050777
vn -0.109928 -0.992642 -0.050777
vn 0.169777 -0.751813 0.637144
vn 0.146442 -0.734819 0.662265
vn -0.146242 -0.989048 -0.019952
vn -0.109928 -0.992642 -0.050777
vn -0.146242 -0.989048 -0.019952
vn -0.048595 -0.996336 -0.070382
vn -0.015324 -0.994834 -0.100355
vn 0.059151 -0.989081 -0.134978
vn -0.013326 -0.995496 -0.093864
vn -0.109928 -0.992642 -0.050777
vn -0.015324 -0.994834 -0.100355
vn -0.077009 -0.995319 0.058395
vn -0.182422 -0.978633 0.094872
vn -0.190722 -0.974863 0.115183
vn -0.080559 -0.993301 0.082850
vn -0.182422 -0.978633 0.094872
vn -0.559236 -0.494069 0.665696
vn -0.559810 -0.478705 0.676354
vn -0.190722 -0.974863 0.115183
vn -0.190722 -0.974863 0.115183
vn -0.559810 -0.478705 0.676354
vn -0.555211 -0.460168 0.692810
vn -0.198320 -0.969895 0.141327
vn -0.080559 -0.993301 0.082850
vn -0.190722 -0.974863 0.115183
vn -0.198320 -0.969895 0.141327
vn -0.080985 -0.989967 0.115786
vn 0.050132 -0.996511 0.066732
vn 0.109515 -0.714208 -0.691312
vn 0.108411 -0.703344 -0.702534
vn 0.044758 -0.998449 0.033122
vn 0.044758 -0.998449 0.033122
vn 0.108411 -0.703344 -0.702534
vn 0.107437 -0.694556 -0.711372
vn 0.043348 -0.999030 0.007765
vn 0.044758 -0.998449 0.033122
vn 0.043348 -0.999030 0.007765
vn -0.077009 -0.995319 0.058395
vn -0.080559 -0.993301 0.082850
vn -0.080985 -0.989967 0.115786
vn 0.050132 -0.996511 0.066732
vn 0.044758 -0.998449 0.033122
vn -0.080559 -0.993301 0.082850
s off
g block0:Mesh
usemtl initialShadingGroup
f 2//1 16//2 109//3 94//4
f 94//5 109//6 15//7 3//8
f 3//9 15//10 130//11 89//12
f 89//13 130//14 32//15 46//16
f 46//17 32//18 83//19 66//20
f 66//21 83//22 39//23 42//24
f 42//25 39//26 58//27 61//28
f 61//29 58//30 38//31 43//32
f 43//33 38//34 55//35 65//36
f 65//37 55//38 37//39 44//40
f 44//41 37//42 85//43 76//44
f 76//45 85//46 36//47 53//48
f 53//49 36//50 136//51 90//52
f 90//53 136//54 23//55 11//56
f 11//57 23//58 120//59 104//60
f 104//61 120//62 24//63 12//64
f 12//65 24//66 119//67 105//68
f 105//69 119//70 19//71 7//72
f 7//73 19//74 117//75 100//76
f 100//77 117//78 22//79 8//80
f 8//81 22//82 116//83 101//84
f 101//85 116//86 21//87 9//88
f 9//89 21//90 135//91 92//92
f 92//93 135//94 35//95 50//96
f 50//97 35//98 86//99 72//100
f 72//101 86//102 28//103 51//104
f 51//105 28//106 123//107 80//108
f 80//109 123//110 27//111 54//112
f 54//113 27//114 127//115 79//116
f 79//117 127//118 30//119 48//120
f 48//121 30//122 82//123 70//124
f 70//125 82//126 33//127 49//128
f 49//129 33//130 131//131 87//132
f 87//133 131//134 17//135 5//136
f 5//137 17//138 113//139 97//140
f 97//141 113//142 18//143 6//144
f 6//145 18//146 112//147 98//148
f 98//149 112//150 13//151 1//152
f 1//153 13//154 110//155 93//156
f 93//157 110//158 16//159 2//160
f 1//161 93//162 139//163 96//164
f 93//165 2//166 94//167 139//168
f 139//169 94//170 3//171 95//172
f 96//173 139//174 95//175 4//176
f 5//177 97//178 140//179 99//180
f 140//181 97//182 6//183 98//184
f 140//185 98//186 1//187 96//188
f 99//189 140//190 96//191 4//192
f 7//193 100//194 141//195 103//196
f 100//197 8//198 101//199 141//200
f 141//201 101//202 9//203 102//204
f 103//205 141//206 102//207 10//208
f 11//209 104//210 142//211 106//212
f 142//213 104//214 12//215 105//216
f 142//217 105//218 7//219 103//220
f 106//221 142//222 103//223 10//224
f 110//225 13//226 107//227 143//228
f 143//229 107//230 14//231 108//232
f 143//233 108//234 15//235 109//236
f 16//237 110//238 143//239 109//240
f 111//241 144//242 113//243 17//244
f 14//245 107//246 144//247 111//248
f 144//249 107//250 13//251 112//252
f 113//253 144//254 112//255 18//256
f 117//257 19//258 114//259 145//260
f 145//261 114//262 20//263 115//264
f 145//265 115//266 21//267 116//268
f 22//269 117//270 145//271 116//272
f 118//273 146//274 120//275 23//276
f 20//277 114//278 146//279 118//280
f 146//281 114//282 19//283 119//284
f 120//285 146//286 119//287 24//288
f 25//289 121//290 147//291 124//292
f 147//293 121//294 26//295 122//296
f 147//297 122//298 27//299 123//300
f 124//301 147//302 123//303 28//304
f 122//305 26//306 125//307 148//308
f 148//309 125//310 29//311 126//312
f 148//313 126//314 30//315 127//316
f 27//317 122//318 148//319 127//320
f 15//321 108//322 149//323 130//324
f 108//325 14//326 128//327 149//328
f 149//329 128//330 31//331 129//332
f 130//333 149//334 129//335 32//336
f 31//337 128//338 150//339 132//340
f 150//341 128//342 14//343 111//344
f 150//345 111//346 17//347 131//348
f 132//349 150//350 131//351 33//352
f 21//353 115//354 151//355 135//356
f 115//357 20//358 133//359 151//360
f 151//361 133//362 34//363 134//364
f 135//365 151//366 134//367 35//368
f 34//369 133//370 152//371 137//372
f 152//373 133//374 20//375 118//376
f 152//377 118//378 23//379 136//380
f 137//381 152//382 136//383 36//384
f 26//385 121//386 153//387 56//388
f 153//389 121//390 25//391 138//392
f 153//393 138//394 37//395 55//396
f 56//397 153//398 55//399 38//400
f 57//401 154//402 58//403 39//404
f 29//405 125//406 154//407 57//408
f 154//409 125//410 26//411 56//412
f 58//413 154//414 56//415 38//416
f 40//417 59//418 155//419 62//420
f 155//421 59//422 41//423 60//424
f 155//425 60//426 42//427 61//428
f 62//429 155//430 61//431 43//432
f 63//433 156//434 65//435 44//436
f 45//437 64//438 156//439 63//440
f 156//441 64//442 40//443 62//444
f 65//445 156//446 62//447 43//448
f 46//449 66//450 157//451 68//452
f 157//453 66//454 42//455 60//456
f 157//457 60//458 41//459 67//460
f 68//461 157//462 67//463 47//464
f 69//465 158//466 67//467 41//468
f 48//469 70//470 158//471 69//472
f 158//473 70//474 49//475 71//476
f 67//477 158//478 71//479 47//480
f 50//481 72//482 159//483 75//484
f 159//485 72//486 51//487 73//488
f 159//489 73//490 45//491 74//492
f 75//493 159//494 74//495 52//496
f 45//497 63//498 160//499 74//500
f 63//501 44//502 76//503 160//504
f 160//505 76//506 53//507 77//508
f 74//509 160//510 77//511 52//512
f 69//513 41//514 59//515 161//516
f 161//517 59//518 40//519 78//520
f 161//521 78//522 54//523 79//524
f 48//525 69//526 161//527 79//528
f 78//529 40//530 64//531 162//532
f 162//533 64//534 45//535 73//536
f 162//537 73//538 51//539 80//540
f 54//541 78//542 162//543 80//544
f 126//545 29//546 81//547 163//548
f 163//549 81//550 31//551 132//552
f 163//553 132//554 33//555 82//556
f 30//557 126//558 163//559 82//560
f 32//561 129//562 164//563 83//564
f 129//565 31//566 81//567 164//568
f 164//569 81//570 29//571 57//572
f 83//573 164//574 57//575 39//576
f 138//577 25//578 84//579 165//580
f 165//581 84//582 34//583 137//584
f 165//585 137//586 36//587 85//588
f 37//589 138//590 165//591 85//592
f 35//593 134//594 166//595 86//596
f 134//597 34//598 84//599 166//600
f 166//601 84//602 25//603 124//604
f 86//605 166//606 124//607 28//608
f 47//609 71//610 167//611 88//612
f 71//613 49//614 87//615 167//616
f 167//617 87//618 5//619 99//620
f 88//621 167//622 99//623 4//624
f 95//625 3//626 89//627 168//628
f 168//629 89//630 46//631 68//632
f 168//633 68//634 47//635 88//636
f 4//637 95//638 168//639 88//640
f 52//641 77//642 169//643 91//644
f 77//645 53//646 90//647 169//648
f 169//649 90//650 11//651 106//652
f 91//653 169//654 106//655 10//656
f 102//657 9//658 92//659 170//660
f 170//661 92//662 50//663 75//664
f 170//665 75//666 52//667 91//668
f 10//669 102//670 170//671 91//672
