# This file uses centimeters as units for non-parametric coordinates.

mtllib input_grid_01.mtl
g default
v -0.500000 -0.500000 0.000000
v 0.562222 -0.263820 0.000000
v 1.647594 0.620797 0.000000
v -0.500000 0.000000 0.000000
v 0.484215 0.114174 0.000000
v 1.647594 0.913390 0.000000
v -0.500000 0.500000 0.000000
v 0.406208 0.492167 0.000000
v 1.647594 1.205982 0.000000
v -0.074828 0.435946 0.000000
v -0.500000 0.250000 0.000000
v 1.647594 1.059686 0.000000
v 0.998969 0.788937 0.000000
v 0.029182 -0.435946 0.000000
v 0.523218 -0.074823 0.000000
v -0.022823 0.000000 0.000000
v -0.500000 -0.250000 0.000000
v 1.102978 0.124453 0.000000
v 1.647594 0.767094 0.000000
v 1.050974 0.456695 0.000000
v 0.445211 0.303170 0.000000
v 0.003179 -0.217973 0.000000
v 1.076976 0.290574 0.000000
v -0.048825 0.217973 0.000000
v 1.024972 0.622816 0.000000
v 0.702589 0.640552 0.000000
v 0.735091 0.462993 0.000000
v 0.767594 0.285434 0.000000
v 0.800097 0.107875 0.000000
v 0.832600 -0.069684 0.000000
v 1.323282 0.997459 0.000000
v 1.336283 0.841251 0.000000
v 1.349284 0.685042 0.000000
v 1.362285 0.528834 0.000000
v 1.375286 0.372625 0.000000
vt 0.000000 0.000000
vt 0.500000 0.000000
vt 1.000000 0.000000
vt 0.000000 0.500000
vt 0.500000 0.500000
vt 1.000000 0.500000
vt 0.000000 1.000000
vt 0.500000 1.000000
vt 1.000000 1.000000
vt 0.250000 0.250000
vt 0.750000 0.250000
vt 0.250000 0.750000
vt 0.750000 0.750000
vt 0.250000 0.000000
vt 0.500000 0.250000
vt 0.250000 0.500000
vt 0.000000 0.250000
vt 0.750000 0.000000
vt 1.000000 0.250000
vt 0.750000 0.500000
vt 0.500000 0.750000
vt 0.250000 1.000000
vt 0.000000 0.750000
vt 1.000000 0.750000
vt 0.750000 1.000000
vt 0.625000 1.000000
vt 0.625000 0.750000
vt 0.625000 0.500000
vt 0.625000 0.250000
vt 0.625000 0.000000
vt 0.875000 1.000000
vt 0.875000 0.750000
vt 0.875000 0.500000
vt 0.875000 0.250000
vt 0.875000 0.000000
vn 0.000000 0.000000 1.000000
vn 0.000000 0.000000 1.000000
vn 0.000000 0.000000 1.000000
vn 0.000000 0.000000 1.000000
vn 0.000000 0.000000 1.000000
vn 0.000000 0.000000 1.000000
vn 0.000000 0.000000 1.000000
vn 0.000000 0.000000 1.000000
vn 0.000000 0.000000 1.000000
vn 0.000000 0.000000 1.000000
vn 0.000000 0.000000 1.000000
vn 0.000000 0.000000 1.000000
vn 0.000000 0.000000 1.000000
vn 0.000000 0.000000 1.000000
vn 0.000000 0.000000 1.000000
vn 0.000000 0.000000 1.000000
vn 0.000000 0.000000 1.000000
vn 0.000000 0.000000 1.000000
vn 0.000000 0.000000 1.000000
vn 0.000000 0.000000 1.000000
vn 0.000000 0.000000 1.000000
vn 0.000000 0.000000 1.000000
vn 0.000000 0.000000 1.000000
vn 0.000000 0.000000 1.000000
vn 0.000000 0.000000 1.000000
vn 0.000000 0.000000 1.000000
vn 0.000000 0.000000 1.000000
vn 0.000000 0.000000 1.000000
vn 0.000000 0.000000 1.000000
vn 0.000000 0.000000 1.000000
vn 0.000000 0.000000 1.000000
vn 0.000000 0.000000 1.000000
vn 0.000000 0.000000 1.000000
vn 0.000000 0.000000 1.000000
vn 0.000000 0.000000 1.000000
s 1
g pPlane1
usemtl initialShadingGroup
f 1/1/1 14/14/2 22/10/3 17/17/4
f 14/14/2 2/2/5 15/15/6 22/10/3
f 22/10/3 15/15/6 5/5/7 16/16/8
f 17/17/4 22/10/3 16/16/8 4/4/9
f 30/30/10 18/18/11 23/11/12 29/29/13
f 35/35/14 3/3/15 19/19/16 34/34/17
f 34/34/17 19/19/16 6/6/18 33/33/19
f 29/29/13 23/11/12 20/20/20 28/28/21
f 4/4/9 16/16/8 24/12/22 11/23/23
f 16/16/8 5/5/7 21/21/24 24/12/22
f 24/12/22 21/21/24 8/8/25 10/22/26
f 11/23/23 24/12/22 10/22/26 7/7/27
f 28/28/21 20/20/20 25/13/28 27/27/29
f 33/33/19 6/6/18 12/24/30 32/32/31
f 32/32/31 12/24/30 9/9/32 31/31/33
f 27/27/29 25/13/28 13/25/34 26/26/35
f 21/21/24 27/27/29 26/26/35 8/8/25
f 5/5/7 28/28/21 27/27/29 21/21/24
f 15/15/6 29/29/13 28/28/21 5/5/7
f 2/2/5 30/30/10 29/29/13 15/15/6
f 25/13/28 32/32/31 31/31/33 13/25/34
f 20/20/20 33/33/19 32/32/31 25/13/28
f 23/11/12 34/34/17 33/33/19 20/20/20
f 18/18/11 35/35/14 34/34/17 23/11/12
